<svg width="720" height="560" viewBox="0 0 720 560" fill="none" xmlns="http://www.w3.org/2000/svg">
<g clip-path="url(#clip0_8864_18556)">
<rect width="720" height="560" fill="white"/>
<rect x="167" y="81" width="653" height="484" rx="14" fill="#0080FF" stroke="#0080FF" stroke-width="4"/>
<g filter="url(#filter0_i_8864_18556)">
<rect x="462.429" y="88.4284" width="70.3987" height="17.1429" rx="8.57143" fill="#F0F6FC" stroke="#0080FF" stroke-width="2.85714"/>
<rect x="479.429" y="88.4286" width="53.1894" height="17.1429" rx="8.57143" fill="#D4E3F3" stroke="#0080FF" stroke-width="2.85714"/>
<rect x="489" y="92" width="2" height="10" rx="1" fill="#6AB1F9"/>
<rect x="493" y="92" width="2" height="10" rx="1" fill="#6AB1F9"/>
<rect x="497" y="92" width="2" height="10" rx="1" fill="#6AB1F9"/>
<g filter="url(#filter1_d_8864_18556)">
<rect x="514.954" y="87" width="20" height="20" rx="10" fill="white"/>
<rect x="516.382" y="88.4286" width="17.1429" height="17.1429" rx="8.57143" stroke="#0080FF" stroke-width="2.85714"/>
</g>
<circle cx="524.954" cy="97.001" r="6.74419" fill="#F0F6FC"/>
<circle cx="524.953" cy="96.9992" r="3.92027" fill="#0080FF" stroke="#0080FF" stroke-width="2.85714"/>
<g filter="url(#filter2_i_8864_18556)">
<circle cx="544.349" cy="96.9992" r="5.34884" fill="#0080FF"/>
</g>
<circle cx="544.349" cy="96.9992" r="3.92027" stroke="#0080FF" stroke-width="2.85714"/>
<ellipse cx="523.791" cy="93.8596" rx="2.09302" ry="1.97674" fill="#D4E3F3" fill-opacity="0.5"/>
</g>
<rect x="181" y="113" width="663" height="478" rx="14" fill="white" stroke="#0080FF" stroke-width="4"/>
<path d="M395.629 188.878C407.104 175.064 417.295 159.597 428.814 145.697C435.232 137.952 440.252 128.283 446.607 120.389C448.365 118.202 451.677 113.324 453.146 110.918L454.104 111.07L454.022 111.784C454.832 112.578 454.823 112.53 455.35 113.617C455.074 114.695 455.363 114.238 454.305 114.927C454.474 115.322 454.625 115.72 454.782 116.12L455.51 116.277C455.134 117.684 454.189 120.883 454.01 122.177C452.405 125.458 450.785 130.279 449.228 133.918C447.241 138.567 444.374 143.042 442.399 147.317C441.096 149.195 440.01 151.209 438.801 153.146C428.739 169.3 417.766 184.915 407.101 200.675C405.873 202.49 404.09 204.888 403.063 206.77L401.883 208.679C398.081 214.274 394.087 221.479 390.542 227.393L389.519 229.255C390.197 229.901 392.087 231.486 392.542 232.009C386.486 242.622 380.571 253.318 374.807 264.093C363.997 283.948 354.663 301.449 346.34 322.632L345.501 324.877C344.773 326.651 344.057 328.434 343.263 330.18C339.319 341.027 334.56 351.57 330.525 362.386C329.97 363.871 329.426 365.359 328.758 366.8C328.368 367.874 328.048 368.26 328.193 369.29L328.419 369.4C333.414 364.514 338.409 358.26 343.683 353.231C348.522 348.622 355.187 343.184 359.36 338.336C362.411 334.789 366.166 326.139 368.665 321.794C375.121 310.579 388.451 296.746 399.927 290.937C400.586 290.498 402.737 289.481 403.547 289.073C407.81 286.636 411.71 285.628 416.454 284.479C420.469 283.544 424.601 283.206 428.714 283.476C430.902 283.702 432.312 283.993 434.441 284.646C436.155 285.299 436.893 285.619 438.528 286.495C436.431 287.942 438.017 288.868 436.607 289.512C435.69 289.286 434.28 288.828 433.417 288.916C428.155 292.225 426.372 292.674 421.552 297.245C415.797 304.633 406.011 317.298 406.222 327.2C406.294 330.66 410.291 336.801 413.402 338.647C411.845 342.879 410.064 347.011 408.419 351.202C407.135 354.248 406.065 356.791 405.035 359.946L404.78 360.455C401.782 366.571 402.354 367.893 397.647 374.093C387.962 388.005 375.07 399.716 364.54 413.053C359.579 419.335 354.751 425.561 349.96 431.966C347.975 434.619 342.462 442.525 340.428 444.352L339.684 445.35L337.734 447.448C339.822 447.994 339.715 447.699 340.186 449.95L340.939 450.458L337.523 454.157L336.434 455.202C330.786 460.697 326.35 464.747 319.898 469.34L318.158 470.634C304.916 479.999 291.249 489.902 277.405 498.344C270.01 503.1 262.429 507.565 254.681 511.722C246.451 516.224 236.432 521.665 229.081 527.414C226.706 529.272 221.373 535.313 219.207 537.712C216.658 540.757 214.149 543.837 211.682 546.952C208.586 551.611 204.752 556.097 201.729 560.628C195.971 569.255 189.815 577.742 184.117 586.366C178.533 594.379 172.686 604.821 167.243 612.187L166.917 613H161.606H3V561.177C7.58027 555.749 11.7614 549.991 16.0801 544.371C22.0557 536.745 27.9733 529.075 33.8322 521.357C40.2048 512.893 46.955 503.615 54.2198 495.949C66.6097 482.872 82.909 474.882 92.3674 458.848C102.714 441.306 103.28 421.109 106.138 401.474C107.096 394.887 108.363 388.131 109.706 381.603C113.233 364.587 117.153 347.655 121.462 330.82C125.296 315.376 129.396 299.904 134.387 284.749C135.779 280.521 138.723 273.026 141.147 269.245C142.106 267.75 144.877 266.242 146.559 265.438C150.37 265.399 154.726 266.429 158.397 266.266C166.44 265.907 175.864 262.25 183.837 265.572C191.048 267.7 194.504 272.255 200.428 275.487C213.34 280.146 223.7 271.26 236.806 275.599C245.599 278.51 250.815 286.281 257.891 291.826C270.47 301.681 283.579 302.84 298.979 301.549C306.801 299.898 307.866 299.132 314.728 295.675C314.946 295.27 320.497 291.11 321.417 290.297C323.813 288.178 325.709 286.049 327.744 283.56C336.412 272.949 342.933 260.74 350.556 249.174C358.512 237.096 366.48 226.253 375.325 214.792C377.682 211.741 379.685 209.075 382.191 206.068C384.401 203.416 386.718 199.728 389.202 197.261C391.12 194.524 393.541 191.55 395.629 188.878Z" fill="#D4E3F3"/>
<path d="M416.454 284.479C420.469 283.544 424.601 283.206 428.714 283.476C430.902 283.702 432.312 283.993 434.44 284.646C436.155 285.299 436.892 285.619 438.528 286.495C436.431 287.942 438.016 288.869 436.607 289.512C435.69 289.286 434.28 288.828 433.417 288.916C428.155 292.225 426.372 292.674 421.552 297.245C419.565 298.159 417.505 299.292 415.832 300.702C405.879 306.494 391.933 322.007 386.345 332.249C382.345 339.727 377.136 348.634 371.441 354.826C356.848 370.69 337.555 381.475 321.097 395.223C319.86 396.259 317.326 397.694 315.745 396.89C314.336 394.514 315.451 388.018 317.22 385.958C318.02 385.757 317.662 385.691 318.334 385.949C319.48 383.889 322.152 374.241 323.383 371.221C323.938 371.438 323.646 371.365 324.362 371.193C325.452 369.522 324.309 369.909 325.081 368.201L326.362 368.876C327.166 368.04 326.124 367.968 327.056 366.549C328.215 366.354 327.665 366.289 328.758 366.8C328.368 367.874 328.048 368.26 328.193 369.29L328.419 369.4C333.414 364.515 338.409 358.261 343.683 353.231C348.522 348.622 355.187 343.184 359.36 338.337C362.411 334.789 366.166 326.139 368.665 321.794C375.12 310.579 388.451 296.746 399.927 290.938C400.586 290.498 402.737 289.481 403.547 289.073C407.81 286.636 411.71 285.629 416.454 284.479Z" fill="white"/>
<path d="M399.927 290.938C400.586 290.498 402.737 289.481 403.547 289.073L404.62 290.429L405.936 291.023L406.137 291.607L405.456 292.787C404.143 293.704 403.12 294.187 401.707 294.909C388.426 302.837 377.551 314.228 370.245 327.86C368.452 331.138 365.576 338.406 363.24 340.867C357.218 347.216 349.778 353.328 343.445 359.473C338.535 364.242 334.101 370.298 329.263 374.672C329.43 373.802 329.518 373.532 328.89 372.873C328.601 371.347 328.441 371.714 328.924 370.464L328.419 369.4C333.414 364.515 338.409 358.261 343.684 353.231C348.522 348.622 355.187 343.184 359.36 338.337C362.411 334.789 366.166 326.139 368.666 321.794C375.121 310.579 388.451 296.746 399.927 290.938Z" fill="#0080FF"/>
<path d="M404.62 290.428L405.936 291.021L406.137 291.605L405.456 292.786L403.729 292.576L403.547 292.227L404.62 290.428Z" fill="#0080FF"/>
<path d="M323.383 371.22C323.938 371.437 323.646 371.365 324.362 371.192C325.452 369.522 324.309 369.908 325.081 368.2L326.362 368.875C327.166 368.04 326.124 367.968 327.056 366.549C328.215 366.354 327.665 366.288 328.758 366.8C328.368 367.873 328.048 368.26 328.193 369.289L328.419 369.399L328.924 370.464C328.441 371.713 328.601 371.346 328.89 372.872C329.517 373.531 329.43 373.801 329.263 374.671C328.296 375.757 326.12 377.949 325.527 378.978C323.885 381.839 323.326 388.859 319.819 389.892C318.538 389.691 319.006 389.992 318.259 389.151C317.964 387.873 318.149 387.279 318.334 385.948C319.48 383.889 322.152 374.241 323.383 371.22Z" fill="#0080FF"/>
<path d="M416.454 284.479C420.469 283.544 424.601 283.206 428.714 283.476C430.902 283.702 432.312 283.993 434.441 284.646C436.155 285.299 436.893 285.619 438.528 286.495C436.431 287.942 438.017 288.869 436.607 289.512C435.69 289.286 434.28 288.828 433.417 288.916C430.136 287.173 424.758 287.763 421.053 288.043C419.86 288.084 417.634 288.363 416.755 287.908C417.534 287.384 418.049 286.511 418.592 285.72L421 285.563L421.056 285.258C419.468 284.596 418.742 284.875 417.05 284.586L416.454 284.479Z" fill="#0080FF"/>
<path d="M428.714 283.476C430.902 283.702 432.312 283.992 434.44 284.645C432.563 285.163 429.841 287.719 427.769 285.509C428.35 285.003 428.255 285.289 428.331 284.711L427.383 284.388L426.811 284.517L426.72 284.316C427.524 284.071 427.973 283.875 428.714 283.476Z" fill="#0080FF"/>
<path d="M416.454 284.479L417.05 284.585C418.742 284.874 419.468 284.595 421.056 285.257L421 285.562L418.592 285.719C418.049 286.51 417.534 287.383 416.755 287.907C417.634 288.362 419.86 288.083 421.053 288.042L412.598 289.932L412.447 289.951C411.845 290.24 406.014 292.645 405.456 292.786L406.137 291.606L405.936 291.022L404.62 290.428L403.547 289.072C407.81 286.636 411.71 285.628 416.454 284.479Z" fill="#0080FF"/>
<path d="M341.31 324.117C344.663 316.136 347.476 308.506 351.219 300.56C357.181 287.895 363.749 275.956 370.402 263.668C376.565 252.278 382.649 240.226 389.519 229.255C390.197 229.901 392.087 231.486 392.542 232.009C386.486 242.622 380.571 253.318 374.807 264.092C363.997 283.948 354.663 301.449 346.34 322.632L345.501 324.876C344.773 326.65 344.057 328.434 343.263 330.179C339.319 341.027 334.56 351.569 330.525 362.385C329.97 363.87 329.426 365.359 328.758 366.8C327.665 366.288 328.215 366.354 327.056 366.549C326.124 367.968 327.166 368.04 326.362 368.875L325.081 368.2C324.309 369.908 325.452 369.522 324.362 371.192C323.646 371.365 323.938 371.437 323.383 371.22C324.099 367.961 325.54 364.25 326.748 361.098C331.474 348.797 336.045 336.182 341.31 324.117Z" fill="#0080FF"/>
<path d="M218.144 532.271C219.085 532.4 219.364 532.331 220.078 532.937C219.698 534.67 217.758 533.1 219.207 535.957C219.448 536.434 219.285 537.166 219.207 537.712C216.658 540.757 214.149 543.837 211.681 546.952C208.585 551.611 204.752 556.098 201.729 560.628C195.971 569.256 189.815 577.742 184.117 586.367C178.533 594.379 172.686 604.821 167.243 612.187L166.917 613H161.606C162.757 611.214 163.919 609.43 165.09 607.656C166.171 605.543 169.326 600.935 170.734 598.822C174.168 593.732 177.575 588.624 180.955 583.497C183.112 580.332 185.132 577.08 187.29 573.949C190.308 569.576 193.459 565.441 196.198 560.857C197.296 559.4 199.159 557.071 199.98 555.551C202.719 552.578 205.935 547.184 209.013 543.536C211.876 539.637 214.923 535.878 218.144 532.271Z" fill="#0080FF"/>
<path d="M274.523 495.016L275.19 495.409L275.28 495.766C275.55 496.809 275.555 497.179 276.309 497.949L277.405 498.344C270.01 503.101 262.429 507.565 254.681 511.722C246.451 516.224 236.432 521.665 229.081 527.414C226.706 529.273 221.373 535.313 219.207 537.712C219.285 537.166 219.448 536.434 219.207 535.957C217.758 533.1 219.698 534.67 220.078 532.936C219.364 532.331 219.085 532.4 218.144 532.271C226.885 522.607 240.423 513.596 252.365 508.184L252.813 507.794C260.234 503.49 267.209 499.543 274.523 495.016Z" fill="#0080FF"/>
<path d="M252.365 508.183L252.813 507.794C253.76 508.055 254.237 508.083 254.916 508.789C254.889 509.703 255.035 509.304 254.432 510.023C253.38 510.127 253.838 510.256 253.001 509.665L252.365 508.183Z" fill="#0080FF"/>
<path d="M244.064 513.775C244.998 513.681 244.991 513.675 245.914 513.828C246.563 514.547 246.359 514.127 246.459 515.163L245.174 515.386C244.319 515.025 244.546 514.962 244.064 513.775Z" fill="#0080FF"/>
<path d="M281.153 490.902C292.605 483.261 303.677 475.308 314.952 467.76C316.432 468.872 317.706 469.267 318.158 470.633C304.916 479.999 291.249 489.901 277.405 498.343L276.309 497.948C275.555 497.179 275.55 496.808 275.28 495.766L275.19 495.408L274.523 495.015C275.856 493.97 279.124 492.139 280.715 491.194L281.153 490.902Z" fill="#0080FF"/>
<path d="M281.153 490.903C281.742 491.126 282.326 491.361 282.906 491.603L283.067 492.196C282.258 492.545 282.694 492.451 281.679 492.196L280.714 491.195L281.153 490.903Z" fill="#0080FF"/>
<path d="M332.192 453.337C333.1 453.331 333.778 453.265 334.663 453.447C335.285 454.179 335.621 454.662 336.434 455.202C330.786 460.697 326.35 464.747 319.898 469.34L318.158 470.633C317.706 469.268 316.432 468.872 314.952 467.761L320.259 463.503C322.717 461.874 330.105 455.384 332.192 453.337Z" fill="#0080FF"/>
<path d="M320.259 463.503C321.128 463.996 321.32 464.028 321.982 464.791L321.92 465.258C320.629 465.682 320.425 465.516 319.668 466.379L319.716 467.795C319.028 468.461 318.83 468.48 317.961 468.863L318.13 469.098L318.096 469.161L318.771 468.894L319.113 469.387C319.665 469.243 319.402 469.246 319.898 469.34L318.158 470.634C317.706 469.268 316.432 468.872 314.952 467.761L320.259 463.503Z" fill="#0080FF"/>
<path d="M386.345 332.249C391.933 322.007 405.879 306.494 415.832 300.702C413.537 304.036 410.319 305.603 407.314 308.651L406.234 309.747L405.273 309.756C404.624 310.727 403.051 313.395 402.332 314.036C400.583 315.584 399.073 316.174 397.5 318.127L398.059 318.817C397.428 319.879 397.22 319.894 395.914 319.794C393.49 322.839 389.757 330.779 386.345 332.249Z" fill="#D4E3F3"/>
<path d="M337.734 447.447C339.822 447.993 339.715 447.698 340.186 449.949L340.939 450.458L337.523 454.157L336.434 455.202C335.621 454.662 335.285 454.179 334.663 453.447C333.778 453.265 333.1 453.331 332.192 453.337C334.057 451.387 335.903 449.425 337.734 447.447Z" fill="#0080FF"/>
<path d="M196.198 560.856L195.46 560.461L195.307 559.814C196.15 556.188 197.485 556.36 199.007 553.582L199.284 553.613L199.647 553.911C200.155 553.133 200.24 552.681 200.936 552.401L201.057 552.97C200.293 554.002 200.237 554.282 199.98 555.55C199.159 557.07 197.296 559.399 196.198 560.856Z" fill="#D4E3F3"/>
<path d="M344.886 192.618C345.573 191.269 347.055 189.514 347.985 188.185C353.382 180.466 360.226 173.989 366.534 167.034C372.511 160.445 378.822 153.568 384.521 146.763C396.112 132.915 406.542 117.235 418.391 103.662C425.436 96.2435 433.473 85.5726 444.588 85.0219C455.423 84.485 461.099 93.9042 461.14 103.663C461.322 106.628 461.033 110.849 460.367 113.757L460.094 113.058C459.03 113.699 459.049 113.727 457.824 114.06L457.338 113.729C457.017 112.41 456.958 113.009 457.303 111.857L458.258 111.394C457.671 109.202 458.057 107.697 457.017 106.07C456.616 109.804 456.267 112.562 455.51 116.276L454.782 116.12C454.625 115.72 454.474 115.321 454.305 114.927C455.363 114.238 455.074 114.695 455.35 113.617C454.823 112.53 454.832 112.578 454.022 111.784L454.104 111.069L453.146 110.918C451.677 113.324 448.365 118.202 446.607 120.389C440.252 128.282 435.232 137.951 428.814 145.696C417.295 159.597 407.104 175.064 395.629 188.878C393.541 191.55 391.12 194.524 389.202 197.261C386.718 199.728 384.401 203.416 382.191 206.068C379.685 209.074 377.682 211.74 375.325 214.792C366.48 226.253 358.512 237.095 350.556 249.173C342.933 260.74 336.412 272.949 327.744 283.56C325.709 286.049 323.813 288.177 321.417 290.297C320.497 291.11 314.946 295.27 314.728 295.675C307.866 299.132 306.801 299.898 298.979 301.549C283.579 302.839 270.47 301.681 257.891 291.826C250.815 286.281 245.599 278.51 236.806 275.599C223.7 271.26 213.34 280.146 200.428 275.487C194.504 272.255 191.048 267.7 183.837 265.571C175.864 262.25 166.44 265.907 158.397 266.265C154.726 266.429 150.37 265.398 146.559 265.438C144.877 266.241 142.106 267.75 141.147 269.244C138.723 273.026 135.779 280.521 134.387 284.749C129.396 299.904 125.296 315.376 121.462 330.82C117.153 347.654 113.233 364.586 109.706 381.603C108.363 388.13 107.096 394.887 106.137 401.474C103.28 421.109 102.714 441.306 92.3674 458.847C82.909 474.881 66.6097 482.872 54.2198 495.948C46.955 503.615 40.2048 512.893 33.8322 521.357C27.9733 529.074 22.0557 536.744 16.0801 544.37C11.7614 549.99 7.58027 555.748 3 561.177V537.84V530.826C3.3405 530.434 3.66741 530.139 4.03974 529.781C6.83709 525.909 10.0814 522.089 13.1262 518.384L13.6819 517.8C21.2014 508.161 27.1726 502.293 32.839 491.405C34.9058 486.589 38.4705 479.845 41.7837 475.848C50.2764 465.594 64.2873 455.852 70.7245 444.066C79.8824 427.294 81.9838 404.378 87.5971 385.929C88.8043 380.404 90.7869 373.512 92.4506 368.14C99.0068 345.017 106.808 321.969 114.695 299.245C121.147 280.653 125.49 258.222 139.164 243.456C148.127 233.778 159.213 225.88 169.558 217.737C177.188 211.731 184.81 205.335 193.062 200.238C196.931 197.877 202.403 195.79 206.938 195.707C215.673 195.548 222.33 197.969 228.685 203.733C232.038 200.701 243.103 192.438 247.053 190.615L248.857 189.67C250.79 188.781 253.243 187.758 255.299 187.291C256.299 187.229 257.505 187.008 258.323 187.483C258.498 188.168 258.531 187.854 258.302 188.43C258.733 188.181 258.886 188.142 259.196 187.75L259.653 187.742C260.978 187.708 261.411 187.817 262.486 187.176C262.949 187.947 262.937 188.193 262.536 189.015C263.164 189.391 263.155 189.363 263.878 189.519L264.266 190.065C270.497 190.509 274.009 191.691 279.608 194.743C280.758 195.37 282.756 196.852 283.663 197.254C284.232 197.087 284.991 198.124 286.309 197.885C287.094 197.128 287.048 197.065 287.418 196.074L288.301 195.954C288.786 194.82 292.506 191.893 293.59 191.129C303.206 184.344 312.078 178.84 324.365 180.871C332.023 182.138 340.343 186.24 344.886 192.618Z" fill="white"/>
<path d="M344.886 192.618C345.573 191.269 347.055 189.514 347.985 188.185C353.382 180.466 360.226 173.989 366.534 167.034C372.511 160.445 378.822 153.568 384.52 146.763C396.112 132.915 406.542 117.235 418.391 103.662C425.436 96.2435 433.473 85.5726 444.588 85.0219C455.423 84.485 461.099 93.9042 461.14 103.663C461.322 106.628 461.033 110.849 460.367 113.757L460.094 113.058C459.03 113.699 459.049 113.727 457.824 114.06L457.338 113.729C457.017 112.41 456.958 113.009 457.303 111.857L458.258 111.394C457.671 109.202 458.057 107.697 457.017 106.07C456.917 105.228 456.955 103.878 456.955 102.984C456.333 99.2337 456.443 97.073 454.569 93.686C453.193 94.2948 453.467 93.9541 452.666 95.0345C450.641 92.5441 448.883 90.525 445.498 90.3674C434.274 89.8456 421.446 107.222 417.012 115.321C416.736 114.865 416.937 115.023 416.394 114.872L415.779 116.217L415.383 116.032C415.37 115.564 415.377 115.121 415.38 114.653L414.79 114.471C410.943 118.799 407.113 124.177 403.697 128.914C397.07 138.111 390.175 146.606 382.831 155.225C372.009 167.924 359.768 179.368 350.01 192.914C346.996 197.14 344.242 201.602 341.42 205.957C336.139 214.217 330.717 222.388 325.16 230.464C323.31 233.099 320.155 237.659 318.111 240.094C318.365 238.16 317.847 236.067 315.748 235.59C324.695 223.154 334.795 209.317 342.559 196.029C339.454 192.31 335.859 189.765 331.583 187.587L329.941 186.813C320.777 184.05 313.753 183.516 305.12 188.603C288.701 198.277 275.874 213.369 261.081 225.271C259.242 226.751 257.148 228.444 255.416 230.01C253.783 229.818 253.969 230 253.073 229.015C252.893 227.92 253.354 226.839 253.536 225.672C263.549 217.068 272.335 209.708 282.255 200.644C284.03 199.185 284.165 199.329 283.663 197.254C284.232 197.087 284.991 198.124 286.309 197.885C287.094 197.128 287.048 197.065 287.418 196.074L288.301 195.954C288.786 194.82 292.506 191.893 293.589 191.129C303.206 184.344 312.078 178.84 324.365 180.871C332.023 182.138 340.343 186.24 344.886 192.618Z" fill="#0080FF"/>
<path d="M414.79 114.471C417.709 109.313 428.095 98.6918 432.598 94.398C438.814 88.4713 448.211 85.8915 454.569 93.6859C453.193 94.2947 453.467 93.9541 452.666 95.0344C450.641 92.5441 448.883 90.525 445.498 90.3674C434.274 89.8456 421.446 107.221 417.012 115.321C416.736 114.865 416.937 115.023 416.394 114.871L415.779 116.217L415.383 116.032C415.37 115.564 415.377 115.12 415.38 114.653L414.79 114.471Z" fill="white"/>
<path d="M344.886 192.618C346.016 192.359 347.237 191.651 348.214 191.61C348.374 193.218 347.454 194.988 345.978 195.702C344.732 195.553 345.322 195.775 344.267 194.754C344.569 196.385 344.751 196.653 344.038 198.135C343.724 196.857 344.132 196.066 343.52 195.444C343.231 195.149 343.222 195.061 343.106 194.736L343.395 194.472C344.12 193.801 344.537 193.538 344.886 192.618Z" fill="#0080FF"/>
<path d="M287.418 196.075L288.301 195.955C288.175 198.408 285.054 202.273 282.255 200.645C284.03 199.186 284.165 199.33 283.663 197.255C284.232 197.088 284.991 198.125 286.309 197.886C287.094 197.129 287.048 197.066 287.418 196.075Z" fill="#0080FF"/>
<path d="M329.941 186.813C329.803 185.525 330.007 186.012 328.817 184.982C330.88 183.059 332.177 184.301 334.469 185.01C333.668 185.133 333.473 184.965 332.679 184.704L332.177 184.94C332.108 186.133 332.287 186.852 331.583 187.588L329.941 186.813Z" fill="#0080FF"/>
<path d="M247.053 190.615C246.275 192.081 246.082 192.421 245.875 194.089L245.787 193.639L245.653 194.501C246.448 195.119 246.387 195.118 247.347 195.387C228.916 207.669 212.114 222.851 193.773 235.39C192.415 236.318 191.481 236.295 190.273 235.329C189.835 234.343 189.673 232.964 190.713 232.201C202.294 223.711 214.514 215.082 225.647 206.061C219.503 202.128 211.845 198.271 204.373 200.197C192.637 203.473 181.971 213.528 172.426 220.839C162.995 228.062 152.492 236.256 144.088 244.535C130.378 258.04 125.053 281.407 119.188 299.232L95.9299 371.287C94.1526 377.899 92.4622 384.056 90.9511 390.746C90.5103 390.774 90.1791 390.787 89.7323 390.787L89.321 390.784L88.7518 391.971C87.9368 392.25 88.3129 392.294 87.5936 392.024C87.1855 389.65 88.3343 388.297 87.5971 385.93C88.8043 380.404 90.7869 373.513 92.4506 368.141C99.0068 345.018 106.808 321.97 114.695 299.245C121.147 280.654 125.49 258.222 139.164 243.456C148.127 233.778 159.213 225.881 169.558 217.737C177.188 211.732 184.81 205.336 193.062 200.239C196.931 197.877 202.403 195.79 206.938 195.708C215.673 195.549 222.33 197.97 228.685 203.733C232.038 200.702 243.102 192.439 247.053 190.615Z" fill="#0080FF"/>
<path d="M97.3014 353.428C98.5541 354.162 99.0354 354.743 99.0564 356.216L98.523 356.662L98.3004 357.057L97.8693 356.903C97.34 355.374 97.0508 354.957 97.3014 353.428Z" fill="#0080FF"/>
<path d="M217.125 213.992C217.491 214 217.796 214.276 217.84 214.64C217.884 215.003 217.653 215.344 217.3 215.439C217.021 215.514 216.725 215.419 216.541 215.197C216.358 214.975 216.32 214.666 216.446 214.407C216.572 214.148 216.837 213.985 217.125 213.992Z" fill="#0080FF"/>
<path d="M417.012 115.321C421.446 107.221 434.274 89.8454 445.498 90.3672C448.883 90.5248 450.641 92.5439 452.666 95.0343C454.308 98.3167 454.487 101.504 453.087 104.888C448.704 115.474 436.974 133.347 423.43 128.572C420.846 127.645 418.541 126.073 416.733 124.006C415.75 119.979 415.502 119.225 417.012 115.321Z" fill="#0080FF"/>
<path d="M444.264 92.8711C452.471 93.8965 451.906 100.797 448.644 106.634C444.622 113.828 436.516 127.041 426.877 126.044C413.581 122.532 421.248 113.928 426.563 106.257C430.13 101.104 437.784 93.7348 444.264 92.8711Z" fill="white"/>
<path d="M87.5971 385.93C88.3343 388.297 87.1855 389.651 87.5936 392.024C88.3129 392.294 87.9368 392.25 88.7518 391.971L89.321 390.784L89.7323 390.787C90.1791 390.787 90.5103 390.775 90.9511 390.746C88.9003 398.31 86.7735 406.878 85.1026 414.532C81.7869 429.718 78.413 442.311 68.4086 454.77C61.033 463.953 51.5165 470.486 44.3205 479.635C41.3734 483.384 38.1882 490.589 35.626 494.957C35.7826 493.434 35.8228 492.373 34.6295 491.264C33.4522 490.994 34.0299 490.976 32.839 491.406C34.9057 486.59 38.4705 479.846 41.7837 475.849C50.2764 465.595 64.2873 455.853 70.7244 444.067C79.8824 427.295 81.9837 404.379 87.5971 385.93Z" fill="#0080FF"/>
<path d="M79.4521 426.255L80.3918 426.462L80.5704 426.914C79.9419 427.548 79.6087 427.922 79.0533 428.594L78.7645 428.669C78.4656 428.198 78.426 428.107 78.1899 427.611C78.6807 426.883 78.7818 426.842 79.4521 426.255Z" fill="#0080FF"/>
<path d="M32.839 491.405C34.0299 490.975 33.4522 490.994 34.6294 491.264C35.8228 492.372 35.7826 493.433 35.6259 494.956C31.8832 502.569 27.2589 507.762 22.0186 514.308L6.75492 533.115C6.62001 531.652 6.68259 530.336 5.77473 529.388C5.1672 529.501 4.63989 529.63 4.03967 529.78C6.83702 525.909 10.0814 522.088 13.1261 518.384L13.6818 517.8C21.2013 508.161 27.1725 502.293 32.839 491.405Z" fill="#0080FF"/>
<path d="M13.6819 517.8C15.842 518.054 14.9767 518.177 16.9648 517.376C17.3168 518.142 17.2225 518.447 17.2179 519.345C15.9403 520.236 14.1736 519.282 13.1262 518.384L13.6819 517.8Z" fill="#0080FF"/>
<path d="M315.748 235.59C317.847 236.066 318.365 238.16 318.111 240.094L317.838 240.454C314.939 244.457 311.458 248.377 308.272 252.161C306.566 254.187 303.691 257.805 300.902 257.804C300 257.375 300.077 257.37 299.581 256.483C299.599 255.611 299.487 255.342 300.142 254.623C305.473 248.769 310.322 242.728 315.225 236.521L315.748 235.59Z" fill="#0080FF"/>
<path d="M315.748 235.59C317.847 236.066 318.365 238.16 318.111 240.094L317.838 240.454C316.87 240.189 316.55 240.385 315.352 239.942C314.798 238.97 315.123 237.815 315.225 236.521L315.748 235.59Z" fill="#0080FF"/>
<path d="M253.536 225.672C253.354 226.839 252.893 227.92 253.073 229.015C253.969 230 253.784 229.818 255.416 230.01C253.462 231.65 251.893 232.776 249.794 234.242C247.466 236.187 241.977 241.056 239.055 239.779C238.182 238.741 238.444 239.312 238.189 238.023C238.775 236.261 245.701 231.696 247.772 230.174C249.708 228.692 251.629 227.191 253.536 225.672Z" fill="#0080FF"/>
<path d="M255.299 187.291C256.299 187.229 257.505 187.008 258.323 187.484C258.498 188.168 258.531 187.855 258.302 188.43C258.733 188.181 258.886 188.142 259.196 187.75L259.653 187.742C260.978 187.709 261.411 187.817 262.486 187.176C262.949 187.948 262.937 188.194 262.536 189.015C263.164 189.392 263.155 189.363 263.878 189.52L264.266 190.066C256.789 190.462 253.795 192.138 247.347 195.387C246.387 195.118 246.448 195.119 245.653 194.501L245.787 193.639L245.875 194.089C246.082 192.421 246.275 192.081 247.053 190.615L248.857 189.67C250.79 188.782 253.243 187.759 255.299 187.291Z" fill="#0080FF"/>
<path d="M255.299 187.291C256.299 187.23 257.505 187.009 258.323 187.484C258.498 188.169 258.531 187.855 258.302 188.43L257.517 188.438L257.436 188.803L257.646 188.932C255.524 189.369 250.842 190.308 248.857 189.67C250.79 188.782 253.243 187.759 255.299 187.291Z" fill="#0080FF"/>
<path d="M4.03974 529.781C4.63995 529.631 5.16726 529.502 5.7748 529.389C6.68265 530.337 6.62008 531.653 6.75499 533.116C5.49734 534.632 4.11227 536.227 3 537.841V530.827C3.3405 530.434 3.66741 530.139 4.03974 529.781Z" fill="#0080FF"/>
<path d="M433.417 288.916C434.28 288.828 435.69 289.286 436.607 289.512C438.017 288.869 436.431 287.942 438.528 286.495C441.134 288.297 443.461 291.223 443.721 294.46C443.994 297.832 441.809 301.678 440.045 304.41C434.227 313.42 428.252 322.315 422.673 331.476C422.623 331.552 422.57 331.627 422.516 331.702C421.75 333.024 420.972 334.456 420.086 335.693C416.658 341.796 415.27 345.693 412.639 352.009C412.347 351.177 412.215 350.449 411.546 349.928L410.039 349.416C409.647 349.969 409.757 349.692 409.634 350.214L408.419 351.203C410.064 347.011 411.845 342.879 413.402 338.647C410.291 336.801 406.294 330.66 406.222 327.2C406.011 317.298 415.797 304.633 421.552 297.245C426.372 292.674 428.155 292.225 433.417 288.916Z" fill="#0080FF"/>
<path d="M418.416 307.414C421.631 302.758 423.803 299.719 428.356 296.319C428.711 297.716 428.318 297.257 429.364 297.904C430.544 297.983 431.835 297.753 432.585 298.13L432.566 298.768C433.021 299.945 433.021 300.058 434.108 300.629C436.302 300.695 436.899 299.477 438.67 298.005C437.464 301.009 435.533 303.477 433.926 306.227C429.439 313.907 422.931 322.029 418.746 329.712C418.281 330.302 418.187 330.374 417.829 331.024C416.852 332.321 416.272 333.777 415.066 334.801C412.787 334.484 409.631 327.85 409.703 325.671C409.882 320.334 415.198 311.266 418.416 307.414Z" fill="#D4E3F3"/>
<path d="M418.416 307.414C421.631 302.758 423.803 299.719 428.356 296.319C428.711 297.716 428.318 297.257 429.364 297.904C430.544 297.983 431.835 297.753 432.585 298.13L432.566 298.768C427.326 298.711 423.351 303.383 420.246 307.153C420.017 307.43 418.749 307.423 418.416 307.414Z" fill="#D4E3F3"/>
<path d="M435.812 291.86C440.277 291.392 440.114 294.997 438.669 298.004C436.899 299.477 436.302 300.695 434.108 300.629C433.021 300.058 433.021 299.945 432.566 298.767L432.585 298.13C431.835 297.753 430.544 297.982 429.364 297.904C428.318 297.257 428.711 297.715 428.356 296.318C430.607 294.416 433.197 293.179 435.812 291.86Z" fill="#D4E3F3"/>
<path d="M435.812 291.86C440.277 291.392 440.114 294.997 438.67 298.004C436.899 299.477 436.302 300.695 434.108 300.629C433.021 300.058 433.021 299.945 432.566 298.767C433.32 298.667 435.1 298.909 436.327 298.852C437.533 297.876 438.362 296.877 438.632 295.323C439.046 292.912 437.564 292.557 435.812 291.86Z" fill="#D4E3F3"/>
<path d="M418.745 329.712C419.816 329.273 419.907 329.166 420.664 328.284L421.367 328.133C422.209 328.94 422.381 330.513 422.516 331.703C421.75 333.025 420.971 334.456 420.086 335.693C418.388 334.312 418.35 333.452 417.829 331.025C418.187 330.375 418.281 330.303 418.745 329.712Z" fill="#0080FF"/>
<path d="M440.302 290.055C441.275 290.14 440.833 289.986 441.655 290.608C441.577 291.619 441.301 291.685 440.647 292.658C439.558 291.889 439.881 292.372 439.439 291.311C439.815 290.247 439.489 290.614 440.302 290.055Z" fill="#0080FF"/>
<path d="M415.553 337.419C416.083 337.539 416.237 337.617 416.742 337.812C417.527 338.663 417.483 338.952 417.662 340.085C417.122 339.887 416.51 339.592 415.976 339.357C415.267 338.264 415.465 338.87 415.553 337.419Z" fill="#0080FF"/>
<path d="M405.035 359.947L406.438 358.364L406.802 358.38C407.066 360.697 407.54 361.752 407.942 363.849C407.371 365.579 406.649 367.256 405.782 368.857C405.446 369.466 405.11 370.094 404.755 370.69C403.851 372.659 402.228 375.133 401.025 376.988C395.023 385.057 387.578 393.267 380.775 400.746L378.923 402.843C371.664 411.082 364.709 419.587 358.079 428.337C352.71 435.448 346.993 443.972 340.939 450.459L340.186 449.95C339.715 447.699 339.822 447.994 337.734 447.448L339.684 445.35L340.428 444.352C342.462 442.525 347.975 434.619 349.96 431.966C354.751 425.561 359.579 419.336 364.54 413.053C375.07 399.716 387.962 388.005 397.647 374.094C402.354 367.893 401.782 366.571 404.78 360.455L405.035 359.947Z" fill="#0080FF"/>
<path d="M378.922 402.843L377.726 402.708C376.665 401.788 376.995 402.335 376.615 401.072C376.919 399.437 377.459 398.303 379.331 398.561C380.304 399.343 380.323 399.603 380.775 400.746L378.922 402.843Z" fill="#0080FF"/>
<path d="M404.755 370.69C403.641 370.053 402.746 368.832 403.591 367.648C404.777 367.67 404.598 367.874 405.782 368.857C405.446 369.466 405.11 370.094 404.755 370.69Z" fill="#0080FF"/>
<path d="M442.399 147.317C443.1 147.433 442.739 147.404 443.483 147.4C443.64 148.844 442.202 148.692 443.702 149.998C444.311 150.53 444.399 150.775 444.651 151.533C441.605 157.293 435.907 165.377 432.164 171.002L406.184 209.529C403.032 214.254 400.109 219.302 397.126 224.137C395.986 225.983 393.996 229.956 392.831 231.472L392.542 232.009C392.087 231.486 390.197 229.901 389.519 229.255L390.542 227.393C394.087 221.479 398.081 214.274 401.883 208.679L403.063 206.769C404.09 204.887 405.873 202.489 407.101 200.675C417.766 184.914 428.739 169.3 438.801 153.146C440.01 151.208 441.097 149.195 442.399 147.317Z" fill="#0080FF"/>
<path d="M390.542 227.393C391.974 227.935 392.489 229.601 392.53 231.061L392.831 231.471L392.542 232.008C392.087 231.486 390.197 229.9 389.519 229.254L390.542 227.393Z" fill="#0080FF"/>
<path d="M401.883 208.679L403.063 206.77C404.024 208.266 404.532 208.54 404.297 210.054C403.647 210.658 404.024 210.516 403.138 210.498C401.901 209.489 402.262 210.102 401.883 208.679Z" fill="#0080FF"/>
<path d="M405.003 204.691C406.743 205.558 406.708 206.745 406.35 208.391L405.964 208.43C404.784 206.881 404.809 206.548 405.003 204.691Z" fill="#0080FF"/>
<path d="M457.018 106.07C458.057 107.697 457.671 109.202 458.258 111.395L457.303 111.857C456.958 113.009 457.018 112.41 457.338 113.729L457.824 114.06C459.049 113.728 459.03 113.699 460.094 113.059L460.368 113.757C459.746 116.959 458.371 121.949 457.266 125.064C455.115 131.111 448.358 146.123 444.651 151.533C444.399 150.775 444.312 150.53 443.702 149.998C442.202 148.692 443.64 148.844 443.483 147.4C442.739 147.404 443.1 147.433 442.399 147.317C444.374 143.042 447.241 138.566 449.228 133.918C450.785 130.279 452.405 125.458 454.01 122.177C454.189 120.883 455.134 117.684 455.511 116.276C456.267 112.562 456.616 109.804 457.018 106.07Z" fill="#0080FF"/>
<path d="M255.299 187.29C266.106 183.814 280.252 186.889 287.418 196.074C287.048 197.065 287.094 197.128 286.309 197.885C284.991 198.124 284.232 197.087 283.663 197.254C282.756 196.852 280.758 195.369 279.608 194.742C274.009 191.691 270.497 190.509 264.266 190.065L263.878 189.519C263.155 189.362 263.164 189.391 262.536 189.014C262.937 188.193 262.949 187.947 262.485 187.175C261.41 187.816 260.978 187.708 259.653 187.741L259.196 187.749C258.886 188.141 258.732 188.18 258.302 188.429C258.531 187.854 258.498 188.167 258.323 187.483C257.505 187.007 256.299 187.228 255.299 187.29Z" fill="#0080FF"/>
<path d="M409.634 350.214C409.757 349.693 409.647 349.969 410.039 349.416L411.546 349.928C412.215 350.449 412.347 351.178 412.639 352.01C411.188 355.699 409.524 360.295 407.942 363.849C407.54 361.752 407.066 360.697 406.802 358.38L406.438 358.364L405.035 359.947C406.065 356.791 407.135 354.248 408.419 351.203L409.634 350.214Z" fill="#0080FF"/>
<path d="M742 177L232 702H742V177Z" fill="#F9FCFF" stroke="white"/>
</g>
<defs>
<filter id="filter0_i_8864_18556" x="461" y="86.9999" width="88.6977" height="22.0001" filterUnits="userSpaceOnUse" color-interpolation-filters="sRGB">
<feFlood flood-opacity="0" result="BackgroundImageFix"/>
<feBlend mode="normal" in="SourceGraphic" in2="BackgroundImageFix" result="shape"/>
<feColorMatrix in="SourceAlpha" type="matrix" values="0 0 0 0 0 0 0 0 0 0 0 0 0 0 0 0 0 0 127 0" result="hardAlpha"/>
<feOffset dy="4"/>
<feGaussianBlur stdDeviation="1"/>
<feComposite in2="hardAlpha" operator="arithmetic" k2="-1" k3="1"/>
<feColorMatrix type="matrix" values="0 0 0 0 0.41859 0 0 0 0 0.429914 0 0 0 0 0.441237 0 0 0 0.25 0"/>
<feBlend mode="normal" in2="shape" result="effect1_innerShadow_8864_18556"/>
</filter>
<filter id="filter1_d_8864_18556" x="511.954" y="85" width="26" height="26" filterUnits="userSpaceOnUse" color-interpolation-filters="sRGB">
<feFlood flood-opacity="0" result="BackgroundImageFix"/>
<feColorMatrix in="SourceAlpha" type="matrix" values="0 0 0 0 0 0 0 0 0 0 0 0 0 0 0 0 0 0 127 0" result="hardAlpha"/>
<feOffset dy="1"/>
<feGaussianBlur stdDeviation="1.5"/>
<feComposite in2="hardAlpha" operator="out"/>
<feColorMatrix type="matrix" values="0 0 0 0 0 0 0 0 0 0.501961 0 0 0 0 1 0 0 0 0.2 0"/>
<feBlend mode="normal" in2="BackgroundImageFix" result="effect1_dropShadow_8864_18556"/>
<feBlend mode="normal" in="SourceGraphic" in2="effect1_dropShadow_8864_18556" result="shape"/>
</filter>
<filter id="filter2_i_8864_18556" x="539" y="91.6504" width="10.6977" height="12.6976" filterUnits="userSpaceOnUse" color-interpolation-filters="sRGB">
<feFlood flood-opacity="0" result="BackgroundImageFix"/>
<feBlend mode="normal" in="SourceGraphic" in2="BackgroundImageFix" result="shape"/>
<feColorMatrix in="SourceAlpha" type="matrix" values="0 0 0 0 0 0 0 0 0 0 0 0 0 0 0 0 0 0 127 0" result="hardAlpha"/>
<feOffset dy="4"/>
<feGaussianBlur stdDeviation="1"/>
<feComposite in2="hardAlpha" operator="arithmetic" k2="-1" k3="1"/>
<feColorMatrix type="matrix" values="0 0 0 0 0.41859 0 0 0 0 0.429914 0 0 0 0 0.441237 0 0 0 0.25 0"/>
<feBlend mode="normal" in2="shape" result="effect1_innerShadow_8864_18556"/>
</filter>
<clipPath id="clip0_8864_18556">
<rect width="720" height="560" fill="white"/>
</clipPath>
</defs>
</svg>
