<svg width="720" height="560" viewBox="0 0 720 560" fill="none" xmlns="http://www.w3.org/2000/svg">
<g clip-path="url(#clip0_8864_19289)">
<rect width="720" height="560" fill="white"/>
<rect width="9.71323" height="12.4884" transform="matrix(1 0 -0.173648 0.984808 687.222 367.131)" fill="#0080FF"/>
<rect width="700.282" height="349.379" rx="4.64479" transform="matrix(0.95285 -0.492404 0.779201 0.492404 -241.665 551.423)" fill="#0080FF"/>
<rect x="2.01125" width="697.545" height="347.646" rx="3.48359" transform="matrix(0.95285 -0.492404 0.779201 0.492404 -239.4 540.104)" fill="white" stroke="#0080FF" stroke-width="2.32239"/>
<rect width="268.763" height="162.111" rx="7.14001" transform="matrix(0.95285 -0.492404 0.779201 0.492404 184.089 374.194)" fill="#0080FF"/>
<rect width="264.497" height="162.111" rx="7.14001" transform="matrix(0.95285 -0.492404 0.779201 0.492404 185.201 367.89)" fill="#D4E3F3"/>
<rect width="230.368" height="77.6484" rx="7.14001" transform="matrix(0.95285 -0.492404 0.779201 0.492404 215.063 367.89)" fill="#0080FF"/>
<rect width="79.921" height="46.9269" rx="7.14001" transform="matrix(0.95285 -0.492404 0.779201 0.492404 359.74 369.992)" fill="#0080FF"/>
<path d="M413.289 60.6001C417.957 58.2179 422.09 60.0451 422.551 64.6952L438.64 227.119C439.105 231.811 435.659 237.598 430.952 240.031L189.582 364.763C184.886 367.19 180.714 365.357 180.265 360.668L164.544 196.49C164.093 191.78 167.569 185.987 172.289 183.578L413.289 60.6001Z" fill="#D4E3F3" stroke="#0080FF" stroke-width="3.57001"/>
<path d="M180.071 190.522L407.901 74.3113C410.698 72.8843 413.176 73.9768 413.457 76.7613L428.597 227.266C428.881 230.095 426.792 233.59 423.949 235.038L195.334 351.554C192.527 352.985 190.045 351.878 189.778 349.076L175.424 198.266C175.155 195.44 177.24 191.966 180.071 190.522Z" fill="#0080FF" stroke="#0080FF" stroke-width="3.57001"/>
<circle cx="1.78462" cy="1.78462" r="1.78462" transform="matrix(0.95285 -0.492404 0.178844 0.925417 274.902 135.638)" fill="#0080FF"/>
<rect width="17.85" height="3.57001" rx="1.785" transform="matrix(0.95285 -0.492404 0.178844 0.925417 280.004 133.001)" fill="#0080FF"/>
<path d="M641 259L629.5 215L594.5 222.5V266.5L641 259Z" fill="#FEFFFA"/>
<path d="M555.555 301.225L562.284 315.989L632.597 288.36C631.405 285.297 650.048 279.865 650.025 274.999C650.001 270.133 637.762 265.999 650.024 236.984C661.512 209.803 672.183 150.716 622.97 131.815C561.453 108.19 529.45 136.949 516.305 155.589C505.789 170.501 504.699 198.115 505.469 210.058C506.146 213.903 499.767 221.525 497.5 239.001C497.5 242.5 502.843 246.025 502.744 246.732C500.137 265.354 512.103 288.037 518.5 296.501C530.009 310.518 548.584 304.656 555.555 301.225Z" fill="white" stroke="#0080FF" stroke-width="4"/>
<path d="M553.244 275.235C547.228 292.629 536.667 298 529 301C540 307.5 553.077 300.402 556.244 298.736L563.744 314.236L574.744 308.736C571.244 290.403 557.744 262.224 553.244 275.235Z" fill="#D4E3F3"/>
<path d="M740.932 646.293L714.784 443.62L503.666 470.859L440.814 640.637L740.932 646.293Z" fill="#F0F6FC"/>
<path d="M702.306 353.194C732.664 374.567 737.558 432.587 737.558 432.587L673.298 538.659L583.87 534.865L503.421 606.629L431.846 638.18L311.179 604.986C311.179 604.986 295.551 595.039 290.177 585.398C276.977 561.718 286.703 524.461 314.848 520.527C350.59 515.531 424.875 538.119 424.875 538.119C424.875 538.119 472.758 448.379 522.212 388.797C561.711 341.209 651.373 317.336 702.306 353.194Z" fill="#F0F6FC" stroke="#0080FF" stroke-width="4"/>
<path d="M504.569 606.121L580.218 533.69C578.411 507.753 562.028 512.401 552.635 519.07C516.329 549.5 439.926 610.625 424.762 611.681C405.808 613.001 371.568 596.341 350.526 589.286C329.485 582.231 310.28 543.976 302.553 562.558C296.371 577.423 311.899 595.989 325.957 603.529L438.076 637.318L504.569 606.121Z" fill="#D4E3F3"/>
<path d="M504.659 636.19C533.78 622.533 567.753 565.801 581.099 539.142L506.274 609.012L438.32 640.811C447.301 645.031 475.538 649.847 504.659 636.19Z" fill="#D4E3F3"/>
<path d="M710.343 435.313C739.279 428.477 758.61 430.28 765.419 434.484C772.573 498.809 785.963 627.222 782.289 626.275C778.614 625.328 621.694 635.291 543.693 640.391C556.909 599.875 573.098 532.543 607.61 493.093C636.256 460.349 669.27 445.017 710.343 435.313Z" fill="#D4E3F3" stroke="#0080FF" stroke-width="4"/>
<path d="M727.392 464.199C756.327 457.362 775.659 459.165 782.467 463.369C789.622 527.694 803.012 656.107 799.337 655.16C795.663 654.213 642.759 666.402 564.758 671.502C577.974 630.986 590.146 561.428 624.659 521.978C653.305 489.234 686.319 473.902 727.392 464.199Z" fill="#F0F6FC" stroke="#0080FF" stroke-width="4"/>
<path d="M658.677 271.958C588.161 261.232 536.428 331.899 554.178 361.938C560.909 373.331 594.076 337.505 641.188 351.866C688.3 366.226 710.179 351.737 715.23 342.698C725.76 323.586 729.193 282.683 658.677 271.958Z" fill="#F0F6FC" stroke="#0080FF" stroke-width="4"/>
<path d="M662.346 324.631C596.213 302.081 540.773 351.534 557.21 362.74C563.444 366.991 597.364 336.819 641.736 350.58C674.633 360.781 699.057 356.307 710.191 346.965C710.886 345.984 715.393 343.17 719.429 327.615C717.321 321.551 695.302 335.868 662.346 324.631Z" fill="#D4E3F3"/>
<ellipse cx="87.8007" cy="520.916" rx="79.0658" ry="28.6273" transform="rotate(2.8662 87.8007 520.916)" fill="#F0F6FC"/>
<rect x="0.468078" y="0.698146" width="55.2651" height="102.635" rx="3.07029" transform="matrix(0.928722 0.601347 0.138457 0.990368 87.7707 390.044)" fill="#D4E3F3" stroke="#0080FF" stroke-width="0.877225"/>
<rect width="48.2474" height="14.0356" rx="3.5089" transform="matrix(0.928722 0.601347 0.138457 0.990368 92.879 399.904)" fill="#0080FF"/>
<rect width="48.2474" height="14.0356" rx="3.5089" transform="matrix(0.928722 0.601347 0.138457 0.990368 92.3074 401.117)" fill="#F0F6FC"/>
<rect width="8.77225" height="8.77225" rx="4.38612" transform="matrix(0.928722 0.601347 0.138457 0.990368 95.9308 405.834)" fill="#0080FF"/>
<rect width="27.194" height="8.77225" rx="4.38612" transform="matrix(0.928722 0.601347 0.138457 0.990368 108.966 414.274)" fill="#0080FF"/>
<path d="M139.538 423.571L142.56 422.083C143.325 421.706 144.055 422.179 144.189 423.138L157.963 521.663C158.03 522.143 157.774 522.685 157.391 522.873L154.37 524.36C153.987 524.549 153.622 524.313 153.555 523.833L139.538 423.571Z" fill="#0080FF"/>
<path d="M140.149 423.598L139.854 426.34L137.894 423.051L140.149 423.598Z" fill="#0080FF"/>
<rect width="2.02586" height="10.5318" rx="0.70178" transform="matrix(0.790265 -0.389021 0.138457 0.990368 143.946 448.974)" fill="#F0F6FC"/>
<path d="M145.693 461.464C145.639 461.08 145.844 460.647 146.15 460.496L146.642 460.254C146.948 460.103 147.24 460.292 147.294 460.676L148.127 466.634L146.526 467.422L145.693 461.464Z" fill="#F0F6FC"/>
<path d="M149.002 472.892C149.055 473.276 148.851 473.709 148.544 473.86L148.052 474.102C147.746 474.253 147.454 474.064 147.401 473.68L146.568 467.722L148.169 466.934L149.002 472.892Z" fill="#F0F6FC"/>
<path d="M89.6955 392.097C89.2455 391.806 89.1912 391.417 89.574 391.228L92.5746 389.751C92.9575 389.563 93.6326 389.646 94.0826 389.937L143.267 421.784C144.167 422.367 144.276 423.145 143.51 423.522L141.203 424.658C140.82 424.846 140.145 424.763 139.695 424.471L89.6955 392.097Z" fill="#0080FF"/>
<path d="M87.918 493.163C97.1953 493.439 105.51 496.489 111.454 501.138C117.4 505.788 120.905 511.97 120.817 518.561C120.729 525.152 117.063 531.12 110.998 535.414C104.934 539.707 96.5446 542.261 87.2673 541.985C77.9901 541.709 69.6754 538.66 63.731 534.01C57.785 529.36 54.2804 523.178 54.3682 516.587C54.4561 509.996 58.1227 504.028 64.1879 499.734C70.2514 495.441 78.6408 492.888 87.918 493.163Z" fill="#D4E3F3" stroke="#0080FF" stroke-width="2.3617"/>
<mask id="path-36-inside-1_8864_19289" fill="white">
<path d="M54.0312 451.358L122.764 453.4L121.884 519.399L53.1515 517.358L54.0312 451.358Z"/>
</mask>
<path d="M54.0312 451.358L122.764 453.4L121.884 519.399L53.1515 517.358L54.0312 451.358Z" fill="#D4E3F3"/>
<path d="M54.0312 451.358L54.0627 448.997L51.7783 448.929L51.7469 451.29L54.0312 451.358ZM122.764 453.4L125.048 453.467L125.08 451.106L122.795 451.038L122.764 453.4ZM54.0312 451.358L53.9997 453.72L122.732 455.761L122.764 453.4L122.795 451.038L54.0627 448.997L54.0312 451.358ZM122.764 453.4L120.48 453.332L119.6 519.331L121.884 519.399L124.169 519.467L125.048 453.467L122.764 453.4ZM53.1515 517.358L55.4359 517.425L56.3155 451.426L54.0312 451.358L51.7469 451.29L50.8672 517.29L53.1515 517.358Z" fill="#0080FF" mask="url(#path-36-inside-1_8864_19289)"/>
<path d="M89.1659 431.939C98.4332 432.491 106.663 435.464 112.477 439.763C118.304 444.07 121.573 449.592 121.328 455.274C121.083 460.956 117.354 466.06 111.186 469.653C105.032 473.237 96.5876 475.217 87.3203 474.665C78.0531 474.112 69.8236 471.139 64.0099 466.841C58.183 462.533 54.9137 457.012 55.1591 451.33C55.4045 445.648 59.1329 440.543 65.301 436.951C71.4553 433.366 79.8987 431.386 89.1659 431.939Z" fill="#D4E3F3" stroke="#0080FF" stroke-width="2.3617"/>
<ellipse cx="31.8984" cy="16.1185" rx="31.8984" ry="16.1185" transform="matrix(0.965956 0.0575749 -0.0431564 0.999068 58.0622 440.764)" fill="#0080FF"/>
<path d="M108.355 480.538C108.415 478.583 109.767 477.902 111.374 479.017L123.962 487.755C125.569 488.87 126.823 491.36 126.763 493.315L126.663 496.571C126.603 498.526 125.251 499.207 123.644 498.092L111.056 489.355C109.448 488.239 108.194 485.75 108.254 483.794L108.355 480.538Z" fill="#F0F6FC"/>
<path d="M107.188 518.442C107.248 516.486 108.6 515.805 110.207 516.921L122.795 525.658C124.402 526.773 125.656 529.263 125.596 531.219L125.496 534.474C125.436 536.43 124.084 537.111 122.477 535.995L109.889 527.258C108.281 526.143 107.027 523.653 107.087 521.697L107.188 518.442Z" fill="#F0F6FC"/>
<path d="M119.88 531.554C118.273 530.438 117.019 527.948 117.079 525.993L118.161 490.864C118.221 488.908 119.573 488.227 121.18 489.343L123.856 491.2C125.463 492.316 126.717 494.805 126.657 496.761L125.575 531.89C125.515 533.845 124.163 534.526 122.556 533.411L119.88 531.554Z" fill="#F0F6FC"/>
<path d="M105.793 480.325C105.853 478.369 107.205 477.688 108.812 478.804L121.4 487.541C123.008 488.657 124.262 491.146 124.202 493.102L124.101 496.357C124.041 498.313 122.689 498.994 121.082 497.878L108.494 489.141C106.887 488.026 105.633 485.536 105.693 483.58L105.793 480.325Z" fill="#0080FF"/>
<path d="M104.626 518.228C104.686 516.273 106.038 515.592 107.645 516.707L120.233 525.444C121.841 526.56 123.095 529.05 123.035 531.005L122.934 534.261C122.874 536.216 121.522 536.897 119.915 535.782L107.327 527.045C105.72 525.929 104.466 523.439 104.526 521.484L104.626 518.228Z" fill="#0080FF"/>
<path d="M117.319 531.34C115.712 530.225 114.457 527.735 114.518 525.779L115.599 490.65C115.659 488.695 117.011 488.014 118.618 489.129L121.294 490.987C122.901 492.102 124.156 494.592 124.095 496.547L123.014 531.676C122.954 533.632 121.602 534.313 119.995 533.197L117.319 531.34Z" fill="#0080FF"/>
<rect width="8.17922" height="40.8961" rx="4.08961" transform="matrix(0.941731 0.336367 -0.028893 0.999582 63.4934 477.47)" fill="#F0F6FC"/>
<path d="M94.8751 433.404L108.36 438.081L117.113 445.951C116.847 447.464 120.358 449.653 120.106 454.671C119.855 459.689 122.614 457.855 117.51 460.839L95.5585 442.581L94.8751 433.404Z" fill="#0080FF" fill-opacity="0.1"/>
</g>
<defs>
<clipPath id="clip0_8864_19289">
<rect width="720" height="560" fill="white"/>
</clipPath>
</defs>
</svg>
