<svg width="26" height="26" viewBox="0 0 26 26" fill="none" xmlns="http://www.w3.org/2000/svg">
<path d="M13 0C10.4288 0 7.91543 0.762437 5.77759 2.1909C3.63975 3.61935 1.97351 5.64968 0.989572 8.02512C0.0056327 10.4006 -0.251811 13.0144 0.249797 15.5362C0.751405 18.0579 1.98953 20.3743 3.80762 22.1924C5.6257 24.0105 7.94208 25.2486 10.4638 25.7502C12.9856 26.2518 15.5995 25.9944 17.9749 25.0104C20.3503 24.0265 22.3807 22.3603 23.8091 20.2224C25.2376 18.0846 26 15.5712 26 13C25.9934 9.55422 24.6216 6.25145 22.1851 3.81491C19.7486 1.37837 16.4458 0.00660747 13 0V0ZM17.7125 16.2875C17.9003 16.4771 18.0056 16.7332 18.0056 17C18.0056 17.2668 17.9003 17.5229 17.7125 17.7125C17.5214 17.8973 17.2659 18.0006 17 18.0006C16.7341 18.0006 16.4786 17.8973 16.2875 17.7125L13 14.4125L9.71251 17.7125C9.52137 17.8973 9.26589 18.0006 9.00001 18.0006C8.73412 18.0006 8.47865 17.8973 8.28751 17.7125C8.09972 17.5229 7.99438 17.2668 7.99438 17C7.99438 16.7332 8.09972 16.4771 8.28751 16.2875L11.5875 13L8.28751 9.7125C8.12804 9.5182 8.04655 9.27154 8.05888 9.02049C8.07121 8.76944 8.17648 8.53195 8.35422 8.35421C8.53195 8.17648 8.76944 8.07121 9.02049 8.05888C9.27155 8.04655 9.51821 8.12804 9.71251 8.2875L13 11.5875L16.2875 8.2875C16.4818 8.12804 16.7285 8.04655 16.9795 8.05888C17.2306 8.07121 17.4681 8.17648 17.6458 8.35421C17.8235 8.53195 17.9288 8.76944 17.9411 9.02049C17.9535 9.27154 17.872 9.5182 17.7125 9.7125L14.4125 13L17.7125 16.2875Z" fill="#E22D4C"/>
</svg>
