<svg width="250" height="140" viewBox="0 0 250 140" fill="none" xmlns="http://www.w3.org/2000/svg">
<g clip-path="url(#clip0_11401_728)">
<path d="M179.659 1.39453H179.659C141.962 1.39453 111.402 31.9543 111.402 69.6517V69.6518C111.402 107.349 141.962 137.909 179.659 137.909H179.659C217.357 137.909 247.916 107.349 247.916 69.6518V69.6517C247.916 31.9543 217.357 1.39453 179.659 1.39453Z" stroke="url(#paint0_linear_11401_728)" stroke-width="2.80365"/>
<path d="M117.505 69.6597C117.505 35.3331 145.333 7.50586 179.659 7.50586C213.986 7.50586 241.813 35.3331 241.813 69.6597C241.813 103.986 213.986 131.814 179.659 131.814C145.333 131.814 117.505 103.986 117.505 69.6597Z" fill="#007CF5"/>
<path d="M206.358 35.1367H154.037C152.303 35.1367 150.639 35.8368 149.413 37.0829C148.186 38.329 147.497 40.019 147.497 41.7813V60.3859C147.497 78.4224 156.104 89.3626 163.324 95.366C171.077 101.808 178.837 104.004 179.164 104.1C179.841 104.286 180.554 104.286 181.231 104.1C181.558 104.007 189.318 101.808 197.071 95.366C204.292 89.3626 212.898 78.4224 212.898 60.3859V41.7813C212.898 40.019 212.209 38.329 210.983 37.0829C209.756 35.8368 208.093 35.1367 206.358 35.1367ZM155.345 43.1102H205.05V60.3859C205.101 65.0987 204.326 69.7831 202.761 74.2195L182.451 59.778C181.791 59.3092 181.006 59.0577 180.201 59.0577C179.396 59.0577 178.611 59.3092 177.951 59.778L157.634 74.2195C156.069 69.7831 155.294 65.0987 155.345 60.3859V43.1102ZM192.326 89.0076C188.707 92.0414 184.606 94.4264 180.198 96.0602C175.789 94.4271 171.688 92.0421 168.069 89.0076C165.444 86.813 163.141 84.249 161.231 81.3927L180.198 67.9109L199.164 81.3927C197.254 84.249 194.951 86.813 192.326 89.0076Z" fill="#086CD9"/>
<path d="M164.018 48.4987C164.018 51.214 161.838 53.1167 158.271 53.1167C154.683 53.1167 152.444 51.1943 152.226 48.1817H155.278C155.357 49.7474 156.368 50.7582 158.211 50.7582C159.737 50.7582 160.827 50.0844 160.827 48.9348C160.827 48.0429 160.134 47.5078 158.925 47.2699L156.586 46.8141C154.426 46.3979 152.761 45.2285 152.761 42.87C152.761 40.3331 155 38.5096 158.072 38.5096C161.263 38.5096 163.602 40.3727 163.8 43.3457H160.748C160.649 41.8591 159.618 40.8483 158.112 40.8483C156.645 40.8483 155.813 41.6808 155.813 42.6718C155.813 43.6429 156.705 44.0592 157.735 44.2573L160.173 44.7528C162.671 45.2483 164.018 46.3979 164.018 48.4987ZM171.468 53.2158C167.366 53.2158 164.195 50.0447 164.195 45.7835C164.195 41.5222 167.366 38.3907 171.468 38.3907C175.591 38.3907 178.782 41.5222 178.782 45.7835C178.782 50.0447 175.591 53.2158 171.468 53.2158ZM171.468 50.5204C174.084 50.5204 175.67 48.3997 175.67 45.7835C175.67 43.1673 174.084 41.0862 171.468 41.0862C168.872 41.0862 167.286 43.1673 167.286 45.7835C167.286 48.3997 168.872 50.5204 171.468 50.5204ZM186.336 53.2158C182.333 53.2158 179.201 49.9654 179.201 45.7835C179.201 41.6214 182.333 38.3907 186.336 38.3907C190.083 38.3907 193.015 40.888 193.511 44.5348H190.32C189.983 42.4934 188.397 41.0862 186.376 41.0862C183.938 41.0862 182.293 43.0087 182.293 45.7835C182.293 48.5781 183.938 50.5204 186.376 50.5204C188.397 50.5204 189.963 49.0933 190.32 47.0519H193.511C193.015 50.7384 190.083 53.2158 186.336 53.2158ZM206.945 50.4609V52.9186H197.59V51.3528L201.653 47.1907C203.199 45.6051 203.852 44.7727 203.852 43.6033C203.852 42.5132 203.119 41.7799 201.95 41.7799C200.662 41.7799 199.869 42.5925 199.869 43.9006H197.193C197.193 41.225 199.215 39.3223 202.089 39.3223C204.764 39.3223 206.727 41.0069 206.727 43.2664C206.727 44.8916 206.132 45.9222 203.793 48.2807L201.772 50.4609H206.945Z" fill="white"/>
<path d="M164.547 65.5543V57.2852H165.666V65.5543H164.547ZM161.714 58.2337V57.2852H168.499V58.2337H161.714ZM169.297 68.3756C169.175 68.3756 169.053 68.3634 168.932 68.3391C168.818 68.3148 168.729 68.2945 168.664 68.2783V67.4514H168.993C169.187 67.4514 169.353 67.4352 169.491 67.4028C169.629 67.3704 169.755 67.3014 169.868 67.196C169.982 67.0906 170.099 66.9285 170.221 66.7096C170.342 66.4988 170.48 66.211 170.634 65.8462L170.853 65.3476L168.214 59.0971H169.369L171.121 63.3655L171.485 64.4477H171.34L171.704 63.3655L173.407 59.0971H174.501L171.485 66.4056C171.323 66.7947 171.169 67.115 171.023 67.3662C170.877 67.6257 170.723 67.8284 170.561 67.9743C170.407 68.1202 170.229 68.2215 170.026 68.2783C169.823 68.3431 169.58 68.3756 169.297 68.3756ZM178.312 58.939C178.887 58.939 179.378 59.0728 179.783 59.3403C180.197 59.6079 180.513 59.9929 180.732 60.4956C180.951 60.9982 181.06 61.6022 181.06 62.3075C181.06 63.4019 180.813 64.241 180.318 64.8247C179.824 65.4084 179.155 65.7003 178.312 65.7003C177.566 65.7003 176.97 65.4124 176.524 64.8369C176.086 64.2532 175.867 63.41 175.867 62.3075C175.867 61.6265 175.965 61.0347 176.159 60.5321C176.362 60.0294 176.646 59.6403 177.011 59.3647C177.383 59.0809 177.817 58.939 178.312 58.939ZM178.239 59.8633C177.671 59.8633 177.237 60.074 176.938 60.4956C176.646 60.909 176.5 61.513 176.5 62.3075C176.5 63.0939 176.65 63.7019 176.95 64.1316C177.258 64.5613 177.687 64.7761 178.239 64.7761C178.798 64.7761 179.224 64.5653 179.516 64.1437C179.816 63.714 179.966 63.1019 179.966 62.3075C179.966 61.5292 179.816 60.9293 179.516 60.5078C179.216 60.0781 178.79 59.8633 178.239 59.8633ZM176.5 68.2297H175.43V59.0971H176.5V68.2297ZM187.495 61.7116L186.887 62.2832C186.887 61.513 186.724 60.9171 186.4 60.4956C186.084 60.074 185.634 59.8633 185.051 59.8633C184.45 59.8633 183.992 60.0781 183.676 60.5078C183.36 60.9293 183.202 61.5373 183.202 62.3318C183.202 63.1101 183.368 63.714 183.701 64.1437C184.033 64.5653 184.503 64.7761 185.111 64.7761C185.565 64.7761 185.946 64.6666 186.254 64.4477C186.571 64.2289 186.786 63.8965 186.899 63.4506H188.017C187.839 64.2046 187.491 64.7679 186.972 65.1409C186.461 65.5138 185.841 65.7003 185.111 65.7003C184.487 65.7003 183.948 65.5665 183.494 65.299C183.048 65.0314 182.703 64.6463 182.46 64.1437C182.225 63.633 182.108 63.029 182.108 62.3318C182.108 61.6022 182.225 60.9861 182.46 60.4834C182.703 59.9808 183.044 59.5998 183.482 59.3403C183.928 59.0728 184.45 58.939 185.051 58.939C185.658 58.939 186.177 59.0728 186.607 59.3403C187.045 59.6079 187.381 59.9889 187.616 60.4834C187.852 60.9698 187.969 61.5576 187.969 62.2467V62.5142H182.557V61.7116H187.495ZM195.271 65.5543H194.152V59.2309C194.112 59.2309 194.059 59.2309 193.994 59.2309C193.937 59.2309 193.864 59.2309 193.775 59.2309H192.656V58.3796H193.544C193.86 58.3796 194.071 58.3432 194.177 58.2702C194.282 58.1891 194.335 58.0594 194.335 57.881V57.7351H195.271V65.5543ZM192.656 65.5543V64.7031H196.767V65.5543H192.656Z" fill="white"/>
<path d="M152.45 90.7008V84.2688H153.32V90.7008H152.45ZM158.276 90.7008V84.2688H159.146V90.7008H158.276ZM156.101 90.7008H155.486L153.764 86.5766L152.932 84.2688H153.651L155.628 88.9891L155.883 89.7641H155.751L156.015 88.9891L157.983 84.2688H158.654L157.822 86.5867L156.101 90.7008ZM162.591 90.8141C162.112 90.8141 161.699 90.7102 161.352 90.5024C161.012 90.2938 160.75 89.9943 160.567 89.6032C160.384 89.2063 160.293 88.7365 160.293 88.1945C160.293 87.6266 160.384 87.1474 160.567 86.7563C160.756 86.3659 161.024 86.0693 161.371 85.8672C161.718 85.6594 162.125 85.5555 162.591 85.5555C163.071 85.5555 163.48 85.6623 163.821 85.8773C164.168 86.0852 164.433 86.3875 164.615 86.7852C164.798 87.1756 164.89 87.6454 164.89 88.1945C164.89 88.7553 164.795 89.2316 164.606 89.6227C164.423 90.0131 164.158 90.3097 163.811 90.5118C163.471 90.7131 163.064 90.8141 162.591 90.8141ZM162.591 90.0954C163.058 90.0954 163.414 89.9316 163.66 89.6032C163.912 89.2756 164.038 88.8058 164.038 88.1945C164.038 87.5826 163.912 87.1099 163.66 86.7758C163.414 86.4417 163.058 86.2742 162.591 86.2742C162.125 86.2742 161.765 86.4417 161.513 86.7758C161.267 87.1034 161.144 87.5761 161.144 88.1945C161.144 88.7993 161.27 89.2691 161.523 89.6032C161.775 89.9316 162.131 90.0954 162.591 90.0954ZM165.961 90.7008V85.6781H166.793V90.7008H165.961ZM166.793 87.7305H166.396C166.428 87.2513 166.525 86.8508 166.689 86.5297C166.86 86.2078 167.086 85.9654 167.37 85.8016C167.654 85.6377 167.979 85.5555 168.344 85.5555C168.704 85.5555 169.01 85.6247 169.262 85.7633C169.514 85.8961 169.706 86.0945 169.839 86.3594C169.978 86.6242 170.047 86.9519 170.047 87.343V90.7008H169.215V87.5133C169.215 87.2607 169.174 87.0435 169.092 86.8609C169.016 86.6711 168.896 86.5268 168.732 86.4258C168.575 86.3183 168.37 86.2649 168.117 86.2649C167.909 86.2649 167.723 86.3089 167.559 86.3969C167.396 86.4792 167.257 86.5896 167.143 86.7282C167.03 86.8667 166.942 87.0247 166.878 87.2008C166.822 87.3711 166.793 87.5479 166.793 87.7305ZM171.374 90.7008V85.6781H172.206V90.7008H171.374ZM171.374 85.007V83.8906H172.206V85.007H171.374ZM173.639 89.2539V84.5242H174.471V89.2539C174.471 89.5563 174.531 89.78 174.651 89.9251C174.777 90.0701 175.023 90.143 175.389 90.143H175.559V90.7384C175.515 90.7636 175.443 90.7824 175.342 90.7954C175.247 90.8076 175.14 90.8141 175.02 90.8141C174.553 90.8141 174.207 90.6878 173.98 90.436C173.753 90.1776 173.639 89.7829 173.639 89.2539ZM172.939 86.3406V85.6781H175.578V86.3406H172.939ZM178.413 90.8141C177.934 90.8141 177.521 90.7102 177.175 90.5024C176.834 90.2938 176.572 89.9943 176.389 89.6032C176.207 89.2063 176.115 88.7365 176.115 88.1945C176.115 87.6266 176.207 87.1474 176.389 86.7563C176.579 86.3659 176.847 86.0693 177.193 85.8672C177.54 85.6594 177.947 85.5555 178.413 85.5555C178.893 85.5555 179.303 85.6623 179.643 85.8773C179.99 86.0852 180.255 86.3875 180.438 86.7852C180.62 87.1756 180.712 87.6454 180.712 88.1945C180.712 88.7553 180.617 89.2316 180.428 89.6227C180.245 90.0131 179.98 90.3097 179.634 90.5118C179.293 90.7131 178.886 90.8141 178.413 90.8141ZM178.413 90.0954C178.88 90.0954 179.236 89.9316 179.482 89.6032C179.734 89.2756 179.861 88.8058 179.861 88.1945C179.861 87.5826 179.734 87.1099 179.482 86.7758C179.236 86.4417 178.88 86.2742 178.413 86.2742C177.947 86.2742 177.588 86.4417 177.335 86.7758C177.089 87.1034 176.966 87.5761 176.966 88.1945C176.966 88.7993 177.093 89.2691 177.345 89.6032C177.597 89.9316 177.953 90.0954 178.413 90.0954ZM181.783 90.7008V85.6781H182.615V90.7008H181.783ZM182.615 87.8914H182.237C182.275 87.3495 182.379 86.9078 182.549 86.5672C182.726 86.2208 182.947 85.9654 183.211 85.8016C183.483 85.6377 183.779 85.5555 184.1 85.5555C184.201 85.5555 184.292 85.5677 184.375 85.593C184.463 85.6125 184.529 85.6406 184.573 85.6781V86.4258C184.504 86.4005 184.425 86.3846 184.337 86.3781C184.248 86.3659 184.154 86.3594 184.053 86.3594C183.801 86.3594 183.583 86.3969 183.4 86.4727C183.224 86.542 183.076 86.6466 182.956 86.7852C182.843 86.9237 182.757 87.0875 182.7 87.2766C182.644 87.4599 182.615 87.6649 182.615 87.8914ZM189.153 87.7118L188.681 88.1563C188.681 87.5573 188.554 87.094 188.303 86.7664C188.057 86.438 187.707 86.2742 187.253 86.2742C186.786 86.2742 186.43 86.4417 186.184 86.7758C185.938 87.1034 185.815 87.5761 185.815 88.1945C185.815 88.7993 185.944 89.2691 186.203 89.6032C186.461 89.9316 186.827 90.0954 187.3 90.0954C187.653 90.0954 187.949 90.0102 188.189 89.8399C188.435 89.6696 188.602 89.4112 188.69 89.0641H189.56C189.422 89.6508 189.151 90.0889 188.747 90.379C188.35 90.6691 187.867 90.8141 187.3 90.8141C186.815 90.8141 186.395 90.7102 186.042 90.5024C185.695 90.2938 185.427 89.9943 185.238 89.6032C185.055 89.2063 184.964 88.7365 184.964 88.1945C184.964 87.6266 185.055 87.1474 185.238 86.7563C185.427 86.3659 185.692 86.0693 186.032 85.8672C186.379 85.6594 186.786 85.5555 187.253 85.5555C187.725 85.5555 188.129 85.6594 188.464 85.8672C188.803 86.0758 189.065 86.3717 189.248 86.7563C189.431 87.1352 189.523 87.592 189.523 88.1282V88.336H185.314V87.7118H189.153ZM192.514 90.8141C192.073 90.8141 191.691 90.7102 191.37 90.5024C191.048 90.2938 190.802 89.9943 190.631 89.6032C190.462 89.2063 190.377 88.7365 190.377 88.1945C190.377 87.343 190.569 86.6906 190.953 86.2367C191.338 85.7821 191.858 85.5555 192.514 85.5555C193.094 85.5555 193.554 85.7821 193.895 86.2367C194.242 86.6841 194.415 87.3365 194.415 88.1945C194.415 88.7242 194.336 89.1875 194.178 89.5844C194.027 89.9756 193.81 90.2779 193.526 90.4923C193.242 90.7073 192.905 90.8141 192.514 90.8141ZM192.57 90.0954C193.012 90.0954 193.346 89.9344 193.574 89.6133C193.807 89.285 193.923 88.8123 193.923 88.1945C193.923 87.5826 193.803 87.1099 193.563 86.7758C193.33 86.4417 192.999 86.2742 192.57 86.2742C192.135 86.2742 191.801 86.4417 191.568 86.7758C191.341 87.1034 191.227 87.5761 191.227 88.1945C191.227 88.7993 191.344 89.2691 191.577 89.6032C191.817 89.9316 192.148 90.0954 192.57 90.0954ZM193.923 90.7008V83.8906H194.756V90.7008H193.923ZM200.216 85.5555C200.664 85.5555 201.046 85.6594 201.361 85.8672C201.682 86.0758 201.928 86.3753 202.098 86.7664C202.269 87.1568 202.354 87.6266 202.354 88.1751C202.354 89.0266 202.162 89.679 201.777 90.1329C201.393 90.5875 200.872 90.8141 200.216 90.8141C199.636 90.8141 199.173 90.5904 198.826 90.143C198.486 89.6884 198.316 89.0331 198.316 88.1751C198.316 87.6454 198.391 87.1857 198.542 86.7945C198.7 86.4034 198.92 86.101 199.205 85.8867C199.495 85.6659 199.832 85.5555 200.216 85.5555ZM200.159 86.2742C199.718 86.2742 199.381 86.438 199.148 86.7664C198.92 87.0875 198.807 87.5573 198.807 88.1751C198.807 88.787 198.924 89.2597 199.157 89.5938C199.397 89.9279 199.731 90.0954 200.159 90.0954C200.594 90.0954 200.926 89.9316 201.153 89.6032C201.386 89.2691 201.502 88.7935 201.502 88.1751C201.502 87.5703 201.386 87.1034 201.153 86.7758C200.919 86.4417 200.589 86.2742 200.159 86.2742ZM198.807 90.7008H197.975V83.8906H198.807V90.7008ZM203.513 92.8946C203.418 92.8946 203.324 92.8853 203.229 92.8665C203.14 92.8477 203.071 92.8319 203.021 92.8196V92.1759H203.276C203.428 92.1759 203.557 92.1636 203.664 92.1384C203.771 92.1131 203.869 92.0597 203.957 91.9774C204.045 91.8959 204.137 91.7696 204.232 91.5993C204.326 91.4355 204.434 91.2118 204.553 90.9274L204.723 90.5399L202.671 85.6781H203.57L204.932 88.9985L205.215 89.8399H205.102L205.386 88.9985L206.71 85.6781H207.561L205.215 91.3626C205.089 91.6657 204.969 91.9146 204.856 92.1102C204.743 92.3116 204.623 92.4696 204.496 92.5829C204.377 92.6962 204.238 92.7748 204.08 92.8196C203.923 92.8701 203.734 92.8946 203.513 92.8946Z" fill="white"/>
<mask id="mask0_11401_728" style="mask-type:luminance" maskUnits="userSpaceOnUse" x="153" y="96" width="54" height="12">
<path d="M153.312 96.3047H206.008V107.265H153.312V96.3047Z" fill="white"/>
</mask>
<g mask="url(#mask0_11401_728)">
<path d="M164.392 97.3415C164.392 96.7692 163.983 96.3752 163.411 96.3752C161.975 96.3752 160.54 96.3752 159.105 96.3752C157.67 96.3752 156.31 96.4048 154.912 96.3601C154.049 96.3377 153.7 96.8659 153.7 97.5869C153.715 98.9926 153.7 100.398 153.7 101.811V105.848C153.7 106.51 154.094 106.97 154.666 106.97H163.425C163.976 106.97 164.385 106.562 164.385 106.011C164.385 103.127 164.385 100.234 164.385 97.3494L164.392 97.3415ZM155.001 100.405C155.269 99.907 155.573 99.4314 155.893 98.963C156.124 98.621 156.57 98.5467 156.912 98.7545C157.269 98.963 157.403 99.409 157.194 99.7807C156.919 100.264 156.622 100.725 156.324 101.194C156.183 101.417 155.96 101.521 155.7 101.521C155.112 101.521 154.726 100.926 155.001 100.405ZM156.51 105.498C155.886 105.498 155.529 104.874 155.849 104.316C156.302 103.543 156.785 102.777 157.254 102.011C158.064 100.688 158.875 99.3643 159.685 98.0408C159.879 97.7283 160.109 97.4829 160.503 97.5053C161.113 97.5428 161.425 98.1743 161.083 98.7393C160.369 99.9366 159.633 101.119 158.905 102.301C158.354 103.209 157.797 104.108 157.246 105.016C157.075 105.298 156.86 105.491 156.51 105.498ZM163.024 101.194C162.622 101.885 162.191 102.561 161.775 103.245C161.314 103.989 160.86 104.74 160.399 105.476C160.094 105.967 159.663 106.101 159.254 105.84C158.86 105.595 158.786 105.142 159.068 104.673C159.931 103.268 160.793 101.863 161.656 100.45C161.827 100.167 162.05 99.9741 162.399 99.9813C163.016 99.9813 163.358 100.621 163.031 101.186L163.024 101.194Z" fill="white"/>
<path d="M189.365 99.1621H191.67C192.213 101.028 192.756 102.88 193.298 104.739H193.388C193.931 102.88 194.473 101.028 195.009 99.1693H197.321C196.399 101.802 195.484 104.397 194.585 106.984H192.094C191.187 104.389 190.28 101.802 189.357 99.1621H189.365Z" fill="white"/>
<path d="M186.793 96.4961H188.891V106.966H186.793V96.4961Z" fill="white"/>
<path d="M177.825 100.489C177.602 99.2403 177.052 98.1621 175.988 97.3885C175.2 96.8235 174.308 96.5261 173.364 96.4966C171.936 96.4446 170.501 96.4814 169.036 96.4814V106.966C169.118 106.981 169.177 106.996 169.237 106.996C170.717 106.973 172.204 107.025 173.683 106.906C175.579 106.758 176.888 105.732 177.565 103.947C177.989 102.824 178.041 101.657 177.832 100.489H177.825ZM175.55 102.988C175.26 104.192 174.457 104.906 173.215 104.995C172.575 105.04 171.936 105.003 171.259 105.003V98.3332C172.449 98.3851 173.706 98.0358 174.702 98.9357C175.081 99.2771 175.364 99.7981 175.52 100.289C175.802 101.166 175.765 102.081 175.55 102.988Z" fill="white"/>
<path d="M202.017 103.584H204.716C204.776 102.514 204.672 101.547 204.159 100.662C203.549 99.6212 202.582 99.1226 201.415 99.0186C200.024 98.8996 198.797 99.2864 197.957 100.454C197.146 101.577 197.013 102.863 197.273 104.194C197.422 104.96 197.742 105.674 198.336 106.187C199.786 107.436 202.032 107.51 203.601 106.41C204.107 106.068 204.53 105.458 204.656 104.729C203.972 104.692 203.333 104.655 202.701 104.618C202.106 105.577 201.169 105.636 200.433 105.399C199.697 105.161 199.295 104.484 199.362 103.592H202.009L202.017 103.584ZM201.154 100.617C202.017 100.655 202.709 101.406 202.619 102.231H199.378C199.378 101.287 200.166 100.573 201.154 100.617Z" fill="white"/>
<path d="M186.027 102.625C185.937 101.124 185.335 99.9631 183.9 99.3165C182.264 98.5804 180.153 99.1599 179.164 100.647C178.487 101.666 178.435 102.804 178.561 103.956C178.643 104.714 178.926 105.406 179.454 105.986C180.428 107.057 181.692 107.265 183.045 107.146C183.982 107.064 184.807 106.685 185.424 105.949C185.707 105.607 185.915 105.153 185.937 104.752C185.268 104.714 184.629 104.678 184.011 104.64C183.446 105.651 182.309 105.711 181.536 105.331C180.881 105.012 180.599 104.194 180.755 103.607H185.975C185.997 103.51 186.012 103.48 186.012 103.443C186.012 103.168 186.027 102.9 186.012 102.632L186.027 102.625ZM183.959 102.246H180.725C180.576 101.599 181.32 100.737 182.197 100.64C183.104 100.543 184.042 101.295 183.959 102.246Z" fill="white"/>
</g>
</g>
<g clip-path="url(#clip1_11401_728)">
<path d="M69.6595 137.909C31.9622 137.909 1.40234 107.349 1.40234 69.6517C1.40234 31.9543 31.9622 1.39453 69.6595 1.39453C107.357 1.39453 137.916 31.9543 137.916 69.6517C137.916 107.349 107.357 137.909 69.6595 137.909Z" fill="white" stroke="url(#paint1_linear_11401_728)" stroke-width="2.78363"/>
<path d="M69.6598 7.50586H69.6597C35.3331 7.50586 7.50586 35.3331 7.50586 69.6597V69.6598C7.50586 103.986 35.3331 131.814 69.6597 131.814H69.6598C103.986 131.814 131.814 103.986 131.814 69.6598V69.6597C131.814 35.3331 103.986 7.50586 69.6598 7.50586Z" fill="#007CF5"/>
<path d="M24.8176 43.6476H24.9692L25.0539 43.5219C28.24 38.7949 32.1489 34.5982 36.6258 31.1009C38.3399 32.3619 40.1519 33.5142 42.0496 34.5519C38.6752 38.3674 35.6966 42.4927 35.1933 43.1969L34.8711 43.6476H35.4252H37.502H37.6458L37.7313 43.5319C38.9539 41.8762 41.4573 38.5788 44.1137 35.6189C46.9477 37.0039 49.9477 38.1477 53.0717 39.0347C52.2614 40.7843 51.6461 42.3038 51.2765 43.2598L51.1267 43.6476H51.5423H53.3467H53.5397L53.6113 43.4684C54.006 42.4813 54.5764 41.1217 55.2852 39.614C59.3545 40.5955 63.608 41.1549 67.957 41.2594V43.3629V43.6479H68.2419H69.917H70.202V43.3629V41.271C74.518 41.2199 78.7461 40.7243 82.7996 39.8101C83.4657 41.2389 84.0041 42.5246 84.3815 43.4685L84.4537 43.6476H84.6463H86.4505H86.8669L86.7168 43.2598C86.3624 42.3451 85.7844 40.9155 85.0252 39.2607C88.207 38.4087 91.266 37.2939 94.1577 35.9302C96.7102 38.808 99.0822 41.9346 100.262 43.5319L100.348 43.6476H100.492H102.568H103.122L102.8 43.1969C102.312 42.5149 99.4928 38.6082 96.2411 34.8901C98.3685 33.7659 100.393 32.5003 102.295 31.1009C106.772 34.5982 110.681 38.7949 113.867 43.5219L113.952 43.6476H114.103H116.118H116.641L116.358 43.2082C106.4 27.7674 89.0996 17.5273 69.4603 17.5273C49.821 17.5273 32.5202 27.7674 22.5627 43.2082L22.2793 43.6476H22.8022H24.8176ZM67.957 39.0055C63.9616 38.9058 60.0531 38.4091 56.3064 37.5421C56.8801 36.4328 57.5109 35.3034 58.1868 34.2316C60.5893 30.4203 62.7673 27.516 63.6162 26.4143C65.0081 26.7321 66.4626 26.9402 67.957 27.023V39.0055ZM45.0315 31.4042C44.5614 31.8597 44.0884 32.3414 43.6172 32.8383C41.8348 31.8905 40.1287 30.8407 38.5132 29.6911C43.3458 26.2445 48.7674 23.5805 54.5959 21.8875C55.0266 22.293 55.4874 22.6783 55.9774 23.0411C53.5787 24.6057 48.4597 28.083 45.0315 31.4042ZM56.2894 33.0269C55.4745 34.3195 54.7296 35.6732 54.0696 36.9754C51.1628 36.1733 48.3679 35.1419 45.7215 33.8944C46.0129 33.5949 46.3032 33.304 46.5907 33.0253C50.3319 29.4004 56.4263 25.4205 58.0719 24.3697C59.073 24.9107 60.1501 25.3777 61.2873 25.763C60.2052 27.2031 58.3244 29.7983 56.2894 33.0269ZM81.7821 37.7274C78.0512 38.531 74.1665 38.9692 70.202 39.0176V27.0498C71.6743 27.0096 73.1165 26.8506 74.505 26.5804C75.4301 27.7901 77.5172 30.5987 79.807 34.2316C80.5199 35.3633 81.1831 36.5587 81.7821 37.7274ZM92.5585 34.1917C89.8545 35.4201 87.0004 36.4258 84.0351 37.195C83.3481 35.8258 82.5644 34.3921 81.7035 33.0269C79.7738 29.9647 77.9819 27.4719 76.8792 25.9942C78.0959 25.6276 79.2527 25.1711 80.3287 24.6313C82.4107 25.9774 87.9226 29.6538 91.4024 33.0254C91.7842 33.3955 92.171 33.7866 92.5585 34.1917ZM84.3252 21.8874C90.1532 23.5801 95.575 26.2445 100.409 29.6911C98.6059 30.9741 96.6914 32.1333 94.683 33.1642C94.1108 32.5514 93.5342 31.9588 92.9619 31.4045C89.7477 28.2905 85.0461 25.0387 82.4958 23.356C83.154 22.9032 83.7652 22.413 84.3252 21.8874ZM69.4609 19.7803C73.6563 19.7803 77.7387 20.2706 81.6587 21.1913C78.6047 23.4724 74.2005 24.8126 69.4609 24.8126C64.699 24.8126 60.3052 23.4765 57.2558 21.1929C61.1777 20.2713 65.2628 19.7803 69.4609 19.7803Z" fill="#086CD9"/>
<path d="M45.0315 31.4042L45.2163 31.595M45.0315 31.4042C44.5614 31.8597 44.0884 32.3414 43.6172 32.8383C41.8348 31.8905 40.1287 30.8407 38.5132 29.6911C43.3458 26.2445 48.7674 23.5805 54.5959 21.8875C55.0266 22.293 55.4874 22.6783 55.9774 23.0411C53.5787 24.6057 48.4597 28.083 45.0315 31.4042ZM24.8176 43.6476H24.9692L25.0539 43.5219C28.24 38.7949 32.1489 34.5982 36.6258 31.1009C38.3399 32.3619 40.1519 33.5142 42.0496 34.5519C38.6752 38.3674 35.6966 42.4927 35.1933 43.1969L34.8711 43.6476H35.4252H37.502H37.6458L37.7313 43.5319C38.9539 41.8762 41.4573 38.5788 44.1137 35.6189C46.9477 37.0039 49.9477 38.1477 53.0717 39.0347C52.2614 40.7843 51.6461 42.3038 51.2765 43.2598L51.1267 43.6476H51.5423H53.3467H53.5397L53.6113 43.4684C54.006 42.4813 54.5764 41.1217 55.2852 39.614C59.3545 40.5955 63.608 41.1549 67.957 41.2594V43.3629V43.6479H68.2419H69.917H70.202V43.3629V41.271C74.518 41.2199 78.7461 40.7243 82.7996 39.8101C83.4657 41.2389 84.0041 42.5246 84.3815 43.4685L84.4537 43.6476H84.6463H86.4505H86.8669L86.7167 43.2598C86.3624 42.3451 85.7844 40.9155 85.0252 39.2607C88.207 38.4087 91.266 37.2939 94.1577 35.9302C96.7101 38.808 99.0822 41.9346 100.262 43.5319L100.348 43.6476H100.492H102.568H103.122L102.8 43.1969C102.312 42.5149 99.4928 38.6082 96.2411 34.8901C98.3685 33.7659 100.393 32.5003 102.295 31.1009C106.772 34.5982 110.681 38.7949 113.867 43.5219L113.952 43.6476H114.103H116.118H116.641L116.358 43.2082C106.4 27.7674 89.0996 17.5273 69.4603 17.5273C49.821 17.5273 32.5202 27.7674 22.5627 43.2082L22.2793 43.6476H22.8022H24.8176ZM67.957 39.0055C63.9616 38.9058 60.0531 38.4091 56.3064 37.5421C56.8801 36.4328 57.5109 35.3034 58.1868 34.2316C60.5893 30.4203 62.7673 27.516 63.6162 26.4143C65.0081 26.7321 66.4626 26.9402 67.957 27.023V39.0055ZM56.2894 33.0269C55.4745 34.3196 54.7296 35.6732 54.0696 36.9754C51.1628 36.1733 48.3679 35.1419 45.7215 33.8944C46.0129 33.5949 46.3032 33.304 46.5907 33.0253C50.3319 29.4004 56.4263 25.4205 58.0719 24.3697C59.073 24.9107 60.1501 25.3777 61.2873 25.763C60.2052 27.2031 58.3244 29.7983 56.2894 33.0269ZM81.7821 37.7274C78.0512 38.531 74.1665 38.9692 70.202 39.0176V27.0498C71.6743 27.0096 73.1165 26.8506 74.505 26.5804C75.4301 27.7901 77.5172 30.5987 79.807 34.2316C80.5199 35.3633 81.1831 36.5587 81.7821 37.7274ZM92.5585 34.1917C89.8545 35.4201 87.0004 36.4258 84.0351 37.195C83.3481 35.8258 82.5644 34.3921 81.7035 33.0269C79.7738 29.9647 77.9819 27.4719 76.8792 25.9942C78.0959 25.6276 79.2527 25.1711 80.3287 24.6313C82.4107 25.9774 87.9226 29.6538 91.4024 33.0254C91.7842 33.3955 92.171 33.7866 92.5585 34.1917ZM84.3252 21.8874C90.1532 23.5801 95.575 26.2445 100.409 29.6911C98.6059 30.9741 96.6914 32.1333 94.683 33.1642C94.1108 32.5514 93.5342 31.9588 92.9619 31.4045C89.7477 28.2905 85.0461 25.0387 82.4958 23.356C83.154 22.9032 83.7652 22.413 84.3252 21.8874ZM69.4609 19.7803C73.6563 19.7803 77.7387 20.2706 81.6587 21.1913C78.6047 23.4724 74.2005 24.8126 69.4609 24.8126C64.699 24.8126 60.3052 23.4765 57.2558 21.1929C61.1777 20.2713 65.2628 19.7803 69.4609 19.7803Z" stroke="#086CD9" stroke-width="0.565908"/>
<path d="M114.108 96.2507H113.956L113.872 96.3763C110.755 101.001 106.945 105.118 102.589 108.57C100.602 107.083 98.4803 105.744 96.2453 104.561C99.0554 101.347 101.544 97.9928 102.48 96.7032L102.809 96.2507H102.249H100.164H100.02L99.9351 96.3655C98.6766 98.0534 96.4943 100.892 94.1612 103.522C91.2695 102.157 88.2112 101.042 85.0287 100.19C85.6739 98.7844 86.187 97.5432 86.5435 96.6404L86.6979 96.2507H86.2786H84.4687H84.2775L84.2053 96.4283C83.8438 97.3144 83.3689 98.4265 82.8017 99.6425C78.7511 98.7296 74.5229 98.2345 70.2039 98.1833V96.5358V96.2507H69.9189H68.2438H67.9588V96.5358V98.1949C63.6065 98.2988 59.3531 98.8573 55.2862 99.838C54.6787 98.5456 54.1728 97.3621 53.7919 96.4283L53.7196 96.2507H53.5281H51.7181H51.299L51.453 96.6404C51.8289 97.5915 52.3782 98.9179 53.0721 100.417C49.9475 101.304 46.9463 102.446 44.1124 103.832C41.677 101.118 39.3707 98.1205 38.062 96.3647L37.9765 96.2507H37.8335H35.7475H35.1882L35.5169 96.7032C36.4858 98.0368 39.1183 101.586 42.0512 104.901C40.0463 105.999 38.1354 107.223 36.3354 108.569C31.9792 105.118 28.1698 101.001 25.0532 96.3756L24.9685 96.25H24.8169H22.8051H22.2822L22.5656 96.6895C32.5234 112.131 49.8236 122.37 69.4627 122.37C89.1017 122.37 106.402 112.131 116.36 96.6895L116.643 96.25H116.12L114.108 96.2507ZM79.8076 105.222C77.5207 108.851 75.4373 111.657 74.5099 112.869C73.1251 112.601 71.6824 112.444 70.2033 112.404V100.436C74.1708 100.485 78.0554 100.922 81.7849 101.724C81.1859 102.894 80.522 104.089 79.8076 105.222ZM58.1883 105.222C57.5119 104.149 56.8805 103.019 56.3065 101.909C60.0512 101.043 63.9599 100.548 67.9585 100.449V112.429C66.4591 112.512 65.0029 112.717 63.6121 113.033C62.7597 111.926 60.5878 109.029 58.1883 105.222ZM56.291 106.427C58.3244 109.653 60.2038 112.247 61.2865 113.687C60.148 114.073 59.0716 114.54 58.071 115.082C56.4212 114.029 50.3317 110.052 46.5924 106.429C46.3046 106.15 46.014 105.859 45.7222 105.559C48.3681 104.31 51.1628 103.279 54.0703 102.477C54.7305 103.78 55.4761 105.134 56.291 106.427ZM45.0327 108.05C48.4604 111.37 53.5786 114.847 55.9776 116.412C55.3548 116.874 54.777 117.373 54.2497 117.905C48.4298 116.171 43.0204 113.469 38.2061 109.984C39.9125 108.747 41.7209 107.622 43.6163 106.614C44.0882 107.111 44.5621 107.594 45.0327 108.05ZM81.7055 106.427C82.5664 105.061 83.3502 103.627 84.0372 102.257C87.0031 103.026 89.858 104.032 92.562 105.26C92.1738 105.666 91.787 106.058 91.4045 106.429C87.9348 109.79 82.4402 113.458 80.3452 114.813C79.2685 114.271 78.1103 113.814 76.8892 113.447C77.9933 111.968 79.7802 109.48 81.7055 106.427ZM69.4624 120.118C65.1115 120.118 60.8807 119.592 56.8281 118.605C59.8758 116.139 64.5143 114.641 69.4624 114.641C74.4046 114.641 79.047 116.139 82.0952 118.605C78.0431 119.592 73.8128 120.118 69.4624 120.118ZM100.719 109.984C95.904 113.469 90.4945 116.172 84.6737 117.905C84.0249 117.249 83.3004 116.642 82.5073 116.091C85.0597 114.407 89.7534 111.159 92.9633 108.049C93.5362 107.495 94.1128 106.902 94.6858 106.289C96.8082 107.379 98.8259 108.612 100.719 109.984Z" fill="#086CD9"/>
<path d="M79.8076 105.222L80.0414 105.369M79.8076 105.222C77.5207 108.851 75.4373 111.657 74.5099 112.869C73.1251 112.601 71.6825 112.444 70.2033 112.404V100.436C74.1708 100.485 78.0554 100.922 81.7849 101.724C81.1859 102.894 80.522 104.089 79.8076 105.222ZM114.108 96.2507H113.956L113.872 96.3763C110.755 101.001 106.945 105.118 102.589 108.57C100.602 107.083 98.4803 105.744 96.2453 104.561C99.0554 101.347 101.544 97.9928 102.48 96.7032L102.809 96.2507H102.249H100.164H100.02L99.9351 96.3655C98.6766 98.0534 96.4943 100.892 94.1612 103.522C91.2695 102.157 88.2112 101.042 85.0287 100.19C85.6739 98.7844 86.187 97.5432 86.5435 96.6404L86.6979 96.2507H86.2786H84.4687H84.2775L84.2053 96.4283C83.8438 97.3144 83.3689 98.4265 82.8017 99.6425C78.7511 98.7296 74.5229 98.2345 70.2039 98.1833V96.5358V96.2507H69.9189H68.2438H67.9588V96.5358V98.1949C63.6065 98.2988 59.3531 98.8573 55.2862 99.838C54.6787 98.5456 54.1728 97.3621 53.7919 96.4283L53.7196 96.2507H53.5281H51.7181H51.299L51.453 96.6404C51.8289 97.5915 52.3782 98.9179 53.0721 100.417C49.9475 101.304 46.9463 102.446 44.1124 103.832C41.677 101.118 39.3707 98.1205 38.062 96.3647L37.9765 96.2507H37.8335H35.7475H35.1882L35.5169 96.7032C36.4858 98.0368 39.1183 101.586 42.0512 104.901C40.0463 105.999 38.1354 107.223 36.3354 108.569C31.9792 105.118 28.1698 101.001 25.0532 96.3756L24.9685 96.25H24.8169H22.8051H22.2822L22.5656 96.6895C32.5234 112.131 49.8236 122.37 69.4627 122.37C89.1017 122.37 106.402 112.131 116.36 96.6895L116.643 96.25H116.12L114.108 96.2507ZM58.1883 105.222C57.5119 104.149 56.8805 103.019 56.3065 101.909C60.0512 101.043 63.9599 100.548 67.9585 100.449V112.429C66.4591 112.512 65.0029 112.717 63.6121 113.033C62.7597 111.926 60.5878 109.029 58.1883 105.222ZM56.291 106.427C58.3244 109.653 60.2038 112.247 61.2865 113.687C60.148 114.073 59.0716 114.54 58.071 115.082C56.4212 114.029 50.3317 110.052 46.5924 106.429C46.3046 106.15 46.014 105.859 45.7222 105.559C48.3681 104.31 51.1628 103.279 54.0703 102.477C54.7305 103.78 55.4761 105.134 56.291 106.427ZM45.0327 108.05C48.4604 111.37 53.5786 114.847 55.9776 116.412C55.3548 116.874 54.777 117.373 54.2497 117.905C48.4298 116.171 43.0204 113.469 38.2061 109.984C39.9125 108.747 41.7209 107.622 43.6163 106.614C44.0882 107.111 44.5621 107.594 45.0327 108.05ZM81.7055 106.427C82.5664 105.061 83.3502 103.627 84.0372 102.257C87.0031 103.026 89.858 104.032 92.562 105.26C92.1738 105.666 91.787 106.058 91.4045 106.429C87.9348 109.79 82.4402 113.458 80.3452 114.813C79.2685 114.271 78.1103 113.814 76.8892 113.447C77.9933 111.968 79.7802 109.48 81.7055 106.427ZM69.4624 120.118C65.1115 120.118 60.8807 119.592 56.8281 118.605C59.8758 116.139 64.5143 114.641 69.4624 114.641C74.4046 114.641 79.047 116.139 82.0952 118.605C78.0431 119.592 73.8128 120.118 69.4624 120.118ZM100.719 109.984C95.904 113.469 90.4945 116.172 84.6737 117.905C84.0249 117.249 83.3004 116.642 82.5073 116.091C85.0597 114.407 89.7534 111.159 92.9633 108.049C93.5362 107.495 94.1128 106.902 94.6858 106.289C96.8082 107.379 98.8259 108.612 100.719 109.984Z" stroke="#086CD9" stroke-width="0.565908"/>
<path d="M31.9726 54.0929H28.96V39.8624H31.9726V54.0929ZM44.9775 49.6731C44.9775 52.3884 42.7973 54.2911 39.2298 54.2911C35.6424 54.2911 33.4027 52.3686 33.1847 49.356H36.237C36.3162 50.9217 37.3271 51.9325 39.1703 51.9325C40.6964 51.9325 41.7865 51.2587 41.7865 50.1092C41.7865 49.2173 41.0928 48.6821 39.8838 48.4443L37.5451 47.9884C35.3847 47.5722 33.7199 46.4028 33.7199 44.0443C33.7199 41.5074 35.9595 39.684 39.0315 39.684C42.2225 39.684 44.5612 41.547 44.7595 44.52H41.7072C41.6081 43.0335 40.5775 42.0227 39.0712 42.0227C37.6045 42.0227 36.7721 42.8551 36.7721 43.8461C36.7721 44.8173 37.664 45.2335 38.6946 45.4317L41.1325 45.9272C43.6297 46.4227 44.9775 47.5722 44.9775 49.6731ZM52.4274 54.3902C48.3248 54.3902 45.1536 51.2191 45.1536 46.9578C45.1536 42.6966 48.3248 39.5651 52.4274 39.5651C56.5499 39.5651 59.7409 42.6966 59.7409 46.9578C59.7409 51.2191 56.5499 54.3902 52.4274 54.3902ZM52.4274 51.6947C55.0436 51.6947 56.6292 49.574 56.6292 46.9578C56.6292 44.3416 55.0436 42.2606 52.4274 42.2606C49.8311 42.2606 48.2455 44.3416 48.2455 46.9578C48.2455 49.574 49.8311 51.6947 52.4274 51.6947ZM73.1483 51.6352V54.0929H63.7936V52.5271L67.8566 48.365C69.4026 46.7794 70.0566 45.947 70.0566 44.7776C70.0566 43.6876 69.3233 42.9542 68.154 42.9542C66.8657 42.9542 66.0729 43.7668 66.0729 45.0749H63.3972C63.3972 42.3993 65.4188 40.4966 68.2927 40.4966C70.9683 40.4966 72.9304 42.1813 72.9304 44.4407C72.9304 46.0659 72.3357 47.0966 69.9971 49.4551L67.9756 51.6352H73.1483ZM82.8004 42.3002L77.8455 54.0929H74.8925L79.7485 43.1525H73.3864V40.6948H82.8004V42.3002ZM83.1417 47.4137C83.1417 42.9741 85.0043 40.4966 88.3145 40.4966C91.624 40.4966 93.5067 42.9741 93.5067 47.4137C93.5067 51.8335 91.6636 54.2911 88.3145 54.2911C84.9646 54.2911 83.1417 51.8335 83.1417 47.4137ZM85.9756 47.4137C85.9756 50.2875 86.7687 51.8335 88.3145 51.8335C89.8408 51.8335 90.6728 50.2875 90.6728 47.4137C90.6728 44.52 89.8408 42.9542 88.3145 42.9542C86.8077 42.9542 85.9756 44.52 85.9756 47.4137ZM94.4896 47.4137C94.4896 42.9741 96.3529 40.4966 99.6631 40.4966C102.973 40.4966 104.855 42.9741 104.855 47.4137C104.855 51.8335 103.012 54.2911 99.6631 54.2911C96.3132 54.2911 94.4896 51.8335 94.4896 47.4137ZM97.3243 47.4137C97.3243 50.2875 98.1166 51.8335 99.6631 51.8335C101.189 51.8335 102.021 50.2875 102.021 47.4137C102.021 44.52 101.189 42.9542 99.6631 42.9542C98.1563 42.9542 97.3243 44.52 97.3243 47.4137ZM110.44 54.0929H107.686V43.0731H105.148V40.6948H110.44V54.0929Z" fill="white"/>
<path d="M42.4814 90.8635V84.4321H43.3516V90.8635H42.4814ZM48.3078 90.8635V84.4321H49.1778V90.8635H48.3078ZM46.1323 90.8635H45.5176L43.7961 86.7393L42.9639 84.4321H43.6827L45.6594 89.1517L45.9148 89.9268H45.7824L46.0472 89.1517L48.0145 84.4321H48.686L47.8538 86.7494L46.1323 90.8635ZM52.6231 90.9768C52.1439 90.9768 51.7309 90.8729 51.3841 90.665C51.0436 90.4565 50.7819 90.157 50.5991 89.7666C50.4162 89.369 50.3248 88.8992 50.3248 88.3572C50.3248 87.7893 50.4162 87.3101 50.5991 86.9197C50.7882 86.5285 51.0562 86.2319 51.403 86.0306C51.7498 85.822 52.1565 85.7181 52.6231 85.7181C53.1023 85.7181 53.5121 85.8257 53.8527 86.04C54.1994 86.2478 54.4643 86.5502 54.6472 86.9478C54.83 87.3389 54.9215 87.8087 54.9215 88.3572C54.9215 88.9179 54.8268 89.3942 54.6377 89.7853C54.4548 90.1758 54.19 90.4724 53.8432 90.6744C53.5027 90.8758 53.096 90.9768 52.6231 90.9768ZM52.6231 90.258C53.0897 90.258 53.446 90.0942 53.6919 89.7666C53.9441 89.4382 54.0702 88.9684 54.0702 88.3572C54.0702 87.7452 53.9441 87.2726 53.6919 86.9384C53.446 86.6043 53.0897 86.4369 52.6231 86.4369C52.1565 86.4369 51.7971 86.6043 51.5449 86.9384C51.2989 87.2661 51.176 87.7387 51.176 88.3572C51.176 88.9619 51.3021 89.4317 51.5543 89.7666C51.8065 90.0942 52.1628 90.258 52.6231 90.258ZM55.9927 90.8635V85.8408H56.825V90.8635H55.9927ZM56.825 87.8932H56.4278C56.4594 87.414 56.5571 87.0142 56.721 86.6924C56.8913 86.3705 57.1182 86.128 57.402 85.9642C57.6857 85.8004 58.0105 85.7181 58.3762 85.7181C58.7356 85.7181 59.0414 85.7874 59.2936 85.926C59.5459 86.0587 59.7382 86.2572 59.8706 86.522C60.0093 86.7869 60.0787 87.1145 60.0787 87.5057V90.8635H59.2464V87.676C59.2464 87.4241 59.2054 87.2062 59.1234 87.0236C59.0477 86.8345 58.9279 86.6895 58.764 86.5884C58.6063 86.4809 58.4014 86.4275 58.1492 86.4275C57.9411 86.4275 57.7551 86.4715 57.5911 86.5596C57.4272 86.6418 57.2885 86.7523 57.175 86.8908C57.0615 87.0294 56.9732 87.1874 56.9102 87.3642C56.8535 87.5338 56.825 87.7106 56.825 87.8932ZM61.4053 90.8635V85.8408H62.2376V90.8635H61.4053ZM61.4053 85.1697V84.0533H62.2376V85.1697H61.4053ZM63.6709 89.4166V84.6869H64.5032V89.4166C64.5032 89.719 64.5631 89.9427 64.683 90.0877C64.8091 90.2328 65.055 90.3057 65.4207 90.3057H65.591V90.901C65.5468 90.9263 65.4743 90.945 65.3734 90.958C65.2789 90.9703 65.1716 90.9768 65.0518 90.9768C64.5852 90.9768 64.2385 90.8505 64.0114 90.5986C63.7844 90.3403 63.6709 89.9463 63.6709 89.4166ZM62.971 86.5033V85.8408H65.6099V86.5033H62.971ZM68.4452 90.9768C67.9661 90.9768 67.553 90.8729 67.2062 90.665C66.8658 90.4565 66.604 90.157 66.4212 89.7666C66.2384 89.369 66.1469 88.8992 66.1469 88.3572C66.1469 87.7893 66.2384 87.3101 66.4212 86.9197C66.6104 86.5285 66.8783 86.2319 67.2251 86.0306C67.572 85.822 67.9786 85.7181 68.4452 85.7181C68.9245 85.7181 69.3343 85.8257 69.6748 86.04C70.0216 86.2478 70.2865 86.5502 70.4693 86.9478C70.6522 87.3389 70.7436 87.8087 70.7436 88.3572C70.7436 88.9179 70.649 89.3942 70.4599 89.7853C70.277 90.1758 70.0122 90.4724 69.6653 90.6744C69.3249 90.8758 68.9181 90.9768 68.4452 90.9768ZM68.4452 90.258C68.9119 90.258 69.2681 90.0942 69.514 89.7666C69.7662 89.4382 69.8924 88.9684 69.8924 88.3572C69.8924 87.7452 69.7662 87.2726 69.514 86.9384C69.2681 86.6043 68.9119 86.4369 68.4452 86.4369C67.9786 86.4369 67.6192 86.6043 67.367 86.9384C67.1211 87.2661 66.9981 87.7387 66.9981 88.3572C66.9981 88.9619 67.1243 89.4317 67.3765 89.7666C67.6287 90.0942 67.985 90.258 68.4452 90.258ZM71.8149 90.8635V85.8408H72.6469V90.8635H71.8149ZM72.6469 88.0541H72.2688C72.307 87.5121 72.4109 87.0705 72.5812 86.7299C72.7573 86.3835 72.9781 86.128 73.243 85.9642C73.5143 85.8004 73.8102 85.7181 74.1321 85.7181C74.2331 85.7181 74.3247 85.7304 74.4063 85.7557C74.495 85.7751 74.5607 85.8033 74.6047 85.8408V86.5884C74.5355 86.5632 74.4568 86.5473 74.3688 86.5408C74.28 86.5285 74.1855 86.522 74.0851 86.522C73.8326 86.522 73.6154 86.5596 73.4321 86.6353C73.256 86.7046 73.1073 86.8093 72.9875 86.9478C72.8742 87.0864 72.7891 87.2502 72.7321 87.4393C72.6758 87.6226 72.6469 87.8275 72.6469 88.0541ZM79.1858 87.8744L78.7124 88.319C78.7124 87.72 78.5868 87.2567 78.3342 86.9291C78.0881 86.6007 77.7381 86.4369 77.2842 86.4369C76.818 86.4369 76.4615 86.6043 76.2155 86.9384C75.9694 87.2661 75.8467 87.7387 75.8467 88.3572C75.8467 88.9619 75.9759 89.4317 76.2342 89.7666C76.4933 90.0942 76.8584 90.258 77.3318 90.258C77.6847 90.258 77.9813 90.1729 78.2209 90.0026C78.467 89.8323 78.6337 89.5739 78.7217 89.2268H79.5921C79.4535 89.8135 79.1822 90.2515 78.7788 90.5416C78.3818 90.8317 77.8991 90.9768 77.3318 90.9768C76.8462 90.9768 76.4269 90.8729 76.074 90.665C75.7269 90.4565 75.4592 90.157 75.2701 89.7666C75.0868 89.369 74.9951 88.8992 74.9951 88.3572C74.9951 87.7893 75.0868 87.3101 75.2701 86.9197C75.4592 86.5285 75.724 86.2319 76.0639 86.0306C76.411 85.822 76.818 85.7181 77.2842 85.7181C77.7576 85.7181 78.161 85.822 78.4951 86.0306C78.8358 86.2384 79.097 86.535 79.2803 86.9197C79.4629 87.2978 79.5545 87.7546 79.5545 88.2908V88.4986H75.3451V87.8744H79.1858ZM82.5458 90.9768C82.1041 90.9768 81.7231 90.8729 81.4012 90.665C81.0794 90.4565 80.834 90.157 80.6637 89.7666C80.4934 89.369 80.4082 88.8992 80.4082 88.3572C80.4082 87.5057 80.6002 86.8533 80.9848 86.3994C81.3695 85.9454 81.8898 85.7181 82.5458 85.7181C83.126 85.7181 83.5864 85.9454 83.9263 86.3994C84.2734 86.8468 84.4466 87.4992 84.4466 88.3572C84.4466 88.8869 84.3679 89.3502 84.2106 89.7471C84.0591 90.1382 83.8411 90.4406 83.5575 90.6557C83.2739 90.87 82.9369 90.9768 82.5458 90.9768ZM82.6021 90.258C83.0437 90.258 83.3778 90.0971 83.6051 89.776C83.8382 89.4476 83.9551 88.9749 83.9551 88.3572C83.9551 87.7452 83.8354 87.2726 83.5958 86.9384C83.3619 86.6043 83.0314 86.4369 82.6021 86.4369C82.1676 86.4369 81.8328 86.6043 81.5997 86.9384C81.3731 87.2661 81.2591 87.7387 81.2591 88.3572C81.2591 88.9619 81.376 89.4317 81.6091 89.7666C81.8487 90.0942 82.1799 90.258 82.6021 90.258ZM83.9551 90.8635V84.0533H84.7872V90.8635H83.9551ZM90.2479 85.7181C90.6961 85.7181 91.0771 85.822 91.3925 86.0306C91.7143 86.2384 91.9597 86.5379 92.13 86.9291C92.3003 87.3195 92.3855 87.7893 92.3855 88.3377C92.3855 89.1893 92.1935 89.8416 91.8089 90.2955C91.4242 90.7502 90.9039 90.9768 90.2479 90.9768C89.6677 90.9768 89.2044 90.7531 88.858 90.3057C88.5174 89.851 88.3471 89.1958 88.3471 88.3377C88.3471 87.8087 88.4229 87.3483 88.5737 86.9572C88.7317 86.5661 88.9526 86.2637 89.2362 86.0494C89.5263 85.8285 89.8633 85.7181 90.2479 85.7181ZM90.1916 86.4369C89.75 86.4369 89.4123 86.6007 89.1792 86.9291C88.9526 87.2502 88.8385 87.72 88.8385 88.3377C88.8385 88.9497 88.9555 89.4224 89.1885 89.7565C89.4281 90.0913 89.7623 90.258 90.1916 90.258C90.6261 90.258 90.9573 90.0942 91.1846 89.7666C91.4177 89.4317 91.5346 88.9562 91.5346 88.3377C91.5346 87.733 91.4177 87.2661 91.1846 86.9384C90.9508 86.6043 90.6203 86.4369 90.1916 86.4369ZM88.8385 90.8635H88.0065V84.0533H88.8385V90.8635ZM93.5444 93.058C93.4499 93.058 93.3553 93.0479 93.2608 93.0292C93.1728 93.0104 93.1028 92.9945 93.053 92.9823V92.3385H93.3077C93.4593 92.3385 93.5884 92.3263 93.696 92.301C93.8028 92.2758 93.9009 92.2224 93.989 92.1401C94.077 92.0585 94.1687 91.9323 94.2632 91.7619C94.3577 91.5981 94.4652 91.3744 94.585 91.0901L94.7553 90.7026L92.703 85.8408H93.6014L94.9632 89.1611L95.2468 90.0026H95.1335L95.4171 89.1611L96.7413 85.8408H97.5929L95.2468 91.5252C95.1205 91.8283 95.0007 92.0773 94.8874 92.2729C94.7741 92.4742 94.6543 92.6323 94.528 92.7456C94.4082 92.8588 94.2697 92.9382 94.1116 92.9823C93.9543 93.0328 93.7652 93.058 93.5444 93.058Z" fill="white"/>
<mask id="mask1_11401_728" style="mask-type:luminance" maskUnits="userSpaceOnUse" x="43" y="96" width="54" height="12">
<path d="M43.3457 96.4374H96.0413V107.397H43.3457V96.4374Z" fill="white"/>
</mask>
<g mask="url(#mask1_11401_728)">
<path d="M54.4252 97.5009C54.4252 96.9287 54.0163 96.5346 53.4437 96.5346C52.0086 96.5346 50.5736 96.5346 49.1386 96.5346C47.7035 96.5346 46.3428 96.5642 44.9449 96.5195C44.0824 96.4971 43.7329 97.0254 43.7329 97.7463C43.7478 99.1513 43.7329 100.557 43.7329 101.969V106.007C43.7329 106.669 44.127 107.13 44.6996 107.13H53.4586C54.0088 107.13 54.4178 106.721 54.4178 106.171C54.4178 103.286 54.4178 100.393 54.4178 97.5081L54.4252 97.5009ZM45.0341 100.564C45.3018 100.066 45.6067 99.5901 45.9264 99.1217C46.1569 98.7797 46.6031 98.7054 46.945 98.9139C47.302 99.1217 47.4358 99.5677 47.2276 99.9401C46.9525 100.423 46.6551 100.884 46.3577 101.352C46.2164 101.575 45.9933 101.68 45.7331 101.68C45.1457 101.68 44.759 101.085 45.0341 100.564ZM46.5436 105.658C45.919 105.658 45.5621 105.033 45.8818 104.476C46.3354 103.702 46.8187 102.936 47.2871 102.171C48.0976 100.847 48.9081 99.5237 49.7186 98.2002C49.9119 97.8877 50.1424 97.6424 50.5364 97.6647C51.1461 97.7015 51.4585 98.3337 51.1164 98.8988C50.4026 100.096 49.6665 101.278 48.9378 102.46C48.3876 103.367 47.8299 104.267 47.2797 105.174C47.1086 105.457 46.893 105.651 46.5436 105.658ZM53.0571 101.352C52.6556 102.044 52.2243 102.721 51.808 103.405C51.3469 104.148 50.8933 104.899 50.4323 105.635C50.1275 106.126 49.6963 106.26 49.2873 106C48.8932 105.754 48.8188 105.301 49.1014 104.832C49.9639 103.427 50.8264 102.022 51.689 100.609C51.86 100.326 52.083 100.133 52.4325 100.141C53.0496 100.141 53.3917 100.78 53.0645 101.345L53.0571 101.352Z" fill="white"/>
<path d="M79.3986 99.3079H81.7035C82.2462 101.174 82.7889 103.025 83.3316 104.884H83.421C83.9637 103.025 84.5064 101.174 85.0419 99.3151H87.3547C86.4325 101.947 85.5181 104.542 84.6183 107.13H82.1271C81.22 104.535 80.3129 101.947 79.3906 99.3079H79.3986Z" fill="white"/>
<path d="M76.8271 96.6418H78.9235V107.111H76.8271V96.6418Z" fill="white"/>
<path d="M67.863 100.649C67.64 99.3997 67.0897 98.3215 66.0264 97.5479C65.2383 96.9829 64.346 96.6856 63.4017 96.656C61.9741 96.604 60.539 96.6408 59.0742 96.6408V107.125C59.1561 107.14 59.2155 107.155 59.275 107.155C60.7547 107.133 62.2418 107.185 63.7214 107.066C65.6175 106.917 66.9262 105.891 67.6028 104.106C68.0266 102.983 68.0787 101.816 67.8705 100.649H67.863ZM65.5878 103.147C65.2978 104.352 64.4947 105.065 63.253 105.155C62.6136 105.2 61.9741 105.162 61.2975 105.162V98.4926C62.4872 98.5445 63.7438 98.1953 64.7401 99.0952C65.1193 99.4365 65.4019 99.9575 65.558 100.448C65.8406 101.326 65.8034 102.24 65.5878 103.147Z" fill="white"/>
<path d="M92.0509 103.73H94.7499C94.8091 102.659 94.7052 101.692 94.1921 100.808C93.5823 99.7663 92.616 99.2683 91.4484 99.1644C90.0577 99.0453 88.8309 99.4321 87.9909 100.599C87.1805 101.722 87.0463 103.009 87.3068 104.339C87.4555 105.105 87.7752 105.819 88.3698 106.332C89.8203 107.581 92.0654 107.655 93.6342 106.555C94.1401 106.213 94.5637 105.604 94.69 104.875C94.0059 104.837 93.3665 104.8 92.7351 104.763C92.1397 105.722 91.203 105.782 90.4669 105.544C89.7308 105.306 89.3296 104.629 89.396 103.737H92.043L92.0509 103.73ZM91.1878 100.763C92.0509 100.8 92.7423 101.551 92.6528 102.376H89.4111C89.4111 101.432 90.1992 100.718 91.1878 100.763Z" fill="white"/>
<path d="M76.0463 102.757C75.9568 101.255 75.355 100.096 73.9196 99.4484C72.2837 98.7123 70.1722 99.2926 69.1832 100.78C68.5066 101.798 68.4546 102.936 68.5809 104.089C68.6628 104.847 68.9453 105.538 69.4733 106.119C70.4473 107.189 71.7113 107.397 73.0645 107.278C74.0012 107.197 74.8267 106.817 75.4438 106.081C75.7266 105.739 75.9345 105.286 75.9568 104.884C75.2879 104.847 74.6485 104.81 74.0315 104.773C73.4664 105.784 72.3284 105.843 71.5552 105.464C70.9008 105.144 70.6183 104.326 70.7745 103.739H75.9944C76.0167 103.643 76.0312 103.612 76.0312 103.576C76.0312 103.301 76.0463 103.033 76.0312 102.765L76.0463 102.757ZM73.9795 102.378H70.7447C70.596 101.732 71.3395 100.869 72.2173 100.772C73.1244 100.675 74.0611 101.426 73.9795 102.378Z" fill="white"/>
</g>
</g>
<defs>
<linearGradient id="paint0_linear_11401_728" x1="63.0414" y1="-13.3308" x2="128.875" y2="161.815" gradientUnits="userSpaceOnUse">
<stop stop-color="#F7D14E"/>
<stop offset="0.195" stop-color="#FFF5D1"/>
<stop offset="0.37" stop-color="#F7D14E"/>
<stop offset="0.51" stop-color="#F7D14E"/>
<stop offset="0.75" stop-color="#FFF5D1"/>
<stop offset="1" stop-color="#F7D14E"/>
</linearGradient>
<linearGradient id="paint1_linear_11401_728" x1="-46.9581" y1="-13.3308" x2="18.8753" y2="161.815" gradientUnits="userSpaceOnUse">
<stop stop-color="#F7D14E"/>
<stop offset="0.195" stop-color="#FFF5D1"/>
<stop offset="0.37" stop-color="#F7D14E"/>
<stop offset="0.51" stop-color="#F7D14E"/>
<stop offset="0.75" stop-color="#FFF5D1"/>
<stop offset="1" stop-color="#F7D14E"/>
</linearGradient>
<clipPath id="clip0_11401_728">
<rect width="140" height="140" fill="white" transform="translate(110)"/>
</clipPath>
<clipPath id="clip1_11401_728">
<rect width="140" height="140" fill="white"/>
</clipPath>
</defs>
</svg>
