<svg width="720" height="560" viewBox="0 0 720 560" fill="none" xmlns="http://www.w3.org/2000/svg">
<g clip-path="url(#clip0_8864_19084)">
<rect width="720" height="560" fill="white"/>
<path d="M248.339 88.8824L248.28 50.4722C248.28 42.9288 247.712 33.0308 249.145 25.7804C250.788 17.4734 259.349 8.90949 267.786 7.59917C273.821 6.70518 282.144 7.07298 288.416 7.08503L323.1 7.10097C363.018 7.0868 402.934 7.16688 442.878 7.01948C454.384 6.97696 464.588 14.9413 467.062 26.3778C468.227 31.7761 467.458 37.7768 467.689 43.2753C467.746 45.8007 467.685 48.4373 467.685 50.9832L467.657 98.0218C468.348 99.0483 470.098 101.453 470.141 102.611C470.531 112.997 469.914 123.498 470.109 133.915C470.144 135.823 470.212 138.204 470.063 140.06C469.347 141.68 469.861 145.32 470.045 147.178C470.109 151.438 470.577 153.792 467.618 156.972L467.668 199.781L467.675 207.723L467.692 212.258C467.579 213.958 467.866 213.846 466.994 214.901L465.495 215.489C464.719 216.014 463.99 216.613 463.1 216.835C462.09 218.325 459.327 220.759 457.512 223.249C453.058 232.06 452.775 242.136 455.804 251.455C456.378 253.199 457.055 254.91 457.828 256.579C456.906 258.276 456.899 277.729 457.682 279.465C452.669 282.548 449.625 284.841 448.31 291.081C446.007 301.994 449.788 313.935 457.431 321.808C457.335 324.129 456.729 332.594 457.604 334.04C443.924 342.413 445.936 363.879 457.335 373.598C458.281 374.158 462.824 376.489 463.054 376.663C463.809 376.808 464.744 377.028 465.492 377.078L467.288 377.421C468.521 379.586 467.072 393.317 467.933 397.289L467.997 397.647C467.916 399.057 467.82 400.364 467.855 401.782C467.558 410.484 466.445 416.6 459.808 422.904C452.162 430.171 444.466 429.76 434.594 429.586C429.793 429.501 424.602 429.657 419.765 429.484C417.607 429.608 414.191 429.477 411.941 429.462C403.232 429.877 391.11 429.48 382.053 429.477L320.745 429.48L286.633 429.551C271.548 429.579 261.386 431.642 251.94 417.504C251.932 416.051 252.066 415.902 252.637 414.52C253.033 413.368 253.414 412.21 253.78 411.048C253.78 409.357 257.224 391.818 257.691 389.068C257.799 387.58 258.172 385.256 258.431 383.736C261.776 364.102 260.806 345.68 257.995 326.029C257.282 322.294 256.618 318.804 255.811 315.094C255.023 311.476 253.437 306.228 253.177 302.774C251.934 300.548 250.801 296.934 250.645 294.387L250.256 294.27C249.23 292.82 248.766 290.638 248.321 288.88C248.573 275.451 248.361 261.458 248.343 247.986C248.423 246.831 248.371 245.208 248.37 244.014C248.423 234.508 248.536 223.832 248.233 214.405C248.801 212.901 249.124 211.788 250.325 210.788C250.502 208.545 251.991 206.131 253.092 204.181C253.191 203.068 254.89 197.956 255.323 196.469C256.424 192.694 256.908 190.093 257.535 186.261C257.453 182.886 258.771 174.816 258.842 170.28C258.959 162.791 258.299 157.29 257.926 149.965C256.739 143.112 255.758 139.769 253.069 133.341C252.001 131.991 251.491 131.069 250.629 129.602C249.121 128.389 246.628 126.77 245.56 125.394C245.309 115.868 244.944 102.638 246.078 93.171C246.21 92.0729 247.667 89.8884 248.339 88.8824Z" fill="#0080FF"/>
<path d="M248.339 88.8824L248.28 50.4722C248.28 42.9288 247.712 33.0308 249.145 25.7804C250.788 17.4734 259.349 8.90949 267.786 7.59917C273.821 6.70518 282.144 7.07298 288.416 7.08503L323.1 7.10097C363.018 7.0868 402.934 7.16688 442.878 7.01948C454.384 6.97696 464.588 14.9413 467.062 26.3778C468.227 31.7761 467.458 37.7768 467.689 43.2753C467.746 45.8007 467.685 48.4373 467.685 50.9832L467.657 98.0218C468.348 99.0483 470.098 101.453 470.141 102.611C470.531 112.997 469.914 123.498 470.109 133.915C470.144 135.823 470.212 138.204 470.063 140.06C469.347 141.68 469.861 145.32 470.045 147.178C470.109 151.438 470.577 153.792 467.618 156.972L467.668 199.781L467.675 207.723L467.692 212.258C467.579 213.958 467.866 213.846 466.994 214.901L465.495 215.489C464.719 216.014 463.99 216.613 463.1 216.835C462.714 201.305 463.026 184.534 463.033 168.89V82.5299L463.061 47.2053C463.061 41.5618 463.267 35.1115 462.806 29.5307C462.154 21.6248 453.54 12.1453 445.408 11.9001C433.644 11.5457 421.629 11.7077 409.812 11.7087L342.511 11.7332L294.541 11.7197C286.452 11.7204 278.22 11.5447 270.155 12.0128C266.881 12.203 262.069 14.8432 259.649 17.0571C257.149 19.3333 253.991 24.1437 253.601 27.5787C252.599 36.4108 253.102 46.3619 253.106 55.2316L253.211 104.902C253.233 113.861 253.505 124.532 253.069 133.341C252.001 131.991 251.491 131.069 250.629 129.602C249.121 128.389 246.628 126.77 245.56 125.394C245.309 115.868 244.944 102.638 246.078 93.171C246.21 92.0729 247.667 89.8884 248.339 88.8824Z" fill="#0080FF"/>
<path d="M250.629 129.602C250.147 108.928 250.72 87.0178 250.665 66.1425L250.623 41.3292C250.67 32.0424 249.795 23.5299 256.886 16.299C262.212 10.867 267.801 9.04435 275.328 9.24596C314.892 9.22896 354.479 9.22718 394.037 9.23462L429.144 9.23958C439.441 9.24277 450.404 7.44489 458.256 15.4947C464.457 21.8514 465.456 26.4273 465.503 35.0816L465.495 215.489C464.719 216.014 463.99 216.613 463.1 216.836C462.714 201.305 463.026 184.534 463.033 168.891V82.5301L463.061 47.2055C463.061 41.562 463.267 35.1117 462.806 29.5309C462.154 21.625 453.54 12.1455 445.408 11.9003C433.644 11.5459 421.629 11.7079 409.812 11.7089L342.511 11.7334L294.541 11.7199C286.452 11.7206 278.22 11.5449 270.155 12.013C266.881 12.2032 262.069 14.8434 259.649 17.0573C257.149 19.3335 253.991 24.144 253.601 27.5789C252.599 36.411 253.102 46.3621 253.106 55.2318L253.21 104.902C253.233 113.861 253.505 124.533 253.069 133.341C252.001 131.991 251.49 131.07 250.629 129.602Z" fill="#D4E3F3"/>
<path d="M463.054 376.664C463.809 376.809 464.745 377.029 465.492 377.079L467.289 377.422C468.522 379.587 467.072 393.318 467.934 397.29L467.997 397.648C467.916 399.058 467.82 400.366 467.856 401.783C467.558 410.485 466.445 416.601 459.809 422.905C452.162 430.172 444.466 429.761 434.594 429.587C429.793 429.502 424.602 429.658 419.765 429.485C417.607 429.609 414.192 429.478 411.942 429.463C403.232 429.878 391.11 429.481 382.053 429.478L320.745 429.481L286.633 429.552C271.549 429.58 261.386 431.643 251.94 417.505C251.932 416.052 252.066 415.903 252.637 414.521C253.033 413.37 253.414 412.211 253.78 411.049C255.912 415.889 259.132 419.953 263.727 422.614C267.59 424.85 270.603 424.871 274.922 424.91L393.222 424.949L429.513 424.96C441.366 424.946 459.096 426.714 462.381 409.638C464.121 400.596 463.069 386.228 463.054 376.664Z" fill="#D4E3F3"/>
<path d="M465.492 377.078L467.289 377.422C468.522 379.587 467.072 393.317 467.934 397.289L467.997 397.647C467.916 399.057 467.82 400.365 467.856 401.782C467.558 410.485 466.445 416.601 459.809 422.904C452.162 430.172 444.466 429.761 434.594 429.587C429.793 429.502 424.602 429.658 419.765 429.484C417.607 429.608 414.192 429.477 411.942 429.463C403.232 429.877 391.11 429.481 382.053 429.477L320.745 429.481L286.633 429.552C271.549 429.58 261.386 431.642 251.94 417.504C251.932 416.051 252.066 415.903 252.637 414.521C258.292 423.156 263.703 427.333 274.549 427.351L394.505 427.294L428.298 427.33C442.152 427.358 456.216 429.605 463.175 414.28C466.219 407.576 465.52 401.517 465.513 394.338L465.492 377.078Z" fill="#0080FF"/>
<path d="M253.092 204.18C253.735 232.704 252.824 261.503 253.248 290.052C253.31 294.172 253.332 298.662 253.177 302.772C251.934 300.547 250.801 296.933 250.646 294.385L250.256 294.268C249.23 292.819 248.767 290.636 248.322 288.879C248.573 275.449 248.361 261.457 248.343 247.985C248.423 246.83 248.371 245.207 248.37 244.013C248.423 234.506 248.536 223.83 248.233 214.403C248.801 212.899 249.124 211.787 250.325 210.787C250.503 208.543 251.991 206.13 253.092 204.18Z" fill="#D4E3F3"/>
<path d="M248.233 214.405C248.801 212.901 249.124 211.789 250.325 210.789C250.868 215.323 250.712 221.197 250.701 225.835L250.651 248.178L250.759 277.56C250.777 282.815 250.962 289.281 250.646 294.387L250.256 294.27C249.23 292.821 248.767 290.638 248.322 288.881C248.573 275.452 248.361 261.459 248.343 247.987C248.423 246.832 248.371 245.209 248.37 244.015C248.423 234.509 248.536 223.832 248.233 214.405Z" fill="#0080FF"/>
<path d="M244.581 138.023C243.452 130.67 234.005 128.259 230.082 124.078L230.285 123.754C235.813 123.541 240.972 126.352 245.065 129.935C253.548 137.361 254.918 150.601 255.055 161.835C255.205 174.13 254.979 197.505 246.622 207.323C245.95 208.112 244.098 208.746 243.13 209.101L244.786 209.907C244.902 210.756 244.971 210.367 244.635 211.084C240.802 229.312 229.338 246.005 230.978 265.221C231.221 268.062 230.364 271.251 232.854 272.725C234.781 272.506 235.08 271.177 235.013 269.377C234.867 265.458 234.523 261.737 234.704 257.797C238.626 255.855 244.741 250.81 248.343 247.986C248.361 261.457 248.573 275.45 248.322 288.879C248.767 290.637 249.23 292.82 250.256 294.269L250.646 294.386C250.801 296.933 251.934 300.548 253.177 302.773C253.437 306.228 255.023 311.475 255.811 315.093C256.619 318.803 257.282 322.293 257.995 326.028C260.806 345.679 261.776 364.101 258.431 383.735C258.172 385.255 257.8 387.579 257.691 389.068C257.224 391.817 253.78 409.357 253.78 411.047C253.414 412.209 253.033 413.368 252.637 414.519C252.066 415.901 251.932 416.05 251.94 417.503C261.386 431.641 271.549 429.579 286.633 429.55L320.745 429.479L382.053 429.476C391.11 429.479 403.232 429.876 411.942 429.462C414.192 429.476 417.607 429.607 419.765 429.483C417.746 430.131 389.395 452.04 384.892 455.342C378.17 460.168 371.416 464.948 364.627 469.679C350.975 479.157 336.869 487.962 322.36 496.066C306.772 504.715 290.612 512.294 273.992 518.743C263.575 522.843 252.962 526.478 242.325 529.962C239.589 530.858 235.866 531.737 233.615 533.402C229.551 536.414 224.387 542.204 221.096 545.74C215.702 551.512 210.349 557.327 205.037 563.173C195.925 573.123 186.883 583.133 177.913 593.207C172.966 598.699 167.135 604.857 162.495 610.523H158.978H-10V502.455C4.41553 493.111 19.3141 482.357 33.6143 472.566L103.933 424.363C106.305 422.704 131.416 404.439 131.615 404.385C134.053 405.626 133.815 411.323 136.136 413.155C137.365 414.123 138.547 414.247 139.357 412.858C139.228 411.295 138.509 410.303 137.747 408.907C141.31 408.244 141.444 407.064 143.406 404.081C146.592 399.237 149.134 395.066 148.737 388.958C148.671 387.934 148.793 383.32 148.945 382.509C154.078 355.09 157.766 326.981 165.489 300.144C169.527 286.3 178.741 276.063 185.952 264.108C198.015 243.688 214.317 225.623 223.742 203.728C227.353 195.34 232.003 188.598 233.123 179.211C233.627 174.987 233.966 169.546 235.216 165.592C236.784 160.631 245.506 142.375 244.581 138.023Z" fill="#D4E3F3"/>
<path d="M411.942 429.461C414.192 429.475 417.608 429.606 419.766 429.482C417.746 430.131 389.395 452.039 384.892 455.342C378.17 460.168 371.417 464.948 364.628 469.678C350.975 479.156 336.87 487.962 322.361 496.065C306.772 504.714 290.612 512.294 273.993 518.743C263.575 522.842 252.962 526.478 242.325 529.961C239.589 530.857 235.866 531.736 233.616 533.401C229.551 536.413 224.387 542.203 221.096 545.739C215.702 551.511 210.349 557.326 205.038 563.173C195.925 573.122 186.884 583.132 177.913 593.206C172.966 598.698 167.136 604.857 162.495 610.522H158.979C160.788 606.607 173.709 592.923 177.336 588.883C192.944 571.312 208.823 553.985 224.966 536.906C222.238 536.442 217.753 535.247 215.446 533.66C212.148 531.389 203.53 523.282 206.293 519.001C207.231 518.353 207.288 518.19 208.436 518.119C209.765 519.476 209.72 521.648 210.718 522.878C215.834 529.334 223.141 537.831 231.488 530.577C233.324 528.983 246.102 525.298 249.082 524.26C256.363 521.705 263.611 519.054 270.822 516.308C279.379 513.041 287.811 509.459 296.101 505.565C334.423 487.763 369.067 463.282 402.527 437.71C403.973 436.604 412.438 430.719 412.76 429.829L411.942 429.461Z" fill="#0080FF"/>
<path d="M251.94 417.5C250.473 420.987 247.197 438.399 242.616 437.034C241.694 435.153 246.057 425.391 246.832 422.73C261.077 373.871 260.41 324.82 240.562 277.641C240.154 276.67 240.3 275.748 240.813 274.866L241.693 274.703C245.525 276.461 246.054 285.298 248.322 288.877C248.767 290.634 249.23 292.817 250.256 294.266L250.646 294.383C250.801 296.931 251.934 300.545 253.177 302.77C253.437 306.225 255.023 311.472 255.811 315.09C256.619 318.8 257.282 322.29 257.995 326.025C260.806 345.676 261.776 364.098 258.431 383.732C258.172 385.252 257.8 387.576 257.691 389.065C257.224 391.814 253.78 409.354 253.78 411.044C253.415 412.206 253.033 413.365 252.637 414.516C252.066 415.898 251.932 416.047 251.94 417.5Z" fill="#0080FF"/>
<path d="M233.756 213.216C237.948 212.134 239.242 210.684 243.131 209.102L244.787 209.907C244.903 210.757 244.972 210.367 244.636 211.084C239.917 213.733 239.305 213.414 233.756 213.216Z" fill="#0080FF"/>
<path d="M470.063 140.055C474.588 137.516 479.556 135.007 484.173 132.616C495.005 127.002 509.681 119.143 522.221 122.652C528.741 124.485 534.251 128.861 537.514 134.796C553.658 164.537 503.732 183.243 486.476 195.684C497.765 194.879 509.384 194.276 518.547 202.323C530.789 213.075 533.081 233.907 522.019 246.302C518.295 250.476 512.133 253.502 507.304 256.223C515.287 257.658 521.084 260.723 525.782 267.569C530.75 274.907 532.614 283.911 530.966 292.617C529.758 298.867 525.006 307.3 519.581 310.472C511.123 315.415 499.682 319.553 490.547 323.465C498.332 323.511 504.462 324.347 510.326 330.105C515.485 335.169 518.111 343.333 518.136 350.355C518.16 358.828 513.143 369.486 506.786 375.045C495.696 384.74 480.427 394.204 467.856 401.776C467.82 400.359 467.916 399.052 467.997 397.641L467.934 397.284C467.072 393.311 468.522 379.581 467.289 377.416L465.492 377.072C464.745 377.023 463.809 376.803 463.054 376.658C462.824 376.484 458.281 374.153 457.335 373.593C445.936 363.873 443.924 342.408 457.605 334.035C456.729 332.589 457.335 324.124 457.431 321.803C449.788 313.93 446.007 301.989 448.31 291.075C449.625 284.835 452.669 282.543 457.683 279.46C456.9 277.724 456.907 258.271 457.828 256.574C457.055 254.905 456.379 253.193 455.805 251.45C452.775 242.131 453.059 232.055 457.513 223.244C459.327 220.754 462.091 218.32 463.1 216.83C463.99 216.608 464.72 216.009 465.496 215.484L466.995 214.896C467.866 213.841 467.579 213.953 467.693 212.253L467.675 207.717L467.668 199.775L467.618 156.967C470.577 153.787 470.109 151.433 470.045 147.172C469.861 145.315 469.347 141.675 470.063 140.055Z" fill="#0080FF"/>
<path d="M475.831 269.301C476.292 269.109 503.976 259.354 502.403 259.429C531.377 258.075 538.099 302.268 510.815 311.07C497.612 316.3 478.312 327.56 464.014 321.54C454.359 317.476 449.083 299.454 453.062 289.306C456.665 280.108 481.745 275.654 483.07 271.561C481.692 268.734 470.41 273.882 467.972 274.878C468.001 273.606 467.99 272.018 468.086 270.778L468.964 270.697C471.696 270.725 473.34 270.172 475.831 269.301Z" fill="#D4E3F3"/>
<path d="M479.163 280.078C495.168 280.149 501.401 301.877 491.798 312.234C488.708 315.565 475.541 320.922 471.307 320.844C470.209 320.185 470.595 320.625 470.046 319.544L470.35 318.764C472.43 316.816 480.484 314.693 483.925 313.336C487.078 311.632 489.945 309.75 491.479 306.348C493.336 302.242 492.599 296.3 490.951 292.196C483.734 274.221 463.547 290.325 458.023 287.516C457.474 287.239 457.541 287.09 457.343 286.57C458.859 283.568 475.743 280.326 479.163 280.078Z" fill="#0080FF"/>
<path d="M470.045 147.175C470.084 146.462 469.985 144.431 470.63 144.075C482.94 137.267 505.256 122.848 519.149 125.421C524.978 126.488 530.13 129.861 533.439 134.777C544.746 151.484 527.246 166.863 514.061 174.689C498.909 183.68 483.985 193.635 468.582 202.169L468.104 201.993C467.834 201.034 467.788 200.768 467.668 199.778L467.618 156.97C470.577 153.79 470.109 151.436 470.045 147.175Z" fill="#D4E3F3"/>
<path d="M467.675 207.721C468.837 205.658 478.39 200.635 480.991 200.074C499.593 196.173 518.685 197.379 524.755 219.191C532.164 245.823 501.542 256.488 481.99 263.302C468.681 266.25 460.347 259.061 458.324 246.092C456.907 237 457.371 233.455 460.776 225.235C464.025 217.382 485.455 211.521 486.975 209.254C484.715 203.664 471.611 213.543 468.05 213.782L467.693 212.256L467.675 207.721Z" fill="#D4E3F3"/>
<path d="M484.694 216.609C490.678 217.757 495.363 220.235 498.906 225.333C501.925 229.752 503.084 235.181 502.13 240.446C501.082 246.229 497.953 249.156 493.222 252.153C489.757 254.347 477.99 261.628 474.127 259.605L473.894 258.911C476.742 253.677 504.235 250.786 497.999 232.154C496.44 227.487 494.959 224.9 490.271 222.161C488.393 221.065 485.994 220.411 483.868 220.029C483.482 218.362 483.241 218.505 483.684 217.119L484.694 216.609Z" fill="#0080FF"/>
<path d="M471.269 220.259C475.464 218.41 480.017 216.466 484.694 216.609L483.684 217.119C483.242 218.505 483.482 218.362 483.869 220.028C479.613 220.05 476.679 220.384 472.604 221.818C471.51 221.55 471.921 221.749 471.116 221.008L471.269 220.259Z" fill="#0080FF"/>
<path d="M472.604 221.817C470.776 222.637 466.581 225.006 466.138 223.089C466.903 221.523 469.522 220.9 471.268 220.258L471.116 221.007C471.92 221.748 471.509 221.549 472.604 221.817Z" fill="#0080FF"/>
<path d="M468 326.962C471.235 327.235 473.932 327.444 477.163 327.31C488.017 326.856 500.975 323.965 508.862 333.627C513.132 338.854 515.275 346.391 514.492 353.024C513.475 361.677 507.81 370.202 500.982 375.428C492.726 381.746 484.013 387.752 475.197 393.244C473.825 394.098 469.18 397.103 467.997 397.645L467.933 397.287C468.064 390.718 467.862 384.177 467.954 377.657C473.556 378.1 499.554 378.001 500.992 372.136C498.976 371.027 492.063 372.983 489.264 373.299C477.284 374.674 458.05 377.271 453.703 362.031C452.119 356.493 452.062 346.989 454.805 341.766C458.816 334.131 472.525 335.608 478.517 331.728L478.68 331.275C475.034 328.231 471.161 331.569 468.394 330.336C467.703 329.336 467.947 328.245 468 326.962Z" fill="#D4E3F3"/>
<path d="M466.722 336.75C470.984 336.215 477.462 336.226 481.384 337.913C492.709 342.788 493.187 364.477 480.346 368.024C475.931 369.243 470.18 370.77 465.62 369.626C465.134 369.502 464.996 368.492 464.851 368.028C465.01 367.751 465.737 366.532 466.077 366.554C480.913 367.252 489.311 362.053 484.718 346.321C481.416 335.018 462.25 343.26 461.145 338.88L461.811 337.884C463.235 337.034 465.024 336.977 466.722 336.75Z" fill="#0080FF"/>
<path d="M462.983 263.344L465.698 264.768C465.474 268.06 465.379 272.588 465.517 275.94L463.125 276.784C463.033 272.319 463.022 267.812 462.983 263.344Z" fill="#D4E3F3"/>
<path d="M465.698 264.766C466.308 265.099 467.374 265.63 467.909 265.999L467.874 270.212C467.799 271.739 467.941 274.049 467.236 275.222C466.474 275.619 466.336 275.725 465.517 275.938C465.379 272.586 465.475 268.057 465.698 264.766Z" fill="#0080FF"/>
<path d="M463.064 325.359L465.499 326.057C465.492 327.9 465.435 329.948 465.534 331.773C464.779 331.904 463.819 332.046 463.089 332.216L463.064 325.359Z" fill="#D4E3F3"/>
<path d="M467.908 266C469.411 266.493 472.192 267.499 473.642 267.697L471.066 268.927C469.797 269.522 469.659 269.533 468.964 270.698L468.086 270.78L467.873 270.213L467.908 266Z" fill="#D4E3F3"/>
<path d="M465.499 326.055C468.164 326.54 468.366 327.918 467.636 330.512C467.327 331.604 466.622 331.653 465.535 331.77C465.435 329.945 465.492 327.897 465.499 326.055Z" fill="#0080FF"/>
<path d="M244.582 138.023C245.507 142.376 236.785 160.632 235.217 165.592C233.967 169.547 233.628 174.988 233.124 179.212C232.004 188.599 227.354 195.341 223.743 203.729C214.318 225.624 198.016 243.688 185.953 264.109C178.742 276.064 169.528 286.301 165.49 300.145C157.767 326.982 154.079 355.091 148.946 382.51C148.794 383.321 148.672 387.934 148.738 388.958C149.135 395.067 146.593 399.238 143.407 404.082C141.445 407.065 141.311 408.245 137.748 408.908C136.076 406.923 134.664 404.209 132.822 401.892C133.468 398.841 134.776 393.884 134.995 390.932C136.688 368.117 140.565 346.027 144.93 323.594C147.814 308.773 149.665 293.302 154.477 278.92C157.592 269.612 163.525 261.338 168.555 253.007C175.738 240.879 181.971 228.119 187.7 215.247C189.802 211.214 191.206 204.592 193.392 200.821C200.056 189.325 204.461 178.627 209.222 166.264C224.335 176.729 234.444 170.317 239.121 154.499C240.665 149.275 242.908 143.348 244.582 138.023Z" fill="white"/>
<path d="M129.299 400.875C129.788 397.236 131.146 393.204 131.626 389.515C132.883 379.845 133.445 369.92 134.894 360.289C136.99 346.361 139.783 332.464 142.373 318.559C145.057 304.156 147.224 287.931 152.45 274.292C155.178 267.17 160.249 260.027 164.164 253.479C167.152 248.483 170.066 243.309 172.84 238.187C177.18 230.006 181.147 221.632 184.73 213.091C186.749 208.267 188.44 203.298 190.609 198.53C193.08 193.057 196.495 188.098 198.88 182.575C201.491 176.528 204.176 170.332 206.183 164.055C207.099 160.819 207.6 157.434 208.422 154.18C210.303 146.423 212.369 138.973 215.118 131.512C220.373 117.253 232.572 117.506 243.761 124.409C244.524 124.88 244.658 125.081 245.56 125.391C246.628 126.767 249.122 128.386 250.629 129.599C251.491 131.066 252.001 131.988 253.069 133.337C255.758 139.766 256.739 143.109 257.926 149.962C258.299 157.286 258.959 162.788 258.842 170.277C258.771 174.813 257.453 182.883 257.535 186.257C256.908 190.089 256.424 192.691 255.324 196.466C254.89 197.953 253.191 203.065 253.092 204.178C251.991 206.128 250.502 208.541 250.325 210.785C249.124 211.785 248.801 212.897 248.233 214.401C248.536 223.828 248.423 234.505 248.37 244.011C248.371 245.205 248.423 246.828 248.343 247.983C244.741 250.807 238.626 255.853 234.704 257.795C234.523 261.735 234.867 265.455 235.013 269.374C235.08 271.174 234.781 272.503 232.854 272.723C230.364 271.249 231.221 268.06 230.978 265.218C229.338 246.002 240.802 229.309 244.635 211.081C244.971 210.365 244.902 210.754 244.786 209.904L243.13 209.099C244.097 208.744 245.95 208.11 246.622 207.32C254.979 197.503 255.205 174.127 255.055 161.832C254.918 150.599 253.548 137.358 245.065 129.932C240.972 126.35 235.813 123.538 230.285 123.751L230.082 124.076C234.005 128.257 243.452 130.668 244.581 138.02C242.907 143.344 240.664 149.272 239.12 154.496C234.443 170.314 224.334 176.726 209.221 166.26C204.46 178.623 200.055 189.322 193.39 200.818C191.205 204.588 189.801 211.211 187.699 215.244C181.97 228.115 175.737 240.875 168.554 253.004C163.524 261.334 157.591 269.608 154.476 278.917C149.664 293.299 147.813 308.769 144.929 323.591C140.564 346.024 136.687 368.113 134.994 390.929C134.775 393.88 133.467 398.837 132.821 401.888C134.663 404.206 136.075 406.92 137.746 408.904C138.509 410.3 139.228 411.292 139.357 412.855C138.547 414.244 137.365 414.12 136.136 413.153C133.815 411.321 134.053 405.623 131.615 404.383C131.416 404.436 106.305 422.702 103.933 424.36L33.6143 472.564C19.3141 482.354 4.41553 493.108 -10 502.452V498.622L74.4407 440.366C86.8963 431.883 99.2718 423.287 111.566 414.573C116.682 410.878 124.82 405.201 129.299 400.875Z" fill="#0080FF"/>
<path d="M248.233 214.406C248.536 223.833 248.423 234.509 248.37 244.016C246.047 245.189 237.775 251.659 235.247 253.569C236.395 245.04 241.144 234.173 243.916 225.877C244.664 223.638 247.262 216.303 248.233 214.406Z" fill="white"/>
<path d="M223.979 124.984C226.135 125.181 238.76 134.669 240.91 137.052C240.818 137.441 240.722 137.829 240.621 138.215C238.627 145.645 234.52 157.979 230.153 164.438C229.578 165.289 228.014 166.17 227.103 166.693C220.698 168.487 215.202 167.17 210.594 162.374C211.23 154.171 217.295 129.445 223.979 124.984Z" fill="white"/>
<path d="M332 26.9863C332 24.7847 333.785 23 335.986 23H376.292C378.493 23 380.278 24.7847 380.278 26.9863C380.278 29.1878 378.493 30.9725 376.292 30.9725H335.986C333.785 30.9725 332 29.1878 332 26.9863Z" fill="#D4E3F3"/>
<path d="M383.296 26.9863C383.296 24.7847 385.081 23 387.283 23L387.365 23C389.566 23 391.351 24.7847 391.351 26.9863C391.351 29.1878 389.566 30.9725 387.365 30.9725H387.283C385.081 30.9725 383.296 29.1878 383.296 26.9863Z" fill="#D4E3F3"/>
<rect x="329" y="415" width="64" height="4" rx="2" fill="white"/>
<rect x="314.297" y="184.297" width="93.4054" height="48.4054" rx="8.7027" fill="#D4E3F3" stroke="white" stroke-width="2.59459"/>
<mask id="path-34-inside-1_8864_19084" fill="white">
<rect x="407.176" y="197" width="10" height="24" rx="2"/>
</mask>
<rect x="407.176" y="197" width="10" height="24" rx="2" fill="white" stroke="white" stroke-width="5.18919" mask="url(#path-34-inside-1_8864_19084)"/>
<path d="M372.151 207.275C372.114 207.114 372.037 206.964 371.928 206.84C371.819 206.716 371.681 206.62 371.526 206.562L364.326 203.862L366.151 194.7C366.193 194.488 366.166 194.268 366.073 194.072C365.981 193.876 365.829 193.715 365.638 193.612C365.446 193.51 365.225 193.474 365.011 193.511C364.796 193.547 364.599 193.653 364.451 193.812L350.451 208.812C350.336 208.932 350.253 209.077 350.209 209.237C350.166 209.396 350.163 209.564 350.201 209.725C350.24 209.885 350.317 210.034 350.426 210.158C350.535 210.282 350.672 210.378 350.826 210.437L358.026 213.137L356.201 222.3C356.159 222.512 356.186 222.732 356.278 222.928C356.37 223.124 356.523 223.285 356.713 223.387C356.857 223.46 357.015 223.498 357.176 223.5C357.312 223.501 357.446 223.473 357.571 223.419C357.696 223.366 357.808 223.287 357.901 223.187L371.901 208.187C372.015 208.068 372.098 207.923 372.142 207.763C372.186 207.604 372.189 207.436 372.151 207.275Z" fill="#0080FF"/>
</g>
<defs>
<clipPath id="clip0_8864_19084">
<rect width="720" height="560" fill="white"/>
</clipPath>
</defs>
</svg>
