<svg width="720" height="560" viewBox="0 0 720 560" fill="none" xmlns="http://www.w3.org/2000/svg">
<g clip-path="url(#clip0_9315_889)">
<rect width="720" height="560" fill="white"/>
<rect width="10.2682" height="13.202" transform="matrix(1 0 -0.173648 0.984808 639.028 352.849)" fill="#0080FF"/>
<rect width="740.294" height="369.341" rx="4.91017" transform="matrix(0.95285 -0.492404 0.779201 0.492404 -342.932 547.67)" fill="#0080FF"/>
<rect x="2.12617" width="737.4" height="367.509" rx="3.68263" transform="matrix(0.95285 -0.492404 0.779201 0.492404 -340.538 535.706)" fill="white" stroke="#0080FF" stroke-width="2.45509"/>
<rect width="284.119" height="171.373" rx="7.54796" transform="matrix(0.95285 -0.492404 0.779201 0.492404 107.148 360.316)" fill="#0080FF"/>
<rect width="279.609" height="171.373" rx="7.54796" transform="matrix(0.95285 -0.492404 0.779201 0.492404 108.323 353.651)" fill="#D4E3F3"/>
<rect width="243.531" height="82.0849" rx="7.54796" transform="matrix(0.95285 -0.492404 0.779201 0.492404 139.892 353.651)" fill="#0080FF"/>
<rect width="84.4874" height="49.6081" rx="7.54796" transform="matrix(0.95285 -0.492404 0.779201 0.492404 292.835 355.873)" fill="#0080FF"/>
<path d="M349.444 28.8038C354.379 26.2858 358.748 28.2179 359.235 33.1338L376.243 204.838C376.734 209.798 373.091 215.916 368.115 218.487L112.955 350.346C107.99 352.912 103.581 350.973 103.106 346.016L86.487 172.457C86.0104 167.479 89.6836 161.354 94.6732 158.808L349.444 28.8038Z" fill="#D4E3F3" stroke="#0080FF" stroke-width="3.77398"/>
<path d="M102.901 166.149L343.748 43.299C346.705 41.7904 349.324 42.9454 349.621 45.8893L365.626 204.993C365.927 207.984 363.718 211.677 360.714 213.209L119.036 336.382C116.068 337.894 113.444 336.725 113.162 333.763L97.9874 174.336C97.7034 171.349 99.9078 167.675 102.901 166.149Z" fill="#0080FF" stroke="#0080FF" stroke-width="3.77398"/>
<circle cx="1.88658" cy="1.88658" r="1.88658" transform="matrix(0.95285 -0.492404 0.178844 0.925417 203.15 108.129)" fill="#0080FF"/>
<rect width="18.8699" height="3.77398" rx="1.88699" transform="matrix(0.95285 -0.492404 0.178844 0.925417 208.543 105.341)" fill="#0080FF"/>
<path d="M590.165 238.54L578.008 192.026L541.008 199.954V246.468L590.165 238.54Z" fill="#FEFFFA"/>
<path d="M499.838 283.177L506.951 298.784L581.282 269.577C580.021 266.339 599.73 260.597 599.705 255.453C599.681 250.309 586.742 245.939 599.705 215.265C611.849 186.532 623.13 124.069 571.105 104.088C506.073 79.1127 472.242 109.515 458.346 129.22C447.229 144.984 446.077 174.176 446.89 186.801C447.606 190.866 440.862 198.924 438.466 217.398C438.466 221.096 444.114 224.823 444.009 225.57C441.253 245.257 453.903 269.236 460.666 278.183C472.833 293.002 492.469 286.804 499.838 283.177Z" fill="white" stroke="#0080FF" stroke-width="4.22854"/>
<path d="M497.395 255.703C491.036 274.09 479.87 279.769 471.766 282.94C483.394 289.811 497.219 282.308 500.566 280.546L508.495 296.932L520.123 291.117C516.423 271.737 502.152 241.948 497.395 255.703Z" fill="#D4E3F3"/>
<path d="M695.807 647.961L668.164 433.709L444.984 462.503L378.541 641.982L695.807 647.961Z" fill="#F0F6FC"/>
<path d="M654.974 338.115C687.066 360.709 692.24 422.045 692.24 422.045L624.309 534.177L529.771 530.166L444.725 606.031L369.061 639.385L241.499 604.294C241.499 604.294 224.978 593.779 219.297 583.587C205.343 558.553 215.625 519.168 245.378 515.009C283.162 509.727 361.691 533.607 361.691 533.607C361.691 533.607 412.311 438.739 464.59 375.752C506.345 325.445 601.13 300.208 654.974 338.115Z" fill="#F0F6FC" stroke="#0080FF" stroke-width="4.22854"/>
<path d="M445.939 605.494L525.91 528.925C524 501.506 506.681 506.419 496.751 513.469C458.371 545.638 377.602 610.255 361.572 611.371C341.535 612.767 305.338 595.155 283.095 587.697C260.852 580.239 240.549 539.798 232.38 559.441C225.845 575.156 242.26 594.783 257.122 602.753L375.647 638.474L445.939 605.494Z" fill="#D4E3F3"/>
<path d="M446.034 637.28C476.819 622.843 512.733 562.87 526.842 534.688L447.741 608.549L375.904 642.166C385.399 646.626 415.249 651.717 446.034 637.28Z" fill="#D4E3F3"/>
<path d="M663.47 424.927C694.059 417.701 714.495 419.606 721.693 424.05C729.256 492.05 743.411 627.8 739.526 626.799C735.642 625.798 569.756 636.331 487.298 641.722C501.269 598.891 518.383 527.712 554.868 486.008C585.15 451.393 620.051 435.185 663.47 424.927Z" fill="#D4E3F3" stroke="#0080FF" stroke-width="4.22854"/>
<path d="M681.493 455.463C712.082 448.236 732.518 450.142 739.715 454.586C747.279 522.586 761.434 658.336 757.549 657.335C753.665 656.334 592.024 669.22 509.567 674.611C523.538 631.78 536.406 558.248 572.89 516.543C603.173 481.929 638.073 465.721 681.493 455.463Z" fill="#F0F6FC" stroke="#0080FF" stroke-width="4.22854"/>
<path d="M608.852 252.238C534.307 240.9 479.619 315.604 498.382 347.359C505.498 359.403 540.56 321.53 590.364 336.711C640.168 351.892 663.297 336.576 668.636 327.02C679.768 306.817 683.397 263.576 608.852 252.238Z" fill="#F0F6FC" stroke="#0080FF" stroke-width="4.22854"/>
<path d="M612.731 307.92C542.819 284.082 484.211 336.361 501.587 348.208C508.178 352.701 544.036 320.806 590.943 335.352C625.719 346.137 651.539 341.407 663.309 331.531C664.044 330.494 668.809 327.519 673.075 311.075C670.847 304.665 647.569 319.8 612.731 307.92Z" fill="#D4E3F3"/>
</g>
<defs>
<clipPath id="clip0_9315_889">
<rect width="720" height="560" fill="white"/>
</clipPath>
</defs>
</svg>
