<svg width="720" height="560" viewBox="0 0 720 560" fill="none" xmlns="http://www.w3.org/2000/svg">
<rect width="720" height="560" fill="white"/>
<path d="M420.745 112.312C429.517 111.822 441.455 112.269 450.52 112.274L511.935 112.319L553.825 112.266C561.279 112.255 569.199 112.089 576.638 112.55C579.159 112.707 582.994 114.519 585.218 115.682C586.719 116.633 587.572 117.185 588.932 118.317C592.747 122.276 594.491 124.293 596.172 129.693C597.309 135.272 597.051 161.091 596.777 167.94C597.094 174.554 596.879 182.264 596.859 188.987L596.887 219.211L596.926 314.157L596.973 379.055L596.879 398.655C596.863 403.608 597.051 409.069 596.504 413.955C595.601 417.947 594.51 419.932 592.442 423.474C594.409 424.443 596.203 425.299 597.669 426.973C603.309 433.407 608.86 440.076 614.372 446.616L641.032 478.119C652.853 492.242 665.283 505.799 677.085 519.945C680.775 524.367 680.4 525.727 680.423 531.352C680.576 533.134 680.669 534.358 680.63 536.141C695.637 543.126 696.216 551.562 679.81 555.991C668.778 558.969 652.165 557.965 640.578 557.961L596.426 557.883L486.632 557.742L189.068 557.875L107.939 557.871C90.8936 557.937 73.9917 558.098 56.7876 557.957C51.7805 557.918 34.8668 557.246 32.2618 550.737C30.7377 546.93 36.2744 544.201 38.3994 542.375C38.6253 542.164 38.5448 539.612 38.5374 539.162C38.2282 533.377 37.2107 526.876 41.1248 522.064C45.0968 517.178 49.2826 512.471 53.4406 507.741L76.764 481.394L103.114 451.631C108.909 445.021 124.214 426.871 130.445 422.782C128.968 420.136 127.493 417.622 127.296 414.542L127.291 414.249C125.968 410.32 126.622 368.849 126.924 361.973C126.525 358.541 126.773 341.149 126.904 337.35C126.805 329.348 126.755 321.346 126.752 313.34C126.742 309.643 126.548 304.029 126.871 300.538C126.568 297.894 126.684 288.18 126.739 285.184C126.849 279.232 126.431 270.927 126.892 265.292C126.401 256.705 126.814 244.679 126.809 235.732L126.779 178.381L126.77 149.876C126.671 138.358 124.871 130.553 131.702 120.516C133.009 119.029 133.463 118.723 135.072 117.504C143.527 111.437 150.309 112.202 160.284 112.265L176.019 112.383C190.199 112.044 204.944 112.346 219.162 112.389L273.957 112.344L312.85 112.315C318.388 112.311 326.509 112.063 331.912 112.37C339.203 112.295 349.069 112.104 356.305 112.432C376.698 112.42 400.747 111.55 420.745 112.312Z" fill="#D4E3F3"/>
<path d="M127.296 414.539C132.541 410.34 130.077 404.66 131.152 399.11C131.259 408.788 129.866 413.667 136.341 421.27L355.214 421.692L476.82 421.673C497.28 421.614 517.807 421.919 538.251 421.454C542.297 421.258 548.262 421.434 552.507 421.395C564.149 421.266 575.786 421.336 587.423 421.606C591.535 417.22 592.388 413.679 592.571 407.897C594.104 410.211 592.063 412.987 593.076 415.059C593.83 414.398 593.627 414.679 594.014 413.78L594.526 415.336C595.37 414.929 595.773 414.539 596.504 413.952C595.601 417.943 594.51 419.929 592.442 423.471C594.409 424.44 596.203 425.296 597.669 426.969C603.309 433.404 608.86 440.072 614.372 446.612L641.032 478.115C652.853 492.239 665.284 505.795 677.085 519.942C680.775 524.363 680.4 525.724 680.423 531.349C680.576 533.131 680.669 534.355 680.63 536.137C695.637 543.123 696.216 551.559 679.81 555.987C668.778 558.966 652.165 557.962 640.578 557.958L596.426 557.879L486.632 557.739L189.068 557.872L107.939 557.868C90.8936 557.934 73.9917 558.094 56.7876 557.954C51.7805 557.915 34.8668 557.242 32.2618 550.734C30.7377 546.926 36.2744 544.198 38.3994 542.372C38.6253 542.161 38.5448 539.609 38.5374 539.159C38.2282 533.374 37.2107 526.873 41.1248 522.061C45.0968 517.175 49.2826 512.468 53.4406 507.738L76.764 481.391L103.114 451.628C108.909 445.017 124.214 426.868 130.445 422.779C128.968 420.132 127.493 417.619 127.296 414.539Z" fill="#D4E3F3"/>
<path d="M592.571 407.899C594.104 410.213 592.063 412.989 593.076 415.061C593.83 414.4 593.627 414.681 594.014 413.782L594.526 415.338C595.37 414.932 595.773 414.541 596.504 413.954C595.601 417.945 594.51 419.931 592.442 423.473C594.409 424.442 596.203 425.298 597.669 426.971C603.309 433.406 608.86 440.075 614.372 446.614L641.032 478.117C652.853 492.241 665.283 505.797 677.085 519.944C680.775 524.365 680.4 525.726 680.423 531.351C680.576 533.133 680.669 534.357 680.63 536.139C695.637 543.125 696.216 551.561 679.81 555.989C668.778 558.968 652.165 557.964 640.578 557.96L596.426 557.881L486.632 557.741L189.068 557.874L107.939 557.87C90.8936 557.936 73.9917 558.096 56.7876 557.956C51.7805 557.917 34.8668 557.244 32.2618 550.736C30.7377 546.928 36.2744 544.2 38.3994 542.374C38.6253 542.163 38.5448 539.611 38.5374 539.161C39.9779 545.943 42.5672 548.39 48.7197 551.373C50.3095 551.115 53.6846 550.927 54.4308 549.5L53.5602 548.476C49.5331 547.413 41.8511 542.406 42.2608 538.031C44.6109 537.691 48.5164 540.818 52.0076 541.346C59.6201 542.503 67.4123 542.101 75.0717 542.202C80.3235 541.698 89.8808 541.944 95.4304 541.913C99.1147 542.034 113.472 542.327 116.642 541.87L240.987 541.976L288.248 541.936C295.711 541.94 305.892 542.296 313.137 541.956C315.561 542.226 325.546 542.241 328.143 542.03C327.816 541.018 327.843 541.514 328.183 540.525C331.518 538.934 348.788 540.689 353.502 538.891L560.587 538.911L628.265 538.782C636.532 538.758 644.804 538.954 653.068 538.966C659.932 538.966 667.605 538.454 673.234 534.005C677.71 530.467 677.3 526.855 673.887 522.868C673.168 521.676 667.523 515.175 666.452 513.928L650.363 495.176L615.404 453.94C583.389 416.413 596.074 426.076 549.349 424.29C548.618 424.415 547.293 424.364 546.499 424.364L538.669 424.415C537.223 424.09 536.906 424.219 536.258 422.965C536.961 421.827 536.836 422.152 538.251 421.456C542.297 421.26 548.262 421.436 552.507 421.397C564.149 421.268 575.786 421.338 587.423 421.608C591.535 417.222 592.388 413.681 592.571 407.899Z" fill="#D4E3F3"/>
<path d="M680.423 531.352C680.576 533.135 680.669 534.358 680.63 536.141C695.637 543.126 696.216 551.562 679.81 555.991C668.778 558.969 652.165 557.965 640.578 557.961L596.426 557.883L486.632 557.742L189.068 557.875L107.939 557.871C90.8936 557.938 73.9917 558.098 56.7876 557.957C51.7805 557.918 34.8668 557.246 32.2618 550.737C30.7377 546.93 36.2744 544.201 38.3994 542.376C38.6253 542.165 38.5448 539.612 38.5374 539.162C39.9779 545.945 42.5672 548.392 48.7197 551.374C55.6547 553.95 68.4873 553.743 76.0349 553.208C80.3403 553.223 85.7 553.106 89.9191 553.305C100.473 553.012 112.631 553.743 122.888 553.192L318.007 553.274L379.532 553.254H399.269C401.771 553.258 406.767 553.125 409.034 553.317L543.63 553.266C560.466 553.27 577.889 553.516 594.667 553.2C613.066 553.849 633.569 553.27 652.176 553.333C658.279 553.622 664.001 553.645 669.666 551.284C680.54 545.839 679.637 542.047 680.423 531.352Z" fill="#D4E3F3"/>
<path d="M122.889 553.188L318.008 553.27L379.533 553.251H399.27C401.772 553.255 406.767 553.122 409.035 553.313L408.632 553.708C402.002 554.373 389.505 553.654 382.219 553.861C369.174 554.24 356.661 554.94 343.593 554.678L344.218 554.514C340.204 554.545 338.739 555.561 335.756 555.542L285.827 554.838C283.455 554.787 281.136 554.584 278.771 554.498C256.848 553.716 234.779 554.115 212.86 554.955C211.219 555.018 211.077 554.119 208.999 554.154L209.545 554.58C208.785 555.526 181.891 554.576 178.336 554.533L108.413 554.037C106.037 554.029 91.1299 554.22 89.92 553.302C100.474 553.009 112.632 553.74 122.889 553.188Z" fill="#D4E3F3"/>
<path d="M666.504 548.124C667.743 548.378 668.935 548.679 670.151 548.934L670.163 549.598L667.638 549.797L667.806 549.817L667.798 550.349C668.38 550.669 669.057 551.087 669.667 551.287C664.002 553.648 658.279 553.624 652.177 553.335C633.57 553.273 613.067 553.851 594.668 553.202C577.89 553.519 560.467 553.273 543.631 553.269L409.035 553.32C406.767 553.128 401.772 553.261 399.27 553.257H379.533L318.008 553.277L122.889 553.194C112.632 553.746 100.475 553.015 89.9202 553.308C85.7011 553.108 80.3414 553.226 76.036 553.21C68.4884 553.746 55.6558 553.953 48.7208 551.377C50.3106 551.119 53.6856 550.931 54.4319 549.504L53.5613 548.48C61.2649 549.837 74.952 549.078 83.4194 549.375C105.814 549.168 128.209 549.133 150.604 549.27C192.912 548.711 235.93 549.262 278.291 549.227L539.437 549.137L623.376 549.227C632.269 549.235 659.593 549.926 666.504 548.124Z" fill="#0080FF"/>
<path d="M594.667 553.197L594.284 553.135C591.915 552.752 589.792 552.92 587.834 552.591C595.855 552.326 648.749 551.661 652.177 553.33C633.57 553.268 613.067 553.846 594.667 553.197Z" fill="#0080FF"/>
<path d="M347.046 549.54C348.67 549.426 349.999 549.242 350.406 551.193C349.495 552.073 349.624 551.768 347.885 551.772L343.934 551.631L347.195 550.411L347.046 549.54Z" fill="#0080FF"/>
<path d="M592.571 407.899C594.103 410.213 592.063 412.989 593.075 415.061C593.83 414.4 593.626 414.681 594.013 413.782L594.525 415.338C595.37 414.932 595.772 414.541 596.503 413.954C595.6 417.945 594.51 419.931 592.442 423.473C594.408 424.442 596.202 425.298 597.668 426.971C603.309 433.406 608.86 440.075 614.372 446.614L641.031 478.117C652.852 492.241 665.283 505.797 677.085 519.944C680.775 524.365 680.399 525.726 680.423 531.351C679.637 542.046 680.54 545.838 669.665 551.283C669.055 551.084 668.379 550.665 667.797 550.345L667.804 549.813L667.636 549.794L670.162 549.594L670.15 548.93C668.934 548.676 667.742 548.375 666.503 548.121C667.535 547.804 668.535 547.409 669.509 546.94C672.941 545.255 677.757 540.901 675.537 536.632C673.715 536.726 670.9 539.474 668.891 540.041C657.328 543.297 643.795 541.917 631.783 541.917L570.352 541.94L328.143 542.03C327.816 541.018 327.843 541.514 328.183 540.525C331.518 538.934 348.787 540.689 353.501 538.891L560.587 538.911L628.264 538.782C636.532 538.758 644.804 538.954 653.067 538.966C659.932 538.966 667.605 538.454 673.234 534.005C677.71 530.467 677.3 526.855 673.887 522.868C673.168 521.676 667.523 515.175 666.452 513.928L650.362 495.176L615.404 453.94C583.389 416.413 596.073 426.076 549.349 424.29C548.618 424.415 547.292 424.364 546.499 424.364L538.669 424.415C537.223 424.09 536.906 424.219 536.257 422.965C536.961 421.827 536.836 422.152 538.251 421.456C542.297 421.26 548.262 421.436 552.507 421.397C564.148 421.268 575.786 421.338 587.423 421.608C591.535 417.222 592.387 413.681 592.571 407.899Z" fill="#0080FF"/>
<path d="M546.5 424.363L544.819 423.737C546.168 422.862 553.458 423.069 554.971 423.663C553.658 423.776 550.413 423.901 549.35 424.288C548.619 424.413 547.294 424.363 546.5 424.363Z" fill="#0080FF"/>
<path d="M127.296 414.539C132.541 410.34 130.077 404.66 131.153 399.11C131.259 408.788 129.867 413.667 136.341 421.27L355.214 421.692L476.821 421.673C497.281 421.614 517.807 421.919 538.252 421.454C536.837 422.15 536.962 421.825 536.258 422.963C536.907 424.217 537.224 424.088 538.67 424.413C538.65 426.246 538.987 426.754 538.127 427.927C536.309 428.33 517.678 427.931 514.649 427.896L465.965 427.693L239.47 427.872C233.283 427.876 189.101 428.517 187.45 427.872C185.771 425.879 187.937 424.362 184.768 424.393C168.282 424.569 151.238 423.662 134.857 425.48C129.546 426.07 117.287 442.703 113.016 446.823C111.605 448.188 104.447 456.209 103.31 457.859L101.231 460.149C93.1808 468.386 84.973 478.71 77.2475 487.333C75.397 489.401 67.0215 498.7 65.9121 500.319L64.2331 502.07C59.8104 507.171 46.3152 521.932 43.3827 526.548C40.9778 531.489 44.1113 534.152 48.4824 536.165C51.3239 537.482 54.3698 538.303 57.4885 538.592C65.2558 539.237 77.7143 538.905 85.7747 538.881L135.715 538.78L274.219 538.807L326.312 538.768C334.997 538.78 344.889 538.592 353.502 538.889C348.788 540.687 331.519 538.932 328.184 540.523C327.844 541.512 327.816 541.016 328.143 542.028C325.547 542.239 315.561 542.224 313.138 541.954C305.892 542.294 295.711 541.938 288.248 541.934L240.987 541.974L116.642 541.868C113.473 542.325 99.1151 542.032 95.4309 541.911C89.8812 541.942 80.324 541.696 75.0721 542.2C67.4128 542.099 59.6205 542.501 52.008 541.344C48.5168 540.816 44.6113 537.689 42.2612 538.029C41.8515 542.404 49.5336 547.411 53.5607 548.474L54.4312 549.498C53.685 550.925 50.3099 551.113 48.7201 551.371C42.5676 548.388 39.9783 545.941 38.5378 539.159C38.2286 533.374 37.2111 526.873 41.1252 522.061C45.0972 517.175 49.283 512.468 53.441 507.738L76.7644 481.391L103.115 451.628C108.91 445.017 124.214 426.868 130.445 422.779C128.968 420.132 127.493 417.619 127.296 414.539Z" fill="#0080FF"/>
<path d="M107.819 541.157C120.15 537.943 136.252 540.344 149.162 540.066C150.896 540.027 153.984 540.578 156.033 540.555L258.976 539.972C275.709 539.914 293.162 538.764 310.09 539.077C312.22 539.116 314.596 539.863 317.092 539.96L317.368 540.535L317.045 541.153C316.409 541.258 313.534 541.665 313.138 541.958C305.892 542.298 295.711 541.942 288.248 541.938L240.987 541.978L116.642 541.872C115.442 541.078 109.834 541.309 107.819 541.157Z" fill="#0080FF"/>
<path d="M75.0721 542.198L73.8712 540.166C77.464 539.521 96.8623 540.033 100.942 540.435L100.95 541.033C101.56 540.932 101.267 541.065 101.776 540.525L101.934 540.846C99.5716 541.737 97.6562 541.307 95.4308 541.909C89.8811 541.94 80.3239 541.694 75.0721 542.198Z" fill="#0080FF"/>
<path d="M64.2332 502.069C63.0304 501.018 63.363 501.643 63.0096 500.256C63.4944 499.149 63.1062 499.517 64.1538 499.063C65.5236 499.466 64.9259 499.11 65.9121 500.318L64.2332 502.069Z" fill="#0080FF"/>
<path d="M188.501 422.061C190.404 421.947 192.397 421.525 194.027 422.303L193.954 423.522C191.546 424.089 189.862 424.222 188.501 422.061Z" fill="#0080FF"/>
<path d="M673.888 522.867C677.3 526.854 677.711 530.466 673.235 534.004C667.606 538.452 659.932 538.964 653.068 538.964C644.804 538.953 636.533 538.757 628.265 538.781L560.588 538.91L353.502 538.89C344.889 538.593 334.997 538.781 326.313 538.769L274.219 538.808L135.715 538.781L85.7749 538.882C77.7144 538.906 65.2559 539.238 57.4886 538.593C54.37 538.304 51.324 537.483 48.4826 536.166C44.1115 534.152 40.978 531.49 43.3828 526.549C45.3706 529.942 46.967 532.397 50.9675 533.718C57.2924 535.806 94.5354 534.958 104.019 534.958L207.497 534.821L487.622 534.747L560.459 534.707C593.502 534.919 626.549 534.958 659.596 534.817C664.686 534.75 672.445 534.07 674.138 528.207C674.697 526.287 674.646 525.302 673.513 523.688L673.888 522.867Z" fill="#D4E3F3"/>
<path d="M103.31 457.859L104.367 458.378C104.64 460.11 103.361 461.13 101.735 461.263L101.231 460.149L103.31 457.859Z" fill="#D4E3F3"/>
<path d="M396.865 489.498L221.2 488.935C219.319 488.916 216.722 489.862 214.589 489.826C206.386 489.694 198.101 489.737 189.894 489.799C187.516 490.092 185.381 488.88 183.081 488.88C181.039 488.88 178.32 489.94 176.225 489.803C166.347 489.15 155.528 490.526 145.908 488.935C143.108 488.474 141.779 489.506 139.027 489.666C129.721 489.553 120.317 489.967 111.062 489.783C109.445 489.752 106.185 486.988 107.258 485.444C118.417 469.425 131.039 454.117 143.364 438.946C144.302 437.793 147.762 434.756 148.225 434.713C155.468 434.025 167.589 434.588 174.511 434.615L212.799 434.642C217.836 434.681 223.007 434.951 228.044 435.072C230.592 435.131 233.449 434.467 236.142 434.553C250.187 434.99 264.152 434.678 278.196 434.568C279.608 434.658 280.996 435.127 282.343 435.487C284.515 436.065 287.064 434.553 289.346 434.603C305.886 434.959 322.317 434.56 338.837 434.674C339.5 434.678 341.256 435.498 341.934 435.819C343.856 435.053 345.325 434.314 347.396 434.529C352.185 435.026 366.707 433.521 370.049 435.463C378.899 433.818 388.84 434.123 397.831 434.924C399.793 436.319 399.527 436.323 401.583 434.662C405.598 434.119 417.329 434.193 421.527 434.533C423.802 434.717 426.085 435.186 428.372 435.166C437.023 435.1 445.849 433.888 454.516 434.506C456.005 434.611 457.127 435.702 458.472 435.96C459.16 436.089 460.196 435.522 460.805 435.264C463.682 434.048 480.452 434.451 484.338 434.764C485.643 434.869 488.263 436.077 489.322 435.901C490.115 435.768 490.362 435.354 490.831 434.795C499.704 433.896 509.145 434.904 518.073 434.951C524.48 434.986 530.859 434.713 537.282 434.799C539.358 434.83 541.758 434.65 543.795 434.994C544.475 435.108 544.783 435.42 545.382 435.725C545.941 436.011 546.234 436.214 546.804 435.975C547.7 435.608 547.129 435.866 547.95 435.299C549.646 434.126 571.74 434.15 574.371 434.85C576.087 435.307 577.776 437.328 578.913 438.645C584.796 445.459 589.976 453.281 595.472 460.446C600.409 466.88 610.94 478.971 614.247 485.745C614.482 486.23 614.408 486.41 614.38 486.93C611.648 491.112 598.291 489.76 593.201 489.705C589.397 489.604 579.648 490.026 576.404 489.107L575.513 488.744C568.996 490.46 550.123 489.369 542.485 489.627C541.906 489.647 539.213 488.728 537.978 488.501C537.509 488.763 537.036 489.009 536.563 489.267C534.057 490.616 508.238 489.654 502.585 489.744C501.315 489.764 500.646 489.721 499.474 489.154C498.7 488.783 498.242 488.552 497.355 488.521C497.054 488.751 495.901 489.557 495.545 489.565C483.955 489.807 472.267 489.725 460.661 489.682C458.851 489.674 458.065 488.501 456.556 488.72C452.858 490.405 435.623 489.623 430.835 489.576L396.865 489.498Z" fill="#0080FF"/>
<path d="M150 436.723H573" stroke="#0080FF" stroke-width="4"/>
<path d="M269.998 475.927L389.259 475.864C409.687 475.896 431.738 475.294 452.05 475.888C452.655 478.155 454.794 484.843 455.009 486.438C449.051 486.133 443.504 486.114 437.543 486.133C380.651 486.423 323.758 486.388 266.867 486.032C267.828 482.678 269.347 479.171 269.998 475.927Z" fill="#D4E3F3"/>
<path d="M571.459 475.959C580.305 475.549 594.081 475.533 602.946 475.928C604.416 477.859 609.381 483.867 609.643 485.806L609.381 486.459C605.499 486.205 599.229 486.201 595.343 486.337C589.488 485.966 583.12 486.502 577.585 486.013C574.422 481.912 573.23 480.873 571.459 475.959Z" fill="#D4E3F3"/>
<path d="M437.544 486.137C443.505 486.118 449.052 486.137 455.009 486.442C455.768 486.872 455.991 487.842 456.557 488.721C452.859 490.406 435.624 489.624 430.836 489.577L396.866 489.499C395.158 489.124 394.192 489.069 392.797 488.092L392.985 487.592C396.737 486.188 400.799 486.974 404.219 486.689C411.537 486.083 431.493 487.639 437.544 486.137Z" fill="#0080FF"/>
<path d="M595.344 486.339C599.229 486.202 605.499 486.206 609.381 486.46L609.362 487.336C606.969 489.498 599.01 487.313 593.202 489.705C589.398 489.603 579.649 490.025 576.404 489.107L576.936 488.419C579.414 488.126 580.153 488.173 582.041 486.613C586.24 486.597 591.22 486.711 595.344 486.339Z" fill="#0080FF"/>
<path d="M517.932 463.937C528.236 463.53 539.674 463.765 550.08 463.753L593.407 463.632C595.819 467.408 597.731 469.711 600.842 472.881C597.61 472.971 594.084 472.869 590.831 472.842C565.927 473.287 538.677 473.029 513.702 472.779C512.392 470.098 511.056 466.744 509.773 463.933C512.404 464.007 515.281 463.945 517.932 463.937Z" fill="#D4E3F3"/>
<path d="M128.972 463.414C133.139 463.895 140.616 463.621 145.116 463.625L179.224 463.602C184.585 463.57 193.833 463.203 198.832 463.676L197.304 466.365C195.751 468.707 194.98 470.603 193.838 473.163C191.43 473.144 188.99 473.089 186.583 473.022C164.931 472.409 143.174 473.214 121.525 472.741C123.679 469.52 126.107 466.049 128.972 463.414Z" fill="#D4E3F3"/>
<path d="M137.377 451.726C141.645 452.273 149.881 452.05 154.39 452.031C163.44 451.976 172.491 452.003 181.54 452.113C184.068 452.019 187.733 451.62 190.021 452.238L190.414 452.75L189.7 454.141C188.181 456.42 186.68 458.441 185.171 460.799C168.594 461.514 148.226 460.732 131.23 460.912C133.431 457.816 135.471 455.025 137.377 451.726Z" fill="#D4E3F3"/>
<path d="M181.54 452.111C184.067 452.017 187.733 451.619 190.02 452.236L190.413 452.748L189.7 454.14L188.221 453.714L187.131 454.437C186.135 454.222 186.246 454.011 185.404 453.073C184.327 452.698 174.463 453.096 172.464 453.128L172.328 452.963C175.595 452.369 177.617 452.596 180.875 452.533L181.54 452.111Z" fill="#D4E3F3"/>
<path d="M366.586 452.167C372.587 452.155 409.945 451.482 412.584 452.632L413.202 454.266L414.433 460.977C410.485 460.934 406.013 460.79 402.112 460.985C399.102 460.747 393.664 460.954 390.4 460.942L366.532 460.821C366.449 458.089 366.555 454.934 366.586 452.167Z" fill="#D4E3F3"/>
<path d="M229.048 475.869C241.099 475.553 254.113 475.787 266.238 475.783C264.6 479.294 263.548 483.183 261.046 486.178C249.623 486.088 234.368 486.721 223.535 486.006C225.348 482.613 227.185 479.235 229.048 475.869Z" fill="#D4E3F3"/>
<path d="M496.323 475.932C507.957 475.577 520.262 475.799 531.95 475.85C532.947 478.954 535.82 483.418 535.711 486.072C526.415 486.01 508.652 486.811 500.334 485.998C498.708 482.765 497.363 479.4 496.323 475.932Z" fill="#D4E3F3"/>
<path d="M458.258 476.226L494.002 476.269C494.503 478.462 497.516 484.97 496.531 486.397C494.647 486.573 492.493 486.64 490.601 486.624C481.098 486.554 471.439 486.909 461.952 486.425C460.521 483.489 459.305 479.4 458.258 476.226Z" fill="#D4E3F3"/>
<path d="M342.55 463.691C354.758 463.339 369.073 463.784 381.48 463.769C381.719 466.869 381.895 469.976 382 473.08L341.879 472.822L342.55 463.691Z" fill="#D4E3F3"/>
<path d="M154.335 475.617C165.122 475.883 175.976 475.469 186.834 475.793C185.6 477.924 181.767 484.725 180.381 486.207C169.457 486.246 158.688 486.015 147.74 486.191C149.626 483.076 152.984 478.576 154.335 475.617Z" fill="#D4E3F3"/>
<path d="M212.441 475.655C215.954 475.534 220.066 475.651 223.624 475.667C222.465 478.728 220.229 482.969 218.743 486.03C211.639 486.163 204.311 486.069 197.19 486.061L186.146 486.104C187.157 483.356 190.03 479.154 191.547 475.702C198.511 475.823 205.477 475.808 212.441 475.655Z" fill="#D4E3F3"/>
<path d="M436 464.211C447.059 463.801 459.607 464.106 470.744 464.165C471.854 467.206 472.718 470.591 473.457 473.742C461.456 473.183 449.604 473.492 437.603 473.511C436.833 470.075 436.446 467.718 436 464.211Z" fill="#D4E3F3"/>
<path d="M118.437 475.841C128.314 475.52 139.307 475.72 149.268 475.692C147.343 478.819 144.301 483.229 142.091 486.075C132.477 486.466 120.527 486.086 110.707 486.024C112.155 483.542 116.322 478.945 118.437 475.841Z" fill="#D4E3F3"/>
<path d="M333.513 452.34C338.597 451.777 356.048 451.813 361.724 452.031C361.735 453.751 361.907 459.92 361.407 461.061C349.75 460.733 337.549 460.956 325.843 461.022C326.161 458.317 326.726 455.229 327.162 452.504C329.548 452.336 331.113 452.289 333.513 452.34Z" fill="#D4E3F3"/>
<path d="M333.512 452.34C338.596 451.777 356.047 451.813 361.723 452.031C361.734 453.751 361.906 459.92 361.406 461.061C360.773 459.951 360.628 458.372 360.061 457.055C359.393 455.495 358.681 454.103 357.915 452.594C351.45 452.512 339.432 452.895 333.512 452.34Z" fill="#D4E3F3"/>
<path d="M417.47 451.983C429.072 451.948 440.67 452.058 452.268 452.316C452.866 455.173 453.523 458.093 453.922 460.978C446.592 460.853 439.259 460.826 431.929 460.892C429.396 460.904 420.71 461.06 418.685 460.575C418.15 458.261 417.779 454.454 417.47 451.983Z" fill="#D4E3F3"/>
<path d="M473.861 463.817C483.935 464.259 495.087 463.332 505.669 463.817C506.815 466.491 508.351 469.813 509.144 472.538L508.753 473.097C499.215 472.577 486.167 473.046 476.41 473.121C475.022 469.786 474.577 467.339 473.861 463.817Z" fill="#D4E3F3"/>
<path d="M238.266 463.882C248.88 463.55 260.633 463.859 271.323 464.035C270.625 466.091 268.965 472.04 267.359 472.881C256.417 473.244 245.04 472.349 234.046 473.096C235.769 470.387 237.247 466.931 238.266 463.882Z" fill="#D4E3F3"/>
<path d="M233.527 452.172C243.406 451.907 256.173 451.797 265.977 452.282C265.371 454.745 264.563 460.272 261.807 460.85C251.114 460.991 240.167 460.827 229.385 460.94C230.318 458.4 232.182 454.51 233.527 452.172Z" fill="#D4E3F3"/>
<path d="M195.615 452.177C206.356 451.758 217.538 452.247 228.508 451.883C227.569 454.088 225.535 459.627 223.516 460.734C213.489 460.937 199.777 461.011 189.937 460.651C191.766 457.61 193.535 455.038 195.615 452.177Z" fill="#D4E3F3"/>
<path d="M201.618 466.573C202.164 465.674 202.898 464.024 203.824 463.958C212.7 463.344 225.085 463.77 233.776 463.754C232.664 466.233 231.246 470.525 230.677 473.163C219.705 472.745 208.724 472.632 197.746 472.819L200.511 468.523L201.618 466.573Z" fill="#D4E3F3"/>
<path d="M300.005 452.204C306.886 451.86 315.463 452.153 322.357 452.384C321.958 455.273 321.512 458.154 321.021 461.031C317.759 460.988 314.497 460.917 311.236 460.82C303.453 460.726 295.926 461.054 288.037 460.773C288.564 457.282 289.036 455.808 290.112 452.4C293.382 452.294 296.727 452.267 300.005 452.204Z" fill="#D4E3F3"/>
<path d="M456.342 451.632C463.288 452.758 480.109 451.886 488.443 452.265L491.394 460.869L458.234 460.807L456.342 451.632Z" fill="#D4E3F3"/>
<path d="M485.226 454.063C485.48 454.149 485.906 454.435 486.156 454.583C486.41 455.721 485.628 457.077 485.136 458.23L484.983 458.367L484.6 458.078C484.483 456.698 484.901 455.42 485.226 454.063Z" fill="#D4E3F3"/>
<path d="M399.708 463.886C408.863 463.475 420.59 463.749 429.936 463.706C430.175 465.539 431.207 471.747 430.519 472.982C420.32 472.787 410.118 472.787 399.915 472.978C399.551 470.132 399.141 466.712 399.708 463.886Z" fill="#D4E3F3"/>
<path d="M308.028 463.855C317.257 463.487 328.719 463.761 338.049 463.929C337.933 465.7 337.718 471.872 336.745 473.111C326.462 472.92 316.79 472.764 306.5 472.982C306.951 469.765 307.376 467.033 308.028 463.855Z" fill="#D4E3F3"/>
<path d="M275.76 463.452C285.176 463.452 294.652 463.749 304.176 463.734C303.792 465.782 302.909 471.665 301.557 472.998C292.174 473.221 282.085 473.022 272.59 473.116C273.53 470.023 274.672 466.478 275.76 463.452Z" fill="#D4E3F3"/>
<path d="M578.151 451.797C580.125 451.766 581.896 451.629 583.858 451.476C586.243 454.42 589.151 457.801 591.141 460.96C583.964 461.139 575.798 460.881 568.55 460.823L560.189 460.756L555.557 451.981C562.574 452.153 571.158 452.02 578.151 451.797Z" fill="#D4E3F3"/>
<path d="M524.136 452.121C532.888 452.183 541.636 452.172 550.385 452.078C551.722 455.178 554.243 458.281 556.299 461.022C546.871 460.951 537.438 460.943 528.01 461.01C525.942 457.84 524.988 455.799 524.136 452.121Z" fill="#D4E3F3"/>
<path d="M494.252 452.221C501.921 451.818 511.506 452.17 519.461 452.076C520.626 454.824 521.858 457.619 522.854 460.426L522.471 460.993C513.516 460.879 504.564 460.813 495.608 460.797C494.94 458.999 493.021 453.667 494.252 452.221Z" fill="#D4E3F3"/>
<path d="M571.482 444.383L578.491 444.234C579.66 445.661 580.852 447.295 581.978 448.773C570.078 449.136 558.171 449.285 546.268 449.226L538.951 449.07L536.988 444.527C547.809 444.848 560.56 444.457 571.482 444.383Z" fill="#D4E3F3"/>
<path d="M342.808 444.685C347.629 444.47 376.355 444.051 379.205 445.064C379.787 446.276 379.541 447.808 379.467 449.208C375.35 449.235 344.915 449.598 343.108 448.774C342.435 447.566 342.716 446.119 342.808 444.685Z" fill="#D4E3F3"/>
<path d="M218.871 449.267C218.717 448.497 218.665 447.977 218.574 447.199L217.605 447C217.48 446.05 218.035 445.448 218.562 444.397C216.822 443.967 215.848 443.955 214.955 442.587L215.278 441.946C217.71 441.297 223.677 442.258 226.406 442.618L226.636 443.142L225.329 443.841C225.93 444.678 225.633 444.299 227.206 444.565C234.34 444.608 242.367 444.432 249.394 444.721L247.793 448.896L218.871 449.267Z" fill="#D4E3F3"/>
<path d="M218.871 449.267C218.717 448.497 218.665 447.977 218.574 447.199L217.605 447C217.48 446.05 218.035 445.448 218.562 444.397C216.822 443.967 215.848 443.955 214.955 442.587L215.278 441.946C217.71 441.297 223.677 442.258 226.406 442.618L226.636 443.142L225.329 443.841C225.93 444.678 225.633 444.299 227.206 444.565C221.745 444.443 220.425 443.447 218.871 449.267Z" fill="#0080FF"/>
<path d="M206.188 444.367C209.357 444.285 212.705 444.316 215.89 444.297C215.385 445.759 214.91 447.393 214.443 448.882C207.223 449.32 199.933 449.288 192.696 449.328C189.018 449.331 185.284 449.253 181.602 449.21L183.415 444.656C190.554 444.375 198.867 444.543 206.188 444.367Z" fill="#D4E3F3"/>
<path d="M445.865 444.548C449.864 444.567 453.867 444.622 457.87 444.716L458.675 444.724C461.615 444.7 466.947 444.505 469.628 444.681L476.489 444.603L477.9 448.985C475.093 449.692 451.912 449.227 447.417 449.192C446.862 447.765 446.346 446.025 445.865 444.548Z" fill="#D4E3F3"/>
<path d="M469.629 444.672L476.489 444.594L477.901 448.976C474.805 448.518 468.151 449.472 465.892 448.409C464.997 447.322 464.207 446.822 464.211 445.743C465.446 445.102 467.495 445.18 468.961 445.11L469.629 444.672Z" fill="#D4E3F3"/>
<path d="M457.869 444.711L458.674 444.719C460.058 445.504 462.372 445.426 462.051 447.604C458.768 451.29 451.004 446.548 449.214 447.072L448.811 447.701C447.568 446.353 447.885 447.095 447.502 445.544C448.643 444.668 455.289 445.34 457.869 444.711Z" fill="#D4E3F3"/>
<path d="M279.025 451.984C281.425 452.043 283.825 452.078 286.225 452.09C285.465 454.928 284.561 457.785 284.473 460.713C279.163 460.709 272.805 460.541 267.58 460.756C268.696 458.008 269.507 455.952 270.354 453.122L270.802 452.606C272.314 452.012 277.16 452.039 279.025 451.984Z" fill="#D4E3F3"/>
<path d="M404.461 444.538C408.793 444.616 427.282 443.799 429.366 445.476C429.925 446.934 429.839 446.981 429.788 448.49C429.546 448.654 429.299 448.822 429.057 448.986C422.627 448.811 405.755 449.8 400.318 448.814C399.567 447.716 399.528 446.109 399.81 444.847L400.951 444.464C402.049 444.53 403.39 444.675 404.461 444.538Z" fill="#D4E3F3"/>
<path d="M536.547 475.477C543.97 475.2 558.52 475.031 566.502 475.774C566.756 475.989 567.006 476.208 567.256 476.423C567.647 477.85 567.655 477.744 567.378 479.191C562.429 479.335 541.887 479.691 537.923 478.831C536.84 477.94 536.844 476.9 536.547 475.477Z" fill="#D4E3F3"/>
<path d="M539.804 482.221C549.811 482.464 560.604 482.139 570.764 482.225L572.288 486.134C561.925 486.158 551.562 486.076 541.203 485.888L539.804 482.221Z" fill="#D4E3F3"/>
<path d="M508.535 444.359C516.428 444.566 524.5 444.285 532.345 444.765C532.943 446.392 533.588 447.799 534.296 449.37C526.259 449.499 517.78 449.308 509.712 449.253C509.161 447.576 508.887 446.079 508.535 444.359Z" fill="#D4E3F3"/>
<path d="M253.459 444.713C261.897 444.545 270.338 444.518 278.777 444.631C278.784 446.113 278.769 447.59 278.731 449.072C277.167 449.068 271.713 448.943 270.523 449.216C265.027 449.04 258.697 449.216 253.174 449.287C253.184 447.496 253.238 446.488 253.459 444.713Z" fill="#D4E3F3"/>
<path d="M480.519 444.421L503.168 444.648C503.731 446.051 504.271 447.662 504.791 449.1C497.614 449.425 488.553 449.397 481.403 449.206C481.039 447.728 480.781 445.946 480.519 444.421Z" fill="#D4E3F3"/>
<path d="M430.679 437.607C434.256 437.541 454.309 437.15 456.541 437.943C457.347 439.061 457.272 440.168 457.405 441.579C453.856 441.528 432.892 441.7 431.14 441.266C430.437 440.156 430.652 438.987 430.679 437.607Z" fill="#D4E3F3"/>
<path d="M461.353 437.707C465.153 437.571 485.128 436.64 487.302 438.321C487.888 439.642 487.751 440.088 487.657 441.515C481.614 441.46 469.187 441.702 462.628 441.28C462.346 441.034 462.065 440.788 461.779 440.537C461.26 439.181 461.213 439.236 461.353 437.707Z" fill="#D4E3F3"/>
<path d="M549.021 437.694C553.861 437.483 573.164 436.119 575.834 439.637C574.774 442.686 554.15 441.685 550.409 441.411L549.021 437.694Z" fill="#D4E3F3"/>
<path d="M371.289 437.414C375.319 437.547 395.021 437.187 397.354 437.766C397.972 438.868 397.808 440.099 397.812 441.413C389.325 441.467 380.843 441.456 372.356 441.385L371.289 437.414Z" fill="#D4E3F3"/>
<path d="M143.799 444.185C150.187 444.314 158.303 443.943 164.509 444.443C163.618 446.01 162.873 447.558 161.64 448.852C155.44 449.376 146.91 449.149 140.631 449.032L143.799 444.185Z" fill="#D4E3F3"/>
<path d="M316.518 444.58C321.803 444.545 334.116 444.154 338.917 444.709L338.238 448.599C335.826 449.435 319.69 449.428 316.972 448.896C316.368 447.77 316.529 445.929 316.518 444.58Z" fill="#D4E3F3"/>
<path d="M338.918 444.711L338.239 448.6C336.685 448.483 335.057 448.237 334.143 446.798L334.577 446.052C336.239 444.86 336.847 444.914 338.918 444.711Z" fill="#D4E3F3"/>
<path d="M491.283 437.261C494.989 437.3 514.655 436.949 516.528 438.422C517.368 439.751 517.278 439.783 517.341 441.299C513.24 441.464 494.383 442.241 492.03 440.494C491.33 439.192 491.393 438.715 491.283 437.261Z" fill="#D4E3F3"/>
<path d="M228.789 437.483C230.168 437.416 234.143 437.311 235.455 437.432C238.805 437.752 251.842 436.576 253.514 438.53C253.6 439.945 253.688 439.973 253.092 441.31C249.757 441.497 230.466 441.927 228.317 441.036C227.887 439.879 228.426 438.749 228.789 437.483Z" fill="#D4E3F3"/>
<path d="M401.639 440.955C401.967 439.181 401.717 438.966 402.702 437.758C406.701 437.304 422.806 437.074 426.422 437.871C427.399 438.653 427.106 438.16 427.329 439.403C426.75 440.459 426.281 441.342 424.835 441.499C420.226 441.991 407.756 440.779 403.687 441.585L401.639 440.955Z" fill="#D4E3F3"/>
<path d="M285.424 437.471C288.697 437.456 308.316 437.034 310.096 437.933C310.477 439.09 310.089 440.083 309.816 441.314C306.691 441.482 287.166 442.006 285.642 440.888C285.057 439.747 285.31 438.785 285.424 437.471Z" fill="#D4E3F3"/>
<path d="M286.013 438.35C288.433 438.397 292.476 437.732 292.668 440.515C289.881 440.383 288.218 441.516 286.208 440.066L286.013 438.35Z" fill="#D4E3F3"/>
<path d="M343.393 437.411C347.747 437.36 363.99 437.055 367.239 437.951C368.044 439.467 367.743 439.475 367.723 441.453C364.412 441.473 345.215 442.004 343.594 440.847C342.953 439.753 343.255 438.732 343.393 437.411Z" fill="#D4E3F3"/>
<path d="M257.503 437.545C261.512 437.526 279.386 436.834 281.543 438.323C282.128 439.641 282.022 440.063 281.991 441.482C278.748 441.486 258.476 441.904 257.077 440.88C256.836 439.512 257.135 438.878 257.503 437.545Z" fill="#D4E3F3"/>
<path d="M315.582 437.624C318.509 437.362 337.954 437.073 339.468 438.171C340.138 439.645 339.849 439.606 339.687 441.478C336.016 441.49 317.675 441.9 315.407 440.9C314.872 439.758 315.274 438.902 315.582 437.624Z" fill="#D4E3F3"/>
<path d="M148.593 437.64C152.33 437.401 167.034 436.995 170.389 437.593C171.267 438.539 170.907 437.992 170.981 439.708C170.266 441.131 170.796 440.529 169.047 441.287C164.655 441.432 150.565 441.764 146.6 441.287L146.44 440.529C147.085 439.016 147.395 438.84 148.593 437.64Z" fill="#D4E3F3"/>
<path d="M201.786 437.591C208.255 437.262 215.695 437.454 222.241 437.551C223.809 437.575 224.085 437.645 224.819 438.529C224.843 439.877 224.609 440.151 224.023 441.343C216.999 441.203 209.979 441.523 202.965 441.41C201.405 441.386 201.589 441.496 200.9 440.718C200.901 439.166 201.106 438.947 201.786 437.591Z" fill="#D4E3F3"/>
<path d="M520.543 437.614C525.547 437.513 539.791 437.016 543.849 438.052C544.842 439.413 544.545 439.44 544.783 441.379C537.137 441.324 529.487 441.332 521.841 441.406C521.36 440.108 520.965 438.936 520.543 437.614Z" fill="#D4E3F3"/>
<path d="M174.723 437.615C181.293 437.142 190.555 437.459 197.302 437.513L195.84 441.031C192.908 441.121 175.38 441.704 173.952 440.899C173.888 439.597 174.281 438.838 174.723 437.615Z" fill="#D4E3F3"/>
<path d="M386.303 463.854C389.227 463.827 392.151 463.85 395.075 463.924C395.134 466.848 395.31 469.952 395.439 472.892L386.174 472.72C386.033 470.175 385.811 466.281 386.303 463.854Z" fill="#D4E3F3"/>
<path d="M294.724 444.562C297.471 444.641 310.257 444.32 311.97 445.024C312.546 446.505 312.254 447.697 312.093 449.308C308.696 449.296 297.697 449.449 294.824 448.827C294.286 447.561 294.596 445.989 294.724 444.562Z" fill="#D4E3F3"/>
<path d="M383.914 444.462L395.712 444.575C395.794 446.021 396.028 447.679 396.196 449.137C393.562 449.407 387.366 449.203 384.469 449.192L383.914 444.462Z" fill="#D4E3F3"/>
<path d="M169.015 444.553C172.785 444.378 176.574 444.518 180.349 444.6C178.592 446.156 178.128 446.785 176.724 448.607C175.337 449.444 168.809 449.256 166.743 449.268C167.538 447.294 167.955 446.398 169.015 444.553Z" fill="#D4E3F3"/>
<path d="M433.528 444.531C436.276 444.871 438.962 444.547 441.679 444.832C444.356 445.118 444.45 446.814 444.654 449.05L434.459 449.195C433.966 447.365 433.782 446.412 433.528 444.531Z" fill="#D4E3F3"/>
<path d="M282.79 444.601L291.761 444.515C291.278 445.922 290.857 447.646 290.461 449.104C287.579 449.143 284.545 449.069 281.65 449.041L282.79 444.601Z" fill="#D4E3F3"/>
<path d="M376.234 486.985C378.392 486.75 389.162 485.749 389.384 488.146C386.007 488.65 378.928 490.073 376.234 486.985Z" fill="#0080FF"/>
<path d="M550.408 441.414L551.366 442.52L550.674 443.396C549.036 444.107 546.769 444.044 545.025 443.775C545.581 441.375 548.692 442.27 549.021 437.696L550.408 441.414Z" fill="#0080FF"/>
<path d="M345.219 442.095L346.675 442.384C348.455 442.724 348.461 442.638 350.047 443.525L349.918 443.877L349.269 443.521C347.786 443.991 344.797 444.409 343.568 443.291C344.072 442.263 343.775 442.74 345.219 442.095Z" fill="#0080FF"/>
<path d="M433.492 442.311C435.056 442.19 435.814 442.053 436.909 442.874L436.921 444.023C435.193 444 434.294 444.379 433.27 443.527L433.492 442.311Z" fill="#0080FF"/>
<path d="M287.356 450.719C288.274 450.801 288.607 450.891 289.508 451.11L289.648 451.649C288.996 452.388 289.02 452.111 288.781 453.104C288.154 454.124 288.499 453.846 287.531 454.394C287.189 453.17 287.321 452.001 287.356 450.719Z" fill="#0080FF"/>
<path d="M283.903 440.164C284.846 441.087 285.743 441.794 286.299 442.975C285.18 443.237 285.261 443.217 284.149 442.9C283.472 441.657 283.724 441.884 283.903 440.164Z" fill="#0080FF"/>
<path d="M302.511 495.988L392.104 496.051L417.958 496.117C421.52 496.117 435.748 495.543 437.551 497.208C440.701 500.116 445.404 518.77 447.206 523.696C447.546 524.622 446.639 526.334 446.061 526.948C443.113 528.199 417.728 527.832 412.857 527.785L323.646 527.652C318.126 527.66 272.488 528.547 270.005 526.784C269.857 526.287 269.715 525.822 269.687 525.302C269.538 522.437 278.045 499.065 279.934 497.513C282.833 495.132 298.286 496.035 302.511 495.988Z" fill="#0080FF"/>
<path d="M420.745 112.312C429.517 111.822 441.456 112.269 450.521 112.274L511.936 112.319L553.825 112.266C561.28 112.255 569.199 112.089 576.638 112.55C579.16 112.707 582.994 114.519 585.219 115.682C586.72 116.633 587.572 117.185 588.932 118.317C592.747 122.276 594.491 124.293 596.172 129.693C597.309 135.272 597.051 161.091 596.778 167.94C595.859 169.254 596.383 181.677 596.195 184.609L595.734 182.602L595.636 184.044L595.398 184.234L595.011 182.377L594.933 182.816C594.518 185.017 594.045 186.401 593.349 188.523L593.088 188.494C593.005 184.845 593.326 171.084 592.591 168.761C592.001 157.727 592.779 144.63 592.333 133.077C588.221 114.191 572.639 116.165 557.676 116.243C549.033 116.3 540.386 116.312 531.743 116.282L446.111 116.195C432.758 116.197 415.535 116.846 402.643 116.189C398.644 116.263 380.826 115.991 378.5 116.579C378.305 115.449 377.762 114.598 377.23 113.573C378.055 113.614 378.512 113.624 379.321 113.556L380.005 113.496L379.947 113.535L380.85 113.329C373.497 112.309 358.916 114.059 350.609 113.014C352.552 112.565 354.53 113.016 356.305 112.432C376.698 112.42 400.747 111.55 420.745 112.312Z" fill="#0080FF"/>
<path d="M356.305 112.432C376.698 112.42 400.747 111.55 420.746 112.312C419.585 113.218 419.342 113.227 417.974 113.628L417.79 113.922C420.394 114.976 432.77 114.5 433.485 115.232C431.714 115.646 423.943 115.445 421.453 115.473C407.963 115.622 396.838 114.56 383.273 115.526C388.082 116.214 399.91 115.363 402.643 116.189C398.644 116.263 380.826 115.991 378.5 116.579C378.305 115.449 377.762 114.598 377.23 113.573C378.055 113.614 378.512 113.624 379.321 113.556L380.005 113.496L379.947 113.535L380.85 113.329C373.497 112.309 358.916 114.059 350.609 113.014C352.552 112.565 354.53 113.016 356.305 112.432Z" fill="#0080FF"/>
<path d="M585.219 115.687C586.72 116.637 587.572 117.19 588.933 118.322C588.859 119.39 588.862 119.372 588.495 120.377C587.342 120.239 584.215 118.658 583.167 118.019C584.879 116.805 584.629 117.358 585.219 115.687Z" fill="#0080FF"/>
<path d="M592.591 168.76C593.326 171.082 593.005 184.843 593.087 188.492L593.349 188.521C594.045 186.399 594.518 185.016 594.932 182.814L595.011 182.375L595.398 184.233L595.636 184.042L595.734 182.6L596.195 184.608C596.383 181.675 595.859 169.252 596.777 167.938C597.094 174.552 596.879 182.262 596.86 188.986L596.887 219.209L596.926 314.156L596.973 379.054L596.879 398.654C596.863 403.606 597.051 409.067 596.504 413.954C595.773 414.54 595.37 414.931 594.526 415.337L594.014 413.782C593.627 414.681 593.83 414.399 593.076 415.06C592.063 412.988 594.104 410.213 592.571 407.899C592.165 402.004 592.528 390.98 592.532 384.765L592.661 337.485L592.614 296.4C592.622 290.144 592.434 282.602 592.818 276.485C592.2 269.152 592.653 253.213 592.669 245.437L592.591 168.76Z" fill="#0080FF"/>
<path d="M592.669 245.436C593.428 241.524 592.99 235.108 593.056 230.995C593.228 220.405 592.693 209.676 593.134 199.094C593.6 204.599 593.494 211.944 593.588 217.637C593.85 231.44 593.869 245.247 593.654 259.051C593.607 262.997 593.557 266.993 593.557 270.934C593.557 273.304 594.557 280.166 594.37 281.932C593.729 287.996 593.557 293.984 593.103 299.996C593.045 294.161 593.346 281.442 592.818 276.484C592.2 269.15 592.654 253.211 592.669 245.436Z" fill="#0080FF"/>
<path d="M176.019 112.385C190.199 112.045 204.944 112.348 219.162 112.391L273.957 112.345L312.85 112.316C318.388 112.313 326.509 112.065 331.912 112.371L334 112.937C332.085 113.348 325.243 113.09 323.176 112.937L323.186 113.134C327.341 114.598 330.141 112.912 331.178 113.849L330.568 114.505C331.363 114.949 331.71 115.049 332.577 115.354L332.507 115.628C335.676 115.75 339.178 115.173 341.693 116.379C338.637 116.775 323.443 116.326 319.392 116.288L277.266 116.249L201.082 116.263C190.434 116.259 174.811 116.843 164.664 116.239C153.818 116.425 146.709 115.046 137.535 121.614C136.654 122.587 135.787 123.574 134.936 124.574C134.671 124.19 132.072 120.953 131.702 120.518C133.009 119.03 133.463 118.724 135.072 117.506C143.527 111.439 150.309 112.204 160.284 112.267L176.019 112.385Z" fill="#0080FF"/>
<path d="M135.072 117.506C143.527 111.439 150.309 112.204 160.284 112.267L176.019 112.385C173.654 113.013 171.045 112.881 168.601 112.902C171.225 113.302 175.474 113.333 177.579 113.959C173.441 114.453 167.956 115.376 163.916 114.96C162.693 114.833 159.4 115.34 157.988 115.483L158.003 115.698C159.935 115.953 163.229 115.907 164.664 116.239C153.818 116.425 146.709 115.046 137.535 121.614C136.654 122.587 135.787 123.574 134.936 124.574C134.671 124.19 132.072 120.953 131.702 120.518C133.009 119.03 133.463 118.724 135.072 117.506Z" fill="#0080FF"/>
<path d="M126.892 265.292C126.401 256.705 126.815 244.679 126.809 235.732L126.779 178.381L126.771 149.876C126.671 138.358 124.872 130.553 131.703 120.516C132.073 120.951 134.671 124.189 134.936 124.572C133.578 126.816 132.025 129.614 131.829 132.239C131.213 140.465 131.574 149.291 131.476 157.556L131.291 213.867C131.314 222.678 131.738 236.17 131.235 244.681C131.372 253.579 131.402 262.478 131.326 271.377L130.76 271.214L130.641 274.719C130.271 273.885 130.43 273.78 129.894 273.528C128.998 275.231 129.354 281.042 128.859 283.56C128.571 282.53 128.626 282.578 127.928 281.78L127.8 281.814C127.215 278.287 128.058 266.779 126.892 265.292Z" fill="#0080FF"/>
<path d="M331.912 112.373C339.203 112.298 349.069 112.107 356.305 112.436C354.53 113.02 352.552 112.568 350.609 113.017C358.916 114.062 373.497 112.312 380.849 113.333L379.946 113.539L380.005 113.5L379.321 113.559C378.512 113.627 378.054 113.617 377.23 113.577C377.761 114.601 378.305 115.452 378.5 116.582L378.203 118.42L377.976 118.7C377.492 119.831 376.217 122.37 374.806 122.553C367.203 123.489 359.252 122.911 351.582 122.994C344.8 123.068 343.444 123.185 341.693 116.381C339.178 115.175 335.676 115.751 332.507 115.63L332.577 115.356C331.71 115.05 331.363 114.951 330.568 114.507L331.178 113.851C330.141 112.914 327.341 114.599 323.186 113.136L323.176 112.938C325.243 113.091 332.085 113.349 334 112.939L331.912 112.373Z" fill="#0080FF"/>
<path d="M126.905 337.35C127.569 335.56 128.175 333.812 128.682 331.967C128.993 330.838 128.533 328.426 129.48 327.968C131.773 332.225 129.205 337.784 131.238 342.436C131.588 353.952 131.285 366.367 131.311 377.938C131.323 383.012 131.575 394.293 131.153 399.113C130.078 404.664 132.542 410.344 127.297 414.542L127.292 414.249C125.969 410.32 126.623 368.849 126.924 361.973C126.526 358.541 126.774 341.15 126.905 337.35Z" fill="#0080FF"/>
<path d="M126.872 300.542C128.326 296.824 126.674 292.256 127.62 288.813C128.094 289.705 129.603 307.25 130.271 310.006C130.975 312.906 129.643 319.712 131.235 322.808C131.39 328.003 131.526 337.209 131.238 342.439C129.205 337.787 131.773 332.229 129.48 327.972C128.532 328.429 128.992 330.841 128.681 331.971C128.174 333.816 127.568 335.563 126.904 337.354C126.805 329.352 126.755 321.35 126.752 313.344C126.743 309.646 126.548 304.033 126.872 300.542Z" fill="#0080FF"/>
<path d="M126.893 265.288C128.059 266.775 127.216 278.283 127.801 281.81L127.929 281.776C128.627 282.574 128.572 282.526 128.86 283.556C129.355 281.038 129 275.227 129.895 273.524C130.431 273.776 130.272 273.881 130.642 274.715L130.761 271.21L131.327 271.373C131.295 273.3 131.304 275.5 131.216 277.404C131.307 286.599 131.345 295.795 131.33 304.991C131.338 310.467 131.518 317.449 131.236 322.8C129.645 319.704 130.977 312.899 130.273 309.998C129.604 307.242 128.095 289.697 127.621 288.806C126.675 292.249 128.328 296.816 126.873 300.534C126.569 297.89 126.685 288.176 126.741 285.18C126.851 279.228 126.433 270.923 126.893 265.288Z" fill="#0080FF"/>
<path d="M377.976 118.694L378.203 118.413C379.18 118.835 379.915 119.12 380.826 119.692L380.889 120.317C379.739 120.526 379.782 120.44 378.676 119.985C378.371 119.475 378.199 119.245 377.976 118.694Z" fill="#D4E3F3"/>
<path d="M147.769 163.943C147.71 157.968 147.525 151.872 147.77 145.91C148.041 139.313 150.205 136.151 156.884 135.942C167.004 135.625 177.052 135.787 187.152 135.829C205.583 135.833 224.013 135.934 242.443 136.131C254.506 136.161 266.568 136.109 278.63 135.974C285.529 135.904 295.745 135.604 302.451 136.117C306.755 135.778 315.31 136.014 319.837 136.013L357.099 136.086L493.888 135.913L495.323 135.939C511.803 136.072 528.28 136.061 544.761 135.905C553.142 135.885 561.628 135.594 569.954 136.353C574.747 136.79 576.166 140.798 576.451 144.91C576.967 152.329 576.834 159.831 576.854 167.252L576.912 208.552C577.323 219.846 577.061 232.527 577.088 243.918L577.03 321.748L577.065 367.437C577.1 376.561 577.241 386.029 576.744 395.109C576.424 400.93 570.634 403.807 565.365 403.799C554.424 403.784 543.447 403.795 532.502 403.76C531.009 403.764 528.882 403.795 527.424 403.627C515.798 404.116 502.371 403.74 490.608 403.717L423.357 403.764L228.872 403.701L179.643 403.705C171.836 403.729 163.647 404.022 155.883 403.588C151.912 403.365 147.809 397.689 147.833 393.593C147.518 386.212 147.829 376.549 147.812 368.973L147.814 314.032L147.809 261.718C147.78 250.201 147.538 237.115 147.98 225.677C147.537 222.585 147.826 208.492 147.836 204.43L147.769 163.943Z" fill="white"/>
<path d="M153.417 163.021L472.529 163.079L544.232 163.049C547.52 163.048 568.422 163.409 570.439 162.781C571.037 162.953 572.206 163.106 572.468 163.657C573.543 165.909 573.738 175.061 572.604 177.154L572.296 177.229C569.653 176.951 563.778 177.115 560.908 177.107L538.584 177.06L467.955 177.011L237.789 177.067C223.355 177.036 207.328 176.655 193.061 177.111C185.303 176.521 172.142 177.025 163.914 176.968C160.673 176.982 154.999 176.841 151.985 177.287C151.344 175.83 151.528 168.466 151.48 166.293L151.827 163.417L153.417 163.021Z" fill="white"/>
<path d="M219.681 139.658L276.27 139.683C286.331 139.693 299.094 140.069 308.928 139.659C321.568 140.019 335.426 139.666 348.165 139.677C366.477 139.83 384.791 139.878 403.101 139.819C416.528 139.715 432.805 139.235 446.092 139.654C450.138 140.042 450.314 140.333 453.32 142.984C456.021 146.087 454.149 151.549 455.103 154.538C454.915 155.895 454.712 157.848 453.394 158.406C448.872 160.321 438.165 159.249 433.102 159.406C420.984 159.025 408.855 158.922 396.733 159.096C389.778 159.27 382.16 159.117 375.135 159.146C373.102 158.861 369.674 158.98 367.493 158.994L292.038 158.945C277.14 159.009 257.77 159.776 243.19 159.15C237.252 159.368 202.056 159.957 199.528 157.988C198.399 157.109 197.919 155.73 197.705 154.381C197.632 150.778 196.895 145.455 198.941 142.855C205.024 138.162 211.623 140.208 219.201 139.695L219.681 139.658Z" fill="white"/>
<path d="M219.682 139.658L276.27 139.683C286.331 139.693 299.095 140.069 308.928 139.659C321.568 140.019 335.426 139.666 348.165 139.677C366.477 139.83 384.791 139.878 403.101 139.819C416.528 139.715 432.805 139.235 446.092 139.654C450.138 140.042 450.314 140.333 453.32 142.984C448.809 142.387 438.184 142.052 433.724 142.906C432.508 144.221 432.704 144.782 432.77 146.633C432.79 147.071 432.809 147.508 432.833 147.945C432.587 146.168 432.36 146.195 430.867 145.556C429.69 141.687 423.396 142.626 419.671 142.599C374.275 142.266 328.818 142.822 283.426 142.553L229.537 142.249C222.763 142.199 204.393 141.35 198.941 142.855C205.025 138.162 211.623 140.208 219.201 139.695L219.682 139.658Z" fill="#D4E3F3"/>
<path d="M432.833 147.939C432.809 147.501 432.79 147.064 432.77 146.626C432.704 144.775 432.508 144.215 433.724 142.9C438.184 142.045 448.809 142.38 453.32 142.978C456.021 146.08 454.149 151.542 455.103 154.532C454.915 155.889 454.712 157.842 453.394 158.399C448.872 160.314 438.165 159.242 433.102 159.399C420.984 159.019 408.855 158.915 396.733 159.09C389.778 159.263 382.16 159.11 375.135 159.139C373.102 158.854 369.674 158.973 367.493 158.987L292.038 158.938C277.14 159.002 257.77 159.769 243.19 159.143C246.746 158.091 270.894 158.458 276.187 158.426L377.058 158.487L408.327 158.445C414.652 158.478 421.152 158.612 427.477 158.434C428.959 158.392 429.526 158.164 430.632 157.266C433.454 156.148 432.801 150.553 432.833 147.939Z" fill="#D4E3F3"/>
<path d="M436.276 145.961C438.918 146.301 442.198 146.218 443.766 148.511C442.82 149.933 442.026 148.961 440.341 150.371L440.631 151.032C442.855 151.378 443.175 151.074 444.231 153.074C444.391 154.413 444.418 154.447 444.239 155.861L443.57 156.181C440.81 155.566 437.089 156.07 436.253 153.256C435.772 151.646 436.143 147.725 436.276 145.961Z" fill="#D4E3F3"/>
<path d="M430.866 145.546C432.36 146.186 432.586 146.159 432.833 147.936C432.801 150.55 433.454 156.145 430.632 157.263C430.675 154.092 430.397 148.427 430.866 145.546Z" fill="#D4E3F3"/>
<path d="M212.596 151.85L213.66 151.343C213.909 150.386 213.958 150.086 214.064 149.102C215.873 146.98 217.785 148.386 220.601 146.265C221.19 146.777 220.986 146.45 221.158 147.28C221.346 147.375 223.342 148.387 223.342 148.387C226.68 148.589 231.986 147.054 234.958 148.964L234.604 149.062C233.406 149.405 233.188 149.419 232.139 150.158C232.094 151.54 233.303 152.269 234.339 153.211C232.982 154.672 224.32 152.672 221.695 153.928C220.348 154.572 213.63 153.425 211.517 154.045C210.347 154.389 210.271 152.794 209.517 153.537C208.21 154.27 208.055 154.427 206.637 154.364L206.663 153.987C207.312 152.257 208.433 147.436 209.92 146.92C211.342 148.007 211.892 150.105 212.596 151.85Z" fill="#D4E3F3"/>
<path d="M206.663 153.981C207.312 152.252 208.433 147.431 209.919 146.914C211.341 148.002 211.892 150.1 212.595 151.844L212.693 153.014C211.18 152.71 210.997 151.85 209.406 151.949C208.202 152.785 208.23 152.838 207.386 153.961L206.663 153.981Z" fill="#D4E3F3"/>
<path d="M240.79 146.922L241.72 147.71L242.418 147.692C244.67 147.644 252.938 147.445 254.387 148.852C254.273 150.376 254.194 151.85 253.944 153.361L253.371 153.509C252.538 152.117 253.456 151.267 252.644 149.287C251.763 149.218 251.426 149.252 250.54 149.292L249.914 150.01C250.049 156.307 245.541 153.9 241.966 152.122C240.539 153.116 237.658 155.163 236.148 153.44C236.094 151.645 235.953 150.44 236.379 148.685C237.369 147.717 238.836 147.701 240.478 147.048L240.79 146.922Z" fill="#D4E3F3"/>
<path d="M258.168 148.321C259.693 148.277 261.22 148.092 262.639 148.59C263.154 149.734 263.117 149.165 262.779 150.351L261.992 150.625C261.442 150.019 260.878 149.427 260.3 148.848C259.339 148.943 259.754 148.742 259.077 149.491L260.035 150.092L259.894 152.406C260.43 152.653 262.454 153.061 263.065 153.185L262.743 153.698C260.973 153.913 259.964 154.028 258.463 153.022C257.556 151.349 257.885 150.289 258.168 148.321Z" fill="#D4E3F3"/>
<path d="M509.313 138.938C521.943 139.047 534.569 139.018 547.199 138.849C553.329 138.805 563.742 138.488 569.41 139.212L572.51 142.515C572.968 145.223 573.562 157.416 572.581 159.405L571.838 159.705C557.402 159.598 542.97 160.019 528.534 159.812C525.774 159.772 523.01 159.82 520.266 159.516L519.621 158.52C520.246 156.739 520.258 156.433 520.239 154.524L520.227 154.048C520.868 151.931 520.512 147.389 519.078 145.497C516.498 144.267 501.377 144.671 498.172 145.361C494.501 148.299 498.086 155.408 496.507 159.553C495.369 160.141 493.086 159.93 491.691 159.913C492.129 156.751 492.738 148.368 490.909 145.73C489.341 143.47 483.74 144.44 481.082 144.514C477.165 144.592 473.248 144.606 469.331 144.558C468.483 144.69 467.079 144.714 466.751 145.614C465.442 149.201 465.68 155.636 466.09 159.345C462.248 159.436 461.318 157.78 457.283 158.743C455.305 157.71 455.403 156.644 455.102 154.536C454.148 151.547 456.021 146.084 453.32 142.982C450.314 140.331 450.138 140.039 446.092 139.651C450.704 138.697 461.224 138.899 466.333 138.887L502.808 138.866C504.931 138.893 507.206 138.96 509.313 138.938Z" fill="#D4E3F3"/>
<path d="M538.068 146.086C540.476 145.374 543.001 146.75 543.709 149.158C544.416 151.566 543.033 154.09 540.625 154.79C538.221 155.488 535.711 154.111 535.007 151.712C534.3 149.313 535.672 146.797 538.068 146.086Z" fill="#0080FF"/>
<path d="M552.79 145.491C558.4 146.226 559.009 151.092 555.116 154.632C548.416 154.72 546.981 148.463 552.79 145.491Z" fill="#D4E3F3"/>
<path d="M469.331 144.556C473.248 144.605 477.165 144.591 481.081 144.513C483.74 144.438 489.341 143.469 490.909 145.729C492.738 148.367 492.128 156.75 491.691 159.912C493.086 159.928 495.369 160.139 496.507 159.552C498.086 155.406 494.501 148.298 498.172 145.36C501.377 144.669 516.497 144.266 519.077 145.495C520.512 147.388 520.868 151.93 520.227 154.046C519.644 155.691 519.457 157.224 518.038 158.271C518.616 159.773 518.776 159.453 518.366 160.613C513.519 162.46 503.125 161.73 497.652 161.721C488.227 161.704 477.184 162.951 467.939 161.659C461.955 162.644 450.693 161.546 444.188 161.386C438.782 161.253 397.146 162.801 395.978 160.06L396.732 159.093C408.854 158.919 420.984 159.022 433.102 159.403C438.164 159.245 448.871 160.317 453.394 158.403C454.711 157.845 454.914 155.892 455.102 154.535C455.403 156.642 455.305 157.709 457.283 158.742C461.317 157.779 462.248 159.435 466.09 159.344C465.68 155.635 465.441 149.2 466.751 145.613C467.079 144.712 468.483 144.689 469.331 144.556Z" fill="#0080FF"/>
<path d="M455.102 154.533C455.403 156.64 455.305 157.707 457.283 158.74C461.317 157.777 462.247 159.433 466.09 159.342C465.68 155.633 465.441 149.198 466.751 145.611C467.079 144.71 468.482 144.687 469.331 144.555L468.905 145.149C466.673 148.225 466.602 146.539 466.493 150.935C466.43 153.306 467.599 159.684 466.458 161.111C464.933 161.755 458.98 161.619 457.303 161.365C453.784 160.833 450.665 159.839 447.073 159.611C444.743 159.462 434.743 160.333 433.102 159.401C438.164 159.244 448.871 160.315 453.393 158.401C454.711 157.843 454.914 155.89 455.102 154.533Z" fill="#D4E3F3"/>
<path d="M475.839 148.35C479.768 148.182 490.35 147.275 486.714 155.934C486.491 156.465 485.667 156.462 485.037 156.613C481.034 156.957 477.008 156.944 473.009 156.574C472.63 152.54 471.5 149.976 475.839 148.35Z" fill="#D4E3F3"/>
<path d="M155.373 139.118C162.33 138.418 176.308 138.845 183.859 138.874C191.474 138.897 199.088 138.993 206.701 139.165C210.603 139.242 215.907 139.207 219.681 139.657L219.201 139.693C211.623 140.207 205.025 138.161 198.941 142.854C196.895 145.454 197.633 150.777 197.705 154.38C197.404 155.661 197.098 156.894 196.875 158.193C195.832 159.293 195.107 159.121 193.184 159.139C183.55 159.234 173.863 159.222 164.231 159.521C161.818 159.596 156.162 159.486 153.999 159.767L151.702 159.267C151.235 157.322 151.182 146.021 151.792 143.781C152.534 141.053 153.126 140.601 155.373 139.118Z" fill="#D4E3F3"/>
<path d="M165.224 148.163C166.337 146.49 167.198 145.546 169.271 145.071C170.793 144.713 172.394 145.003 173.694 145.871C175.126 146.816 176.096 148.319 176.366 150.014C176.623 151.561 176.042 152.612 175.404 154.012C170.252 158.505 163.622 155.523 165.224 148.163Z" fill="white"/>
<path d="M188.65 146.828L189.051 147.074C190.125 149.371 189.805 153.397 189.745 155.977C186.893 156.161 185.056 156.093 182.191 155.956C179.29 153.86 180.722 150.715 181.486 147.788C184.166 147.546 186.004 147.307 188.65 146.828Z" fill="#D4E3F3"/>
<path d="M367.493 158.989C369.675 158.975 373.103 158.856 375.135 159.141C377.239 159.682 378.556 159.69 380.827 160.334L380.858 160.632C376.492 161.096 373.431 160.655 369.065 160.101L368.854 159.763L370.124 159.496L370.108 159.537L369.413 159.177C368.353 159.363 368.646 159.273 367.493 158.989Z" fill="#D4E3F3"/>
<path d="M502.808 138.862L502.55 138.339L501.874 137.999C502.472 137.486 509.465 137.111 510.364 137.666C509.954 138.433 509.993 138.39 509.313 138.934C507.206 138.956 504.931 138.889 502.808 138.862Z" fill="#0080FF"/>
<path d="M572.295 177.231L572.604 177.157C573.39 179.597 574.05 177.337 573.468 179.373C572.272 179.989 572.327 179.92 570.966 179.965C572.463 180.127 571.592 180.145 572.901 180.646C571.799 180.843 571.439 180.788 570.329 180.754C568.32 180.348 565.009 180.411 563.555 179.733C565.212 178.369 571.115 178.308 572.295 177.231Z" fill="#0080FF"/>
<path d="M269.074 203.862C280.201 203.179 296.246 203.777 307.859 203.705L399.841 203.735L431.54 203.732C435.261 203.742 439.135 203.719 442.778 203.822C445.397 203.897 445.374 209.013 444.271 210.607C443.529 211.683 443.232 211.447 442.094 211.635C432.263 212.096 420.872 211.877 410.947 211.875L348.529 211.609L298.708 211.658C289.826 211.675 277.397 211.97 268.727 211.37C268.227 208.044 267.934 207.037 269.074 203.862Z" fill="#D4E3F3"/>
<path d="M319.739 324.788C324.333 325.516 337.752 324.679 343.233 324.71C358.787 324.796 487.27 323.964 490.757 326.411C491.378 327.775 491.128 328.913 491.03 330.441L491.042 330.945C481.086 330.023 470.879 331.258 460.892 331.301C446.737 331.36 316.43 331.793 315.163 330.996C313.917 330.21 313.368 329.335 313.062 327.927C313.768 324.437 316.982 324.808 319.739 324.788Z" fill="#D4E3F3"/>
<path d="M318.507 347.811C322.103 348.128 326.507 347.796 330.22 347.851C377.034 348.57 424.815 346.791 471.512 348.664C471.821 350.802 472.458 352.635 471.012 354.379C459.969 354.242 447.26 354.758 435.932 354.797L354.049 354.668C341.032 354.629 326.399 355.008 313.545 354.445C313.402 352.405 312.914 350.161 314.085 348.621C315.427 347.722 316.827 347.882 318.507 347.811Z" fill="#D4E3F3"/>
<path d="M391.662 293.908C393.808 294.147 401.665 293.936 404.151 293.92C412.568 293.827 420.988 293.82 429.404 293.898L539.17 294.058C539.287 295.878 539.193 298.692 539.178 300.598L533.955 300.485L442.8 300.586C428.99 300.692 415.183 300.719 401.372 300.669C393.964 300.641 385.408 300.786 378.121 300.325L378.317 294.187C382.155 293.905 387.687 293.968 391.662 293.908Z" fill="#D4E3F3"/>
<path d="M269.736 291.432C273.601 291.348 299.07 290.934 300.405 292.373C301.387 293.43 301.551 295.41 301.646 296.777C301.859 299.841 301.991 313.311 301.372 315.665C301.143 316.536 300.549 317.228 299.971 317.893C294.747 317.916 270.803 318.765 268.016 316.607C266.613 313.284 267.569 298.871 267.425 294.258C267.387 293.041 268.719 292.085 269.736 291.432Z" fill="#D4E3F3"/>
<path d="M314.36 307.164C358.108 306.503 403.199 307.129 447.05 307.109C447.187 308.849 447.629 311.984 446.691 313.34C443.485 313.762 433.161 313.547 429.557 313.551L394.02 313.559L341.942 313.61C333.701 313.614 325.393 313.649 317.154 313.516C315.275 313.489 314.924 313.7 313.957 312.644C313.497 310.592 313.398 309.068 314.36 307.164Z" fill="#D4E3F3"/>
<path d="M282.911 324.179C286.693 323.987 297.343 323.491 300.521 324.632C301.668 325.93 302.92 347.277 299.886 349.118C298.965 349.674 297.931 349.611 296.84 349.584C288.255 349.083 275.621 350.037 267.454 348.911C267.339 344.064 266.458 328.084 268.612 324.792C270.895 323.467 279.895 324.101 282.911 324.179Z" fill="#D4E3F3"/>
<path d="M282.911 324.179C286.693 323.987 297.344 323.491 300.521 324.632C301.668 325.93 302.92 347.277 299.886 349.118C298.966 349.674 297.932 349.611 296.841 349.584C298.011 348.301 298.657 349.107 300.266 347.391C300.814 345.245 300.884 327.541 300.317 325.77C297.036 323.69 290.32 325.48 286.459 324.71C285.354 324.491 284.394 324.62 283.289 324.757L282.911 324.179Z" fill="#D4E3F3"/>
<path d="M317.641 264.59C345.407 263.61 373.845 264.868 401.662 264.33C403.596 264.293 407.119 264.165 408.588 265.413C409.847 268.609 409.19 271.182 405.852 272.502C384.215 272.616 362.575 272.598 340.939 272.448C333.718 272.428 325.197 273.009 318.016 272.158C314.317 271.719 314.057 269.055 314.987 265.94C316.249 264.681 315.741 265.076 317.641 264.59Z" fill="#D4E3F3"/>
<path d="M391.276 336.108C399.293 336.28 408.276 335.615 416.2 335.901C429.358 336.377 442.203 336.162 455.302 336.295C464.539 336.389 478.123 335.838 486.938 336.659C487.106 338.539 487.493 340.576 486.571 342.19C483.983 343.226 473.487 342.605 470.043 342.507C467.111 342.616 464.023 342.62 461.076 342.605C433.576 342.468 405.833 343.328 378.353 342.487L378.435 336.436C382.715 336.46 386.999 336.35 391.276 336.108Z" fill="#D4E3F3"/>
<path d="M316.473 218.46C323.004 218.629 366.668 217.986 368.951 219.194C369.635 219.556 370.128 220.585 370.202 221.324C370.3 222.281 369.944 223.178 369.264 223.851C368.286 224.823 366.774 225.196 365.437 225.293C362.079 225.539 358.424 225.135 355.031 225.132C345.221 225.086 335.412 225.113 325.604 225.214C311.353 225.307 285.189 225.448 269.662 225.093C269.458 224.906 269.254 224.719 269.05 224.532C268.426 222.668 268.702 221.016 268.82 219.026C272.873 218.402 281.944 218.516 286.373 218.514C296.406 218.581 306.44 218.563 316.473 218.46Z" fill="#D4E3F3"/>
<path d="M209.261 190.705C214.041 190.428 232.145 190.24 236.527 190.803C238.599 193.601 239.673 206.69 236.946 209.506C235.529 210.215 235.243 210.066 233.584 209.903C232.535 210.214 227.911 210.146 226.7 210.014C221.324 209.428 209.127 210.882 204.582 208.453C203.826 205.785 203.654 193.668 204.872 191.347C206.219 190.648 207.716 190.757 209.261 190.705Z" fill="#D4E3F3"/>
<path d="M166.677 190.655C170.712 190.585 195.746 189.711 197.489 191.347C198.965 194.407 199.883 205.891 197.494 209.08C196.9 209.874 194.229 209.818 193.086 209.83C190.251 210.167 168.998 210.061 166.408 209.202C164.293 205.99 165.723 204.068 165.289 200.614C164.973 198.102 164.187 192.152 166.677 190.655Z" fill="#D4E3F3"/>
<path d="M454.375 307.11L504.165 307.086C511.287 307.067 524.777 306.636 531.243 307.219C532.685 308.353 532.533 311.961 531.716 313.36C522.029 313.903 509.958 313.552 500.064 313.544C484.471 313.677 468.878 313.669 453.284 313.52C453.226 311.445 452.596 308.325 454.375 307.11Z" fill="#D4E3F3"/>
<path d="M177.025 247.372C182.604 247.466 218.152 246.476 220.865 248.371C222.417 250.824 222.693 253.693 220.34 255.751C218.723 257.166 214.929 256.372 212.633 256.334C205.278 255.13 176.93 257.797 167.871 255.597C167.206 255.346 166.69 254.273 166.615 253.657C165.59 245.346 171.365 247.87 176.238 247.448L177.025 247.372Z" fill="#D4E3F3"/>
<path d="M280.993 230.19C292.068 230.863 304.406 229.558 315.568 230.122C318.677 230.278 326.611 229.347 328.51 232.041C328.573 233.611 328.316 235.067 327.255 236.253C325.744 236.99 323.829 236.766 322.071 236.752C316.061 236.704 271.796 237.648 269.204 235.886C266.498 231.942 270.773 229.369 274.411 230.235C275.403 230.471 279.68 230.203 280.993 230.19Z" fill="#D4E3F3"/>
<path d="M314.329 336.074C316.011 335.957 317.982 335.894 319.679 335.898C337.006 335.965 354.276 336.234 371.605 336.07C371.722 337.646 372.23 340.968 371.288 342.117C370.874 342.618 370.162 342.555 369.373 342.68C356.95 342.407 344.471 342.833 332.061 342.794C328.106 342.778 317.958 343.11 314.517 342.36C312.863 340.589 313.258 338.087 314.329 336.074Z" fill="#D4E3F3"/>
<path d="M264.414 262.531C275.753 261.848 288.375 262.774 299.815 262.498C304.394 262.387 304.588 269.074 301.851 271.91C298.818 272.65 266.126 272.369 264.282 271.414C262.146 268.967 262.634 265.037 264.414 262.531Z" fill="#D4E3F3"/>
<path d="M357.224 293.921C359.339 294.067 361.282 294.05 363.397 294.04C368.119 294.019 372.927 293.129 371.277 299.646C369.624 301.135 337.518 300.557 331.915 300.564C328.051 300.482 324.15 300.705 320.288 300.635C317.513 300.58 314.827 300.928 313.499 298.126C313.526 296.472 313.418 296.162 314.212 294.794C315.972 293.551 329.825 294.135 332.639 294.152C340.834 294.192 349.031 294.114 357.224 293.921Z" fill="#D4E3F3"/>
<path d="M170.502 261.711C176.579 262.856 198.71 261.052 202.161 262.294C203.2 263.337 203.627 264.873 203.59 266.303C203.503 269.704 203.922 269.648 202.069 271.795C199.427 271.027 195.643 271.55 192.716 271.533C185.212 271.503 178.004 271.918 170.483 271.192C166.517 270.81 165.874 267.668 166.595 264.139C166.879 262.745 169.257 262.106 170.502 261.711Z" fill="#D4E3F3"/>
<path d="M178.812 230.845C178.896 230.837 178.979 230.828 179.063 230.82C186.94 231.58 194.83 230.968 202.704 231.385C203.888 231.448 205.116 234.71 205.049 235.854C204.933 237.858 203.575 239.51 201.583 239.737C199.07 240.025 196.245 239.803 193.716 239.743C189.557 239.992 170.16 240.271 167.584 239.048C166.364 237.167 166.079 234.289 167.286 232.365C170.246 230.517 174.307 231.353 178.268 230.909L178.812 230.845Z" fill="#D4E3F3"/>
<path d="M174.067 214.937C176.363 214.913 183.256 214.146 184.673 215.637C186.442 217.5 186.03 222.652 183.9 224.312C182.687 225.258 181.312 224.98 179.893 224.946C176.904 224.976 171.845 225.277 169.099 224.594C167.489 223.227 167.383 217.367 168.585 215.659C170.355 214.876 172.098 215.001 174.067 214.937Z" fill="#D4E3F3"/>
<path d="M256.34 386.458C260.297 386.207 290.826 385.906 292.53 386.837C290.196 388.322 276.897 387.169 272.644 387.857C268.962 387.4 261.142 387.74 257.254 387.916C257.415 387.697 257.575 387.478 257.736 387.259C261.599 386.563 273.388 387.685 276.512 386.989C274.347 387.009 273.113 386.657 270.728 386.645C266.504 386.626 261.587 386.77 257.302 386.786C256.994 387.083 256.686 387.384 256.378 387.681L256.012 387.658L256.34 386.458Z" fill="#D4E3F3"/>
<path d="M340.248 386.141C346.318 385.527 360.492 386.047 367.004 386.11L366.797 386.34C361.801 386.317 342.583 387.435 340.248 386.141Z" fill="#D4E3F3"/>
<rect x="138" y="131.723" width="448" height="280" rx="6.84611" fill="#0080FF" stroke="#0080FF" stroke-width="4"/>
<circle cx="360" cy="118" r="4" fill="white"/>
<rect x="337" y="112.723" width="49" height="3" fill="#0080FF"/>
<rect width="50.27" height="13" transform="translate(339 115.723)" fill="#D4E3F3"/>
<rect x="341" y="119.06" width="37.9457" height="6.32429" rx="3.16214" fill="#0080FF"/>
<rect x="380.946" y="119.06" width="6.32429" height="6.32429" rx="3.16214" fill="#0080FF"/>
</svg>
